<?xml version="1.0" encoding="utf-8" ?>
<svg baseProfile="tiny" height="50.0" version="1.2" width="800.0" xmlns="http://www.w3.org/2000/svg" xmlns:ev="http://www.w3.org/2001/xml-events" xmlns:xlink="http://www.w3.org/1999/xlink"><defs /><g transform="translate(0.0,0.0)"><rect fill="rgb(255,255,255)" height="50.0" width="800.0" x="0" y="0" /><g transform="scale(1.0,-1.0) translate(6,-44.0)"><g transform="translate(4.75617811183,19.0) scale(1.0,-1.0)"><circle cx="0" cy="0" fill="rgb(175,175,175)" r="4.7562" stroke="rgb(105,105,105)" stroke-width="0.4756" /></g><g transform="translate(36.1649014919,19.0) scale(1.0,-1.0)"><circle cx="0" cy="0" fill="rgb(175,175,175)" r="4.7562" stroke="rgb(105,105,105)" stroke-width="0.4756" /></g><g transform="translate(751.835098508,19.0) scale(1.0,-1.0)"><circle cx="0" cy="0" fill="rgb(175,175,175)" r="4.7562" stroke="rgb(105,105,105)" stroke-width="0.4756" /></g><g transform="translate(700.235052955,19.0) scale(1.0,-1.0)"><circle cx="0" cy="0" fill="rgb(150,150,255)" r="4.7562" stroke="rgb(90,90,153)" stroke-width="0.4756" /></g><g transform="translate(668.826329575,19.0) scale(1.0,-1.0)"><circle cx="0" cy="0" fill="rgb(150,150,255)" r="4.7562" stroke="rgb(90,90,153)" stroke-width="0.4756" /></g><g transform="translate(617.226284022,19.0) scale(1.0,-1.0)"><circle cx="0" cy="0" fill="rgb(55,55,255)" r="4.7562" stroke="rgb(33,33,153)" stroke-width="0.4756" /></g><g transform="translate(585.817560642,19.0) scale(1.0,-1.0)"><circle cx="0" cy="0" fill="rgb(55,55,255)" r="4.7562" stroke="rgb(33,33,153)" stroke-width="0.4756" /></g><g transform="translate(534.217515089,19.0) scale(1.0,-1.0)"><circle cx="0" cy="0" fill="rgb(55,55,255)" r="4.7562" stroke="rgb(33,33,153)" stroke-width="0.4756" /></g><g transform="translate(502.808791709,19.0) scale(1.0,-1.0)"><circle cx="0" cy="0" fill="rgb(55,55,255)" r="4.7562" stroke="rgb(33,33,153)" stroke-width="0.4756" /></g><g transform="translate(451.208746156,19.0) scale(1.0,-1.0)"><circle cx="0" cy="0" fill="rgb(150,150,255)" r="4.7562" stroke="rgb(90,90,153)" stroke-width="0.4756" /></g><g transform="translate(419.800022776,19.0) scale(1.0,-1.0)"><circle cx="0" cy="0" fill="rgb(150,150,255)" r="4.7562" stroke="rgb(90,90,153)" stroke-width="0.4756" /></g><g transform="translate(368.199977224,19.0) scale(1.0,-1.0)"><circle cx="0" cy="0" fill="rgb(175,175,175)" r="4.7562" stroke="rgb(105,105,105)" stroke-width="0.4756" /></g><g transform="translate(336.791253844,19.0) scale(1.0,-1.0)"><circle cx="0" cy="0" fill="rgb(175,175,175)" r="4.7562" stroke="rgb(105,105,105)" stroke-width="0.4756" /></g><g transform="translate(285.191208291,19.0) scale(1.0,-1.0)"><circle cx="0" cy="0" fill="rgb(175,175,175)" r="4.7562" stroke="rgb(105,105,105)" stroke-width="0.4756" /></g><g transform="translate(253.782484911,19.0) scale(1.0,-1.0)"><circle cx="0" cy="0" fill="rgb(175,175,175)" r="4.7562" stroke="rgb(105,105,105)" stroke-width="0.4756" /></g><g transform="translate(202.182439358,19.0) scale(1.0,-1.0)"><circle cx="0" cy="0" fill="rgb(175,175,175)" r="4.7562" stroke="rgb(105,105,105)" stroke-width="0.4756" /></g><g transform="translate(170.773715978,19.0) scale(1.0,-1.0)"><circle cx="0" cy="0" fill="rgb(175,175,175)" r="4.7562" stroke="rgb(105,105,105)" stroke-width="0.4756" /></g><g transform="translate(119.173670425,19.0) scale(1.0,-1.0)"><circle cx="0" cy="0" fill="rgb(175,175,175)" r="4.7562" stroke="rgb(105,105,105)" stroke-width="0.4756" /></g><g transform="translate(87.7649470448,19.0) scale(1.0,-1.0)"><circle cx="0" cy="0" fill="rgb(175,175,175)" r="4.7562" stroke="rgb(105,105,105)" stroke-width="0.4756" /></g><g transform="translate(783.243821888,19.0) scale(1.0,-1.0)"><circle cx="0" cy="0" fill="rgb(175,175,175)" r="4.7562" stroke="rgb(105,105,105)" stroke-width="0.4756" /></g></g></g></svg>