<?xml version="1.0" encoding="utf-8" ?>
<svg baseProfile="full" height="200" version="1.1" width="800" xmlns="http://www.w3.org/2000/svg" xmlns:ev="http://www.w3.org/2001/xml-events" xmlns:xlink="http://www.w3.org/1999/xlink"><defs /><g transform="translate(0.0,0.0)"><rect fill="rgb(255,255,255)" height="200.0" width="533.333333333" x="0" y="0" /><g transform="scale(1.0,-1.0) translate(6,-194.0)"><g transform="translate(298.543633204,161.984408335) scale(1.0,-1.0)"><circle cx="0" cy="0" fill="rgb(255,255,255)" r="13.8481754932" stroke="rgb(153,153,153)" stroke-width="1.38481754932" /><text fill="rgb(153,153,153)" font-size="13.8481754932" text-anchor="middle" x="0" y="3.46204387331">9</text></g><g transform="translate(374.297565625,26.0155916653) scale(1.0,-1.0)"><circle cx="0" cy="0" fill="rgb(255,255,255)" r="13.8481754932" stroke="rgb(153,153,153)" stroke-width="1.38481754932" /><text fill="rgb(153,153,153)" font-size="13.8481754932" text-anchor="middle" x="0" y="3.46204387331">6</text></g><g transform="translate(147.035767056,161.984408335) scale(1.0,-1.0)"><circle cx="0" cy="0" fill="rgb(255,255,255)" r="13.8481754932" stroke="rgb(153,153,153)" stroke-width="1.38481754932" /><text fill="rgb(153,153,153)" font-size="13.8481754932" text-anchor="middle" x="0" y="3.46204387331">15</text></g><g transform="translate(222.78970013,26.0155916653) scale(1.0,-1.0)"><circle cx="0" cy="0" fill="rgb(255,255,255)" r="13.8481754932" stroke="rgb(153,153,153)" stroke-width="1.38481754932" /><text fill="rgb(153,153,153)" font-size="13.8481754932" text-anchor="middle" x="0" y="3.46204387331">12</text></g><g transform="translate(71.2818346347,26.0155916653) scale(1.0,-1.0)"><circle cx="0" cy="0" fill="rgb(255,255,255)" r="13.8481754932" stroke="rgb(153,153,153)" stroke-width="1.38481754932" /><text fill="rgb(153,153,153)" font-size="13.8481754932" text-anchor="middle" x="0" y="3.46204387331">18</text></g><g transform="translate(450.051498699,161.984408335) scale(1.0,-1.0)"><circle cx="0" cy="0" fill="rgb(255,255,255)" r="13.8481754932" stroke="rgb(153,153,153)" stroke-width="1.38481754932" /><text fill="rgb(153,153,153)" font-size="13.8481754932" text-anchor="middle" x="0" y="3.46204387331">3</text></g><line stroke="rgb(132,132,132)" stroke-width="6.27087192146" x1="147.035767056" x2="147.035767056" y1="131.183270389" y2="153.942731914" /><line stroke="rgb(132,132,132)" stroke-width="6.27087192146" x1="222.78970013" x2="222.78970013" y1="56.8167296115" y2="34.057268086" /><line stroke="rgb(132,132,132)" stroke-width="6.27087192146" x1="71.2818346347" x2="71.2818346347" y1="56.8167296115" y2="34.057268086" /><line stroke="rgb(132,132,132)" stroke-width="6.27087192146" x1="298.543633204" x2="298.543633204" y1="131.183270389" y2="153.942731914" /><line stroke="rgb(132,132,132)" stroke-width="6.27087192146" x1="374.297565625" x2="374.297565625" y1="56.8167296115" y2="34.057268086" /><line stroke="rgb(132,132,132)" stroke-width="6.27087192146" x1="450.051498699" x2="450.051498699" y1="131.183270389" y2="153.942731914" /><g transform="translate(374.297565625,66.9826224451) scale(1.0,-1.0)"><circle cx="0" cy="0" fill="rgb(188,188,188)" r="17.5061841141" stroke="rgb(112,112,112)" stroke-width="1.75061841141" /><text fill="rgb(112,112,112)" font-size="17.5061841141" text-anchor="middle" x="0" y="4.37654602852">4</text></g><g transform="translate(298.543633204,121.017377555) scale(1.0,-1.0)"><circle cx="0" cy="0" fill="rgb(188,188,188)" r="17.5061841141" stroke="rgb(112,112,112)" stroke-width="1.75061841141" /><text fill="rgb(112,112,112)" font-size="17.5061841141" text-anchor="middle" x="0" y="4.37654602852">7</text></g><g transform="translate(222.78970013,66.9826224451) scale(1.0,-1.0)"><circle cx="0" cy="0" fill="rgb(188,188,188)" r="17.5061841141" stroke="rgb(112,112,112)" stroke-width="1.75061841141" /><text fill="rgb(112,112,112)" font-size="17.5061841141" text-anchor="middle" x="0" y="4.37654602852">10</text></g><g transform="translate(147.035767056,121.017377555) scale(1.0,-1.0)"><circle cx="0" cy="0" fill="rgb(188,188,188)" r="17.5061841141" stroke="rgb(112,112,112)" stroke-width="1.75061841141" /><text fill="rgb(112,112,112)" font-size="17.5061841141" text-anchor="middle" x="0" y="4.37654602852">13</text></g><g transform="translate(450.051498699,121.017377555) scale(1.0,-1.0)"><circle cx="0" cy="0" fill="rgb(188,188,188)" r="17.5061841141" stroke="rgb(112,112,112)" stroke-width="1.75061841141" /><text fill="rgb(112,112,112)" font-size="17.5061841141" text-anchor="middle" x="0" y="4.37654602852">1</text></g><g transform="translate(71.2818346347,66.9826224451) scale(1.0,-1.0)"><circle cx="0" cy="0" fill="rgb(188,188,188)" r="17.5061841141" stroke="rgb(112,112,112)" stroke-width="1.75061841141" /><text fill="rgb(112,112,112)" font-size="17.5061841141" text-anchor="middle" x="0" y="4.37654602852">16</text></g><line stroke="rgb(132,132,132)" stroke-width="6.27087192146" x1="57.0297784626" x2="25.1221900771" y1="77.1485152787" y2="99.9079768042" /><g transform="translate(13.8481754932,107.949653225) scale(1.0,-1.0)"><circle cx="0" cy="0" fill="rgb(255,255,255)" r="13.8481754932" stroke="rgb(153,153,153)" stroke-width="1.38481754932" /><text fill="rgb(153,153,153)" font-size="13.8481754932" text-anchor="middle" x="0" y="3.46204387331">19</text></g><line stroke="rgb(132,132,132)" stroke-width="6.27087192146" x1="496.211143256" x2="464.303554871" y1="88.0920231958" y2="110.851484721" /><line stroke="rgb(112,112,112)" stroke-width="7.00247364563" x1="360.045509492" x2="312.795689336" y1="77.1485153343" y2="110.851484666" /><line stroke="rgb(112,112,112)" stroke-width="7.00247364563" x1="132.783710923" x2="85.5338907671" y1="110.851484666" y2="77.1485153343" /><line stroke="rgb(112,112,112)" stroke-width="7.00247364563" x1="208.537643956" x2="161.287823229" y1="77.1485152762" y2="110.851484724" /><line stroke="rgb(112,112,112)" stroke-width="7.00247364563" x1="284.29157703" x2="237.041756303" y1="110.851484724" y2="77.1485152762" /><line stroke="rgb(112,112,112)" stroke-width="7.00247364563" x1="435.799442525" x2="388.549621798" y1="110.851484724" y2="77.1485152762" /><g transform="translate(507.48515784,80.0503467751) scale(1.0,-1.0)"><circle cx="0" cy="0" fill="rgb(255,255,255)" r="13.8481754932" stroke="rgb(153,153,153)" stroke-width="1.38481754932" /><text fill="rgb(153,153,153)" font-size="13.8481754932" text-anchor="middle" x="0" y="3.46204387331">0</text></g><line stroke="rgb(132,132,132)" stroke-width="6.27087192146" x1="374.297565625" x2="374.297565625" y1="56.8167296115" y2="34.057268086" /><line stroke="rgb(132,132,132)" stroke-width="6.27087192146" x1="298.543633204" x2="298.543633204" y1="131.183270389" y2="153.942731914" /><line stroke="rgb(132,132,132)" stroke-width="6.27087192146" x1="222.78970013" x2="222.78970013" y1="56.8167296115" y2="34.057268086" /><line stroke="rgb(132,132,132)" stroke-width="6.27087192146" x1="147.035767056" x2="147.035767056" y1="131.183270389" y2="153.942731914" /><line stroke="rgb(132,132,132)" stroke-width="6.27087192146" x1="450.051498699" x2="450.051498699" y1="131.183270389" y2="153.942731914" /><line stroke="rgb(132,132,132)" stroke-width="6.27087192146" x1="71.2818346347" x2="71.2818346347" y1="56.8167296115" y2="34.057268086" /><g transform="translate(147.035767056,161.984408335) scale(1.0,-1.0)"><circle cx="0" cy="0" fill="rgb(255,255,255)" r="13.8481754932" stroke="rgb(153,153,153)" stroke-width="1.38481754932" /><text fill="rgb(153,153,153)" font-size="13.8481754932" text-anchor="middle" x="0" y="3.46204387331">14</text></g><g transform="translate(222.78970013,26.0155916653) scale(1.0,-1.0)"><circle cx="0" cy="0" fill="rgb(255,255,255)" r="13.8481754932" stroke="rgb(153,153,153)" stroke-width="1.38481754932" /><text fill="rgb(153,153,153)" font-size="13.8481754932" text-anchor="middle" x="0" y="3.46204387331">11</text></g><g transform="translate(71.2818346347,26.0155916653) scale(1.0,-1.0)"><circle cx="0" cy="0" fill="rgb(255,255,255)" r="13.8481754932" stroke="rgb(153,153,153)" stroke-width="1.38481754932" /><text fill="rgb(153,153,153)" font-size="13.8481754932" text-anchor="middle" x="0" y="3.46204387331">17</text></g><g transform="translate(298.543633204,161.984408335) scale(1.0,-1.0)"><circle cx="0" cy="0" fill="rgb(255,255,255)" r="13.8481754932" stroke="rgb(153,153,153)" stroke-width="1.38481754932" /><text fill="rgb(153,153,153)" font-size="13.8481754932" text-anchor="middle" x="0" y="3.46204387331">8</text></g><g transform="translate(374.297565625,26.0155916653) scale(1.0,-1.0)"><circle cx="0" cy="0" fill="rgb(255,255,255)" r="13.8481754932" stroke="rgb(153,153,153)" stroke-width="1.38481754932" /><text fill="rgb(153,153,153)" font-size="13.8481754932" text-anchor="middle" x="0" y="3.46204387331">5</text></g><g transform="translate(450.051498699,161.984408335) scale(1.0,-1.0)"><circle cx="0" cy="0" fill="rgb(255,255,255)" r="13.8481754932" stroke="rgb(153,153,153)" stroke-width="1.38481754932" /><text fill="rgb(153,153,153)" font-size="13.8481754932" text-anchor="middle" x="0" y="3.46204387331">2</text></g></g><rect fill="rgb(255,255,255)" height="30" rx="2" ry="2" stroke="rgb(50,50,50)" stroke-width="2" width="30" x="453.333333333" y="10" /><text fill="rgb(50,50,50)" font-size="10" text-anchor="middle" x="460.333333333" y="20">1</text><text fill="rgb(50,50,50)" font-size="18" text-anchor="middle" x="468.333333333" y="35">H</text><rect fill="rgb(144,144,144)" height="30" rx="2" ry="2" stroke="rgb(28,28,28)" stroke-width="2" width="30" x="493.333333333" y="10" /><text fill="rgb(28,28,28)" font-size="10" text-anchor="middle" x="500.333333333" y="20">6</text><text fill="rgb(28,28,28)" font-size="18" text-anchor="middle" x="508.333333333" y="35">C</text></g><g transform="translate(533.333333333,0.0)"><rect fill="rgb(255,255,255)" height="50.0" width="133.333333333" x="0" y="0" /><g transform="scale(1.0,-1.0) translate(6,-44.0)"><g transform="translate(69.4609919897,34.7847118829) scale(1.0,-1.0)"><circle cx="0" cy="0" fill="rgb(165,165,255)" r="3.21528811707" stroke="rgb(99,99,153)" stroke-width="0.321528811707" /></g><g transform="translate(87.049642484,3.21528811707) scale(1.0,-1.0)"><circle cx="0" cy="0" fill="rgb(165,165,255)" r="3.21528811707" stroke="rgb(99,99,153)" stroke-width="0.321528811707" /></g><g transform="translate(34.2836906977,34.7847118829) scale(1.0,-1.0)"><circle cx="0" cy="0" fill="rgb(255,255,255)" r="3.21528811707" stroke="rgb(153,153,153)" stroke-width="0.321528811707" /></g><g transform="translate(51.8723413437,3.21528811707) scale(1.0,-1.0)"><circle cx="0" cy="0" fill="rgb(255,255,255)" r="3.21528811707" stroke="rgb(153,153,153)" stroke-width="0.321528811707" /></g><g transform="translate(16.6950402034,3.21528811707) scale(1.0,-1.0)"><circle cx="0" cy="0" fill="rgb(255,255,255)" r="3.21528811707" stroke="rgb(153,153,153)" stroke-width="0.321528811707" /></g><g transform="translate(104.63829313,34.7847118829) scale(1.0,-1.0)"><circle cx="0" cy="0" fill="rgb(55,55,255)" r="3.21528811707" stroke="rgb(33,33,153)" stroke-width="0.321528811707" /></g><line stroke="rgb(153,153,153)" stroke-width="1.45597952471" x1="34.2836906977" x2="34.2836906977" y1="27.6332620129" y2="32.9175845744" /><line stroke="rgb(153,153,153)" stroke-width="1.45597952471" x1="51.8723413437" x2="51.8723413437" y1="10.3667379871" y2="5.0824154256" /><line stroke="rgb(153,153,153)" stroke-width="1.45597952471" x1="16.6950402034" x2="16.6950402034" y1="10.3667379871" y2="5.0824154256" /><line stroke="rgb(99,99,153)" stroke-width="1.45597952471" x1="69.4609919897" x2="69.4609919897" y1="27.6332620129" y2="32.9175845744" /><line stroke="rgb(99,99,153)" stroke-width="1.45597952471" x1="87.049642484" x2="87.049642484" y1="10.3667379871" y2="5.0824154256" /><line stroke="rgb(33,33,153)" stroke-width="1.45597952471" x1="104.63829313" x2="104.63829313" y1="27.6332620129" y2="32.9175845744" /><g transform="translate(87.049642484,12.7270687356) scale(1.0,-1.0)"><circle cx="0" cy="0" fill="rgb(165,165,255)" r="4.06460950649" stroke="rgb(99,99,153)" stroke-width="0.406460950649" /></g><g transform="translate(69.4609919897,25.2729312644) scale(1.0,-1.0)"><circle cx="0" cy="0" fill="rgb(165,165,255)" r="4.06460950649" stroke="rgb(99,99,153)" stroke-width="0.406460950649" /></g><g transform="translate(51.8723413437,12.7270687356) scale(1.0,-1.0)"><circle cx="0" cy="0" fill="rgb(255,255,255)" r="4.06460950649" stroke="rgb(153,153,153)" stroke-width="0.406460950649" /></g><g transform="translate(34.2836906977,25.2729312644) scale(1.0,-1.0)"><circle cx="0" cy="0" fill="rgb(255,255,255)" r="4.06460950649" stroke="rgb(153,153,153)" stroke-width="0.406460950649" /></g><g transform="translate(104.63829313,25.2729312644) scale(1.0,-1.0)"><circle cx="0" cy="0" fill="rgb(55,55,255)" r="4.06460950649" stroke="rgb(33,33,153)" stroke-width="0.406460950649" /></g><g transform="translate(16.6950402034,12.7270687356) scale(1.0,-1.0)"><circle cx="0" cy="0" fill="rgb(255,255,255)" r="4.06460950649" stroke="rgb(153,153,153)" stroke-width="0.406460950649" /></g><line stroke="rgb(153,153,153)" stroke-width="1.45597952471" x1="13.385978524" x2="5.97763149439" y1="15.0873994841" y2="20.3717220455" /><g transform="translate(3.36001553907,22.2388493541) scale(1.0,-1.0)"><circle cx="0" cy="0" fill="rgb(255,255,255)" r="3.21528811707" stroke="rgb(153,153,153)" stroke-width="0.321528811707" /></g><line stroke="rgb(33,33,153)" stroke-width="1.45597952471" x1="115.355701839" x2="107.947354809" y1="17.6282779545" y2="22.9126005159" /><line stroke="rgb(99,99,153)" stroke-width="1.6258438026" x1="83.7405808138" x2="72.7700536598" y1="15.087399497" y2="22.912600503" /><line stroke="rgb(153,153,153)" stroke-width="1.6258438026" x1="30.9746290275" x2="20.0041018735" y1="22.912600503" y2="15.087399497" /><line stroke="rgb(153,153,153)" stroke-width="1.6258438026" x1="48.5632796639" x2="37.5927523775" y1="15.0873994835" y2="22.9126005165" /><line stroke="rgb(126,126,153)" stroke-width="1.6258438026" x1="66.1519303099" x2="55.1814030235" y1="22.9126005165" y2="15.0873994835" /><line stroke="rgb(66,66,153)" stroke-width="1.6258438026" x1="101.32923145" x2="90.3587041638" y1="22.9126005165" y2="15.0873994835" /><g transform="translate(117.973317794,15.7611506459) scale(1.0,-1.0)"><circle cx="0" cy="0" fill="rgb(55,55,255)" r="3.21528811707" stroke="rgb(33,33,153)" stroke-width="0.321528811707" /></g><line stroke="rgb(99,99,153)" stroke-width="1.45597952471" x1="87.049642484" x2="87.049642484" y1="10.3667379871" y2="5.0824154256" /><line stroke="rgb(99,99,153)" stroke-width="1.45597952471" x1="69.4609919897" x2="69.4609919897" y1="27.6332620129" y2="32.9175845744" /><line stroke="rgb(153,153,153)" stroke-width="1.45597952471" x1="51.8723413437" x2="51.8723413437" y1="10.3667379871" y2="5.0824154256" /><line stroke="rgb(153,153,153)" stroke-width="1.45597952471" x1="34.2836906977" x2="34.2836906977" y1="27.6332620129" y2="32.9175845744" /><line stroke="rgb(33,33,153)" stroke-width="1.45597952471" x1="104.63829313" x2="104.63829313" y1="27.6332620129" y2="32.9175845744" /><line stroke="rgb(153,153,153)" stroke-width="1.45597952471" x1="16.6950402034" x2="16.6950402034" y1="10.3667379871" y2="5.0824154256" /><g transform="translate(34.2836906977,34.7847118829) scale(1.0,-1.0)"><circle cx="0" cy="0" fill="rgb(255,255,255)" r="3.21528811707" stroke="rgb(153,153,153)" stroke-width="0.321528811707" /></g><g transform="translate(51.8723413437,3.21528811707) scale(1.0,-1.0)"><circle cx="0" cy="0" fill="rgb(255,255,255)" r="3.21528811707" stroke="rgb(153,153,153)" stroke-width="0.321528811707" /></g><g transform="translate(16.6950402034,3.21528811707) scale(1.0,-1.0)"><circle cx="0" cy="0" fill="rgb(255,255,255)" r="3.21528811707" stroke="rgb(153,153,153)" stroke-width="0.321528811707" /></g><g transform="translate(69.4609919897,34.7847118829) scale(1.0,-1.0)"><circle cx="0" cy="0" fill="rgb(165,165,255)" r="3.21528811707" stroke="rgb(99,99,153)" stroke-width="0.321528811707" /></g><g transform="translate(87.049642484,3.21528811707) scale(1.0,-1.0)"><circle cx="0" cy="0" fill="rgb(165,165,255)" r="3.21528811707" stroke="rgb(99,99,153)" stroke-width="0.321528811707" /></g><g transform="translate(104.63829313,34.7847118829) scale(1.0,-1.0)"><circle cx="0" cy="0" fill="rgb(55,55,255)" r="3.21528811707" stroke="rgb(33,33,153)" stroke-width="0.321528811707" /></g></g></g><g transform="translate(533.333333333,50.0)"><rect fill="rgb(255,255,255)" height="50.0" width="133.333333333" x="0" y="0" /><g transform="scale(1.0,-1.0) translate(6,-44.0)"><g transform="translate(69.4609919897,34.7847118829) scale(1.0,-1.0)"><circle cx="0" cy="0" fill="rgb(165,165,255)" r="3.21528811707" stroke="rgb(99,99,153)" stroke-width="0.321528811707" /></g><g transform="translate(87.049642484,3.21528811707) scale(1.0,-1.0)"><circle cx="0" cy="0" fill="rgb(55,55,255)" r="3.21528811707" stroke="rgb(33,33,153)" stroke-width="0.321528811707" /></g><g transform="translate(34.2836906977,34.7847118829) scale(1.0,-1.0)"><circle cx="0" cy="0" fill="rgb(255,255,255)" r="3.21528811707" stroke="rgb(153,153,153)" stroke-width="0.321528811707" /></g><g transform="translate(51.8723413437,3.21528811707) scale(1.0,-1.0)"><circle cx="0" cy="0" fill="rgb(165,165,255)" r="3.21528811707" stroke="rgb(99,99,153)" stroke-width="0.321528811707" /></g><g transform="translate(16.6950402034,3.21528811707) scale(1.0,-1.0)"><circle cx="0" cy="0" fill="rgb(255,255,255)" r="3.21528811707" stroke="rgb(153,153,153)" stroke-width="0.321528811707" /></g><g transform="translate(104.63829313,34.7847118829) scale(1.0,-1.0)"><circle cx="0" cy="0" fill="rgb(165,165,255)" r="3.21528811707" stroke="rgb(99,99,153)" stroke-width="0.321528811707" /></g><line stroke="rgb(153,153,153)" stroke-width="1.45597952471" x1="34.2836906977" x2="34.2836906977" y1="27.6332620129" y2="32.9175845744" /><line stroke="rgb(99,99,153)" stroke-width="1.45597952471" x1="51.8723413437" x2="51.8723413437" y1="10.3667379871" y2="5.0824154256" /><line stroke="rgb(153,153,153)" stroke-width="1.45597952471" x1="16.6950402034" x2="16.6950402034" y1="10.3667379871" y2="5.0824154256" /><line stroke="rgb(99,99,153)" stroke-width="1.45597952471" x1="69.4609919897" x2="69.4609919897" y1="27.6332620129" y2="32.9175845744" /><line stroke="rgb(33,33,153)" stroke-width="1.45597952471" x1="87.049642484" x2="87.049642484" y1="10.3667379871" y2="5.0824154256" /><line stroke="rgb(99,99,153)" stroke-width="1.45597952471" x1="104.63829313" x2="104.63829313" y1="27.6332620129" y2="32.9175845744" /><g transform="translate(87.049642484,12.7270687356) scale(1.0,-1.0)"><circle cx="0" cy="0" fill="rgb(55,55,255)" r="4.06460950649" stroke="rgb(33,33,153)" stroke-width="0.406460950649" /></g><g transform="translate(69.4609919897,25.2729312644) scale(1.0,-1.0)"><circle cx="0" cy="0" fill="rgb(165,165,255)" r="4.06460950649" stroke="rgb(99,99,153)" stroke-width="0.406460950649" /></g><g transform="translate(51.8723413437,12.7270687356) scale(1.0,-1.0)"><circle cx="0" cy="0" fill="rgb(165,165,255)" r="4.06460950649" stroke="rgb(99,99,153)" stroke-width="0.406460950649" /></g><g transform="translate(34.2836906977,25.2729312644) scale(1.0,-1.0)"><circle cx="0" cy="0" fill="rgb(255,255,255)" r="4.06460950649" stroke="rgb(153,153,153)" stroke-width="0.406460950649" /></g><g transform="translate(104.63829313,25.2729312644) scale(1.0,-1.0)"><circle cx="0" cy="0" fill="rgb(165,165,255)" r="4.06460950649" stroke="rgb(99,99,153)" stroke-width="0.406460950649" /></g><g transform="translate(16.6950402034,12.7270687356) scale(1.0,-1.0)"><circle cx="0" cy="0" fill="rgb(255,255,255)" r="4.06460950649" stroke="rgb(153,153,153)" stroke-width="0.406460950649" /></g><line stroke="rgb(153,153,153)" stroke-width="1.45597952471" x1="13.385978524" x2="5.97763149439" y1="15.0873994841" y2="20.3717220455" /><g transform="translate(3.36001553907,22.2388493541) scale(1.0,-1.0)"><circle cx="0" cy="0" fill="rgb(255,255,255)" r="3.21528811707" stroke="rgb(153,153,153)" stroke-width="0.321528811707" /></g><line stroke="rgb(99,99,153)" stroke-width="1.45597952471" x1="115.355701839" x2="107.947354809" y1="17.6282779545" y2="22.9126005159" /><line stroke="rgb(66,66,153)" stroke-width="1.6258438026" x1="83.7405808138" x2="72.7700536598" y1="15.087399497" y2="22.912600503" /><line stroke="rgb(153,153,153)" stroke-width="1.6258438026" x1="30.9746290275" x2="20.0041018735" y1="22.912600503" y2="15.087399497" /><line stroke="rgb(126,126,153)" stroke-width="1.6258438026" x1="48.5632796639" x2="37.5927523775" y1="15.0873994835" y2="22.9126005165" /><line stroke="rgb(99,99,153)" stroke-width="1.6258438026" x1="66.1519303099" x2="55.1814030235" y1="22.9126005165" y2="15.0873994835" /><line stroke="rgb(66,66,153)" stroke-width="1.6258438026" x1="101.32923145" x2="90.3587041638" y1="22.9126005165" y2="15.0873994835" /><g transform="translate(117.973317794,15.7611506459) scale(1.0,-1.0)"><circle cx="0" cy="0" fill="rgb(165,165,255)" r="3.21528811707" stroke="rgb(99,99,153)" stroke-width="0.321528811707" /></g><line stroke="rgb(33,33,153)" stroke-width="1.45597952471" x1="87.049642484" x2="87.049642484" y1="10.3667379871" y2="5.0824154256" /><line stroke="rgb(99,99,153)" stroke-width="1.45597952471" x1="69.4609919897" x2="69.4609919897" y1="27.6332620129" y2="32.9175845744" /><line stroke="rgb(99,99,153)" stroke-width="1.45597952471" x1="51.8723413437" x2="51.8723413437" y1="10.3667379871" y2="5.0824154256" /><line stroke="rgb(153,153,153)" stroke-width="1.45597952471" x1="34.2836906977" x2="34.2836906977" y1="27.6332620129" y2="32.9175845744" /><line stroke="rgb(99,99,153)" stroke-width="1.45597952471" x1="104.63829313" x2="104.63829313" y1="27.6332620129" y2="32.9175845744" /><line stroke="rgb(153,153,153)" stroke-width="1.45597952471" x1="16.6950402034" x2="16.6950402034" y1="10.3667379871" y2="5.0824154256" /><g transform="translate(34.2836906977,34.7847118829) scale(1.0,-1.0)"><circle cx="0" cy="0" fill="rgb(255,255,255)" r="3.21528811707" stroke="rgb(153,153,153)" stroke-width="0.321528811707" /></g><g transform="translate(51.8723413437,3.21528811707) scale(1.0,-1.0)"><circle cx="0" cy="0" fill="rgb(165,165,255)" r="3.21528811707" stroke="rgb(99,99,153)" stroke-width="0.321528811707" /></g><g transform="translate(16.6950402034,3.21528811707) scale(1.0,-1.0)"><circle cx="0" cy="0" fill="rgb(255,255,255)" r="3.21528811707" stroke="rgb(153,153,153)" stroke-width="0.321528811707" /></g><g transform="translate(69.4609919897,34.7847118829) scale(1.0,-1.0)"><circle cx="0" cy="0" fill="rgb(165,165,255)" r="3.21528811707" stroke="rgb(99,99,153)" stroke-width="0.321528811707" /></g><g transform="translate(87.049642484,3.21528811707) scale(1.0,-1.0)"><circle cx="0" cy="0" fill="rgb(55,55,255)" r="3.21528811707" stroke="rgb(33,33,153)" stroke-width="0.321528811707" /></g><g transform="translate(104.63829313,34.7847118829) scale(1.0,-1.0)"><circle cx="0" cy="0" fill="rgb(165,165,255)" r="3.21528811707" stroke="rgb(99,99,153)" stroke-width="0.321528811707" /></g></g></g><g transform="translate(533.333333333,100.0)"><rect fill="rgb(255,255,255)" height="50.0" width="133.333333333" x="0" y="0" /><g transform="scale(1.0,-1.0) translate(6,-44.0)"><g transform="translate(69.4609919897,34.7847118829) scale(1.0,-1.0)"><circle cx="0" cy="0" fill="rgb(55,55,255)" r="3.21528811707" stroke="rgb(33,33,153)" stroke-width="0.321528811707" /></g><g transform="translate(87.049642484,3.21528811707) scale(1.0,-1.0)"><circle cx="0" cy="0" fill="rgb(165,165,255)" r="3.21528811707" stroke="rgb(99,99,153)" stroke-width="0.321528811707" /></g><g transform="translate(34.2836906977,34.7847118829) scale(1.0,-1.0)"><circle cx="0" cy="0" fill="rgb(165,165,255)" r="3.21528811707" stroke="rgb(99,99,153)" stroke-width="0.321528811707" /></g><g transform="translate(51.8723413437,3.21528811707) scale(1.0,-1.0)"><circle cx="0" cy="0" fill="rgb(165,165,255)" r="3.21528811707" stroke="rgb(99,99,153)" stroke-width="0.321528811707" /></g><g transform="translate(16.6950402034,3.21528811707) scale(1.0,-1.0)"><circle cx="0" cy="0" fill="rgb(255,255,255)" r="3.21528811707" stroke="rgb(153,153,153)" stroke-width="0.321528811707" /></g><g transform="translate(104.63829313,34.7847118829) scale(1.0,-1.0)"><circle cx="0" cy="0" fill="rgb(165,165,255)" r="3.21528811707" stroke="rgb(99,99,153)" stroke-width="0.321528811707" /></g><line stroke="rgb(99,99,153)" stroke-width="1.45597952471" x1="34.2836906977" x2="34.2836906977" y1="27.6332620129" y2="32.9175845744" /><line stroke="rgb(99,99,153)" stroke-width="1.45597952471" x1="51.8723413437" x2="51.8723413437" y1="10.3667379871" y2="5.0824154256" /><line stroke="rgb(153,153,153)" stroke-width="1.45597952471" x1="16.6950402034" x2="16.6950402034" y1="10.3667379871" y2="5.0824154256" /><line stroke="rgb(33,33,153)" stroke-width="1.45597952471" x1="69.4609919897" x2="69.4609919897" y1="27.6332620129" y2="32.9175845744" /><line stroke="rgb(99,99,153)" stroke-width="1.45597952471" x1="87.049642484" x2="87.049642484" y1="10.3667379871" y2="5.0824154256" /><line stroke="rgb(99,99,153)" stroke-width="1.45597952471" x1="104.63829313" x2="104.63829313" y1="27.6332620129" y2="32.9175845744" /><g transform="translate(87.049642484,12.7270687356) scale(1.0,-1.0)"><circle cx="0" cy="0" fill="rgb(165,165,255)" r="4.06460950649" stroke="rgb(99,99,153)" stroke-width="0.406460950649" /></g><g transform="translate(69.4609919897,25.2729312644) scale(1.0,-1.0)"><circle cx="0" cy="0" fill="rgb(55,55,255)" r="4.06460950649" stroke="rgb(33,33,153)" stroke-width="0.406460950649" /></g><g transform="translate(51.8723413437,12.7270687356) scale(1.0,-1.0)"><circle cx="0" cy="0" fill="rgb(165,165,255)" r="4.06460950649" stroke="rgb(99,99,153)" stroke-width="0.406460950649" /></g><g transform="translate(34.2836906977,25.2729312644) scale(1.0,-1.0)"><circle cx="0" cy="0" fill="rgb(165,165,255)" r="4.06460950649" stroke="rgb(99,99,153)" stroke-width="0.406460950649" /></g><g transform="translate(104.63829313,25.2729312644) scale(1.0,-1.0)"><circle cx="0" cy="0" fill="rgb(165,165,255)" r="4.06460950649" stroke="rgb(99,99,153)" stroke-width="0.406460950649" /></g><g transform="translate(16.6950402034,12.7270687356) scale(1.0,-1.0)"><circle cx="0" cy="0" fill="rgb(255,255,255)" r="4.06460950649" stroke="rgb(153,153,153)" stroke-width="0.406460950649" /></g><line stroke="rgb(153,153,153)" stroke-width="1.45597952471" x1="13.385978524" x2="5.97763149439" y1="15.0873994841" y2="20.3717220455" /><g transform="translate(3.36001553907,22.2388493541) scale(1.0,-1.0)"><circle cx="0" cy="0" fill="rgb(255,255,255)" r="3.21528811707" stroke="rgb(153,153,153)" stroke-width="0.321528811707" /></g><line stroke="rgb(99,99,153)" stroke-width="1.45597952471" x1="115.355701839" x2="107.947354809" y1="17.6282779545" y2="22.9126005159" /><line stroke="rgb(66,66,153)" stroke-width="1.6258438026" x1="83.7405808138" x2="72.7700536598" y1="15.087399497" y2="22.912600503" /><line stroke="rgb(126,126,153)" stroke-width="1.6258438026" x1="30.9746290275" x2="20.0041018735" y1="22.912600503" y2="15.087399497" /><line stroke="rgb(99,99,153)" stroke-width="1.6258438026" x1="48.5632796639" x2="37.5927523775" y1="15.0873994835" y2="22.9126005165" /><line stroke="rgb(66,66,153)" stroke-width="1.6258438026" x1="66.1519303099" x2="55.1814030235" y1="22.9126005165" y2="15.0873994835" /><line stroke="rgb(99,99,153)" stroke-width="1.6258438026" x1="101.32923145" x2="90.3587041638" y1="22.9126005165" y2="15.0873994835" /><g transform="translate(117.973317794,15.7611506459) scale(1.0,-1.0)"><circle cx="0" cy="0" fill="rgb(165,165,255)" r="3.21528811707" stroke="rgb(99,99,153)" stroke-width="0.321528811707" /></g><line stroke="rgb(99,99,153)" stroke-width="1.45597952471" x1="87.049642484" x2="87.049642484" y1="10.3667379871" y2="5.0824154256" /><line stroke="rgb(33,33,153)" stroke-width="1.45597952471" x1="69.4609919897" x2="69.4609919897" y1="27.6332620129" y2="32.9175845744" /><line stroke="rgb(99,99,153)" stroke-width="1.45597952471" x1="51.8723413437" x2="51.8723413437" y1="10.3667379871" y2="5.0824154256" /><line stroke="rgb(99,99,153)" stroke-width="1.45597952471" x1="34.2836906977" x2="34.2836906977" y1="27.6332620129" y2="32.9175845744" /><line stroke="rgb(99,99,153)" stroke-width="1.45597952471" x1="104.63829313" x2="104.63829313" y1="27.6332620129" y2="32.9175845744" /><line stroke="rgb(153,153,153)" stroke-width="1.45597952471" x1="16.6950402034" x2="16.6950402034" y1="10.3667379871" y2="5.0824154256" /><g transform="translate(34.2836906977,34.7847118829) scale(1.0,-1.0)"><circle cx="0" cy="0" fill="rgb(165,165,255)" r="3.21528811707" stroke="rgb(99,99,153)" stroke-width="0.321528811707" /></g><g transform="translate(51.8723413437,3.21528811707) scale(1.0,-1.0)"><circle cx="0" cy="0" fill="rgb(165,165,255)" r="3.21528811707" stroke="rgb(99,99,153)" stroke-width="0.321528811707" /></g><g transform="translate(16.6950402034,3.21528811707) scale(1.0,-1.0)"><circle cx="0" cy="0" fill="rgb(255,255,255)" r="3.21528811707" stroke="rgb(153,153,153)" stroke-width="0.321528811707" /></g><g transform="translate(69.4609919897,34.7847118829) scale(1.0,-1.0)"><circle cx="0" cy="0" fill="rgb(55,55,255)" r="3.21528811707" stroke="rgb(33,33,153)" stroke-width="0.321528811707" /></g><g transform="translate(87.049642484,3.21528811707) scale(1.0,-1.0)"><circle cx="0" cy="0" fill="rgb(165,165,255)" r="3.21528811707" stroke="rgb(99,99,153)" stroke-width="0.321528811707" /></g><g transform="translate(104.63829313,34.7847118829) scale(1.0,-1.0)"><circle cx="0" cy="0" fill="rgb(165,165,255)" r="3.21528811707" stroke="rgb(99,99,153)" stroke-width="0.321528811707" /></g></g></g><g transform="translate(533.333333333,150.0)"><rect fill="rgb(255,255,255)" height="50.0" width="133.333333333" x="0" y="0" /><g transform="scale(1.0,-1.0) translate(6,-44.0)"><g transform="translate(69.4609919897,34.7847118829) scale(1.0,-1.0)"><circle cx="0" cy="0" fill="rgb(165,165,255)" r="3.21528811707" stroke="rgb(99,99,153)" stroke-width="0.321528811707" /></g><g transform="translate(87.049642484,3.21528811707) scale(1.0,-1.0)"><circle cx="0" cy="0" fill="rgb(165,165,255)" r="3.21528811707" stroke="rgb(99,99,153)" stroke-width="0.321528811707" /></g><g transform="translate(34.2836906977,34.7847118829) scale(1.0,-1.0)"><circle cx="0" cy="0" fill="rgb(165,165,255)" r="3.21528811707" stroke="rgb(99,99,153)" stroke-width="0.321528811707" /></g><g transform="translate(51.8723413437,3.21528811707) scale(1.0,-1.0)"><circle cx="0" cy="0" fill="rgb(55,55,255)" r="3.21528811707" stroke="rgb(33,33,153)" stroke-width="0.321528811707" /></g><g transform="translate(16.6950402034,3.21528811707) scale(1.0,-1.0)"><circle cx="0" cy="0" fill="rgb(165,165,255)" r="3.21528811707" stroke="rgb(99,99,153)" stroke-width="0.321528811707" /></g><g transform="translate(104.63829313,34.7847118829) scale(1.0,-1.0)"><circle cx="0" cy="0" fill="rgb(255,255,255)" r="3.21528811707" stroke="rgb(153,153,153)" stroke-width="0.321528811707" /></g><line stroke="rgb(99,99,153)" stroke-width="1.45597952471" x1="34.2836906977" x2="34.2836906977" y1="27.6332620129" y2="32.9175845744" /><line stroke="rgb(33,33,153)" stroke-width="1.45597952471" x1="51.8723413437" x2="51.8723413437" y1="10.3667379871" y2="5.0824154256" /><line stroke="rgb(99,99,153)" stroke-width="1.45597952471" x1="16.6950402034" x2="16.6950402034" y1="10.3667379871" y2="5.0824154256" /><line stroke="rgb(99,99,153)" stroke-width="1.45597952471" x1="69.4609919897" x2="69.4609919897" y1="27.6332620129" y2="32.9175845744" /><line stroke="rgb(99,99,153)" stroke-width="1.45597952471" x1="87.049642484" x2="87.049642484" y1="10.3667379871" y2="5.0824154256" /><line stroke="rgb(153,153,153)" stroke-width="1.45597952471" x1="104.63829313" x2="104.63829313" y1="27.6332620129" y2="32.9175845744" /><g transform="translate(87.049642484,12.7270687356) scale(1.0,-1.0)"><circle cx="0" cy="0" fill="rgb(165,165,255)" r="4.06460950649" stroke="rgb(99,99,153)" stroke-width="0.406460950649" /></g><g transform="translate(69.4609919897,25.2729312644) scale(1.0,-1.0)"><circle cx="0" cy="0" fill="rgb(165,165,255)" r="4.06460950649" stroke="rgb(99,99,153)" stroke-width="0.406460950649" /></g><g transform="translate(51.8723413437,12.7270687356) scale(1.0,-1.0)"><circle cx="0" cy="0" fill="rgb(55,55,255)" r="4.06460950649" stroke="rgb(33,33,153)" stroke-width="0.406460950649" /></g><g transform="translate(34.2836906977,25.2729312644) scale(1.0,-1.0)"><circle cx="0" cy="0" fill="rgb(165,165,255)" r="4.06460950649" stroke="rgb(99,99,153)" stroke-width="0.406460950649" /></g><g transform="translate(104.63829313,25.2729312644) scale(1.0,-1.0)"><circle cx="0" cy="0" fill="rgb(255,255,255)" r="4.06460950649" stroke="rgb(153,153,153)" stroke-width="0.406460950649" /></g><g transform="translate(16.6950402034,12.7270687356) scale(1.0,-1.0)"><circle cx="0" cy="0" fill="rgb(165,165,255)" r="4.06460950649" stroke="rgb(99,99,153)" stroke-width="0.406460950649" /></g><line stroke="rgb(99,99,153)" stroke-width="1.45597952471" x1="13.385978524" x2="5.97763149439" y1="15.0873994841" y2="20.3717220455" /><g transform="translate(3.36001553907,22.2388493541) scale(1.0,-1.0)"><circle cx="0" cy="0" fill="rgb(165,165,255)" r="3.21528811707" stroke="rgb(99,99,153)" stroke-width="0.321528811707" /></g><line stroke="rgb(153,153,153)" stroke-width="1.45597952471" x1="115.355701839" x2="107.947354809" y1="17.6282779545" y2="22.9126005159" /><line stroke="rgb(99,99,153)" stroke-width="1.6258438026" x1="83.7405808138" x2="72.7700536598" y1="15.087399497" y2="22.912600503" /><line stroke="rgb(99,99,153)" stroke-width="1.6258438026" x1="30.9746290275" x2="20.0041018735" y1="22.912600503" y2="15.087399497" /><line stroke="rgb(66,66,153)" stroke-width="1.6258438026" x1="48.5632796639" x2="37.5927523775" y1="15.0873994835" y2="22.9126005165" /><line stroke="rgb(66,66,153)" stroke-width="1.6258438026" x1="66.1519303099" x2="55.1814030235" y1="22.9126005165" y2="15.0873994835" /><line stroke="rgb(126,126,153)" stroke-width="1.6258438026" x1="101.32923145" x2="90.3587041638" y1="22.9126005165" y2="15.0873994835" /><g transform="translate(117.973317794,15.7611506459) scale(1.0,-1.0)"><circle cx="0" cy="0" fill="rgb(255,255,255)" r="3.21528811707" stroke="rgb(153,153,153)" stroke-width="0.321528811707" /></g><line stroke="rgb(99,99,153)" stroke-width="1.45597952471" x1="87.049642484" x2="87.049642484" y1="10.3667379871" y2="5.0824154256" /><line stroke="rgb(99,99,153)" stroke-width="1.45597952471" x1="69.4609919897" x2="69.4609919897" y1="27.6332620129" y2="32.9175845744" /><line stroke="rgb(33,33,153)" stroke-width="1.45597952471" x1="51.8723413437" x2="51.8723413437" y1="10.3667379871" y2="5.0824154256" /><line stroke="rgb(99,99,153)" stroke-width="1.45597952471" x1="34.2836906977" x2="34.2836906977" y1="27.6332620129" y2="32.9175845744" /><line stroke="rgb(153,153,153)" stroke-width="1.45597952471" x1="104.63829313" x2="104.63829313" y1="27.6332620129" y2="32.9175845744" /><line stroke="rgb(99,99,153)" stroke-width="1.45597952471" x1="16.6950402034" x2="16.6950402034" y1="10.3667379871" y2="5.0824154256" /><g transform="translate(34.2836906977,34.7847118829) scale(1.0,-1.0)"><circle cx="0" cy="0" fill="rgb(165,165,255)" r="3.21528811707" stroke="rgb(99,99,153)" stroke-width="0.321528811707" /></g><g transform="translate(51.8723413437,3.21528811707) scale(1.0,-1.0)"><circle cx="0" cy="0" fill="rgb(55,55,255)" r="3.21528811707" stroke="rgb(33,33,153)" stroke-width="0.321528811707" /></g><g transform="translate(16.6950402034,3.21528811707) scale(1.0,-1.0)"><circle cx="0" cy="0" fill="rgb(165,165,255)" r="3.21528811707" stroke="rgb(99,99,153)" stroke-width="0.321528811707" /></g><g transform="translate(69.4609919897,34.7847118829) scale(1.0,-1.0)"><circle cx="0" cy="0" fill="rgb(165,165,255)" r="3.21528811707" stroke="rgb(99,99,153)" stroke-width="0.321528811707" /></g><g transform="translate(87.049642484,3.21528811707) scale(1.0,-1.0)"><circle cx="0" cy="0" fill="rgb(165,165,255)" r="3.21528811707" stroke="rgb(99,99,153)" stroke-width="0.321528811707" /></g><g transform="translate(104.63829313,34.7847118829) scale(1.0,-1.0)"><circle cx="0" cy="0" fill="rgb(255,255,255)" r="3.21528811707" stroke="rgb(153,153,153)" stroke-width="0.321528811707" /></g></g></g><g transform="translate(666.666666667,0.0)"><rect fill="rgb(255,255,255)" height="50.0" width="133.333333333" x="0" y="0" /><g transform="scale(1.0,-1.0) translate(6,-44.0)"><g transform="translate(69.4609919897,34.7847118829) scale(1.0,-1.0)"><circle cx="0" cy="0" fill="rgb(165,165,255)" r="3.21528811707" stroke="rgb(99,99,153)" stroke-width="0.321528811707" /></g><g transform="translate(87.049642484,3.21528811707) scale(1.0,-1.0)"><circle cx="0" cy="0" fill="rgb(255,255,255)" r="3.21528811707" stroke="rgb(153,153,153)" stroke-width="0.321528811707" /></g><g transform="translate(34.2836906977,34.7847118829) scale(1.0,-1.0)"><circle cx="0" cy="0" fill="rgb(55,55,255)" r="3.21528811707" stroke="rgb(33,33,153)" stroke-width="0.321528811707" /></g><g transform="translate(51.8723413437,3.21528811707) scale(1.0,-1.0)"><circle cx="0" cy="0" fill="rgb(165,165,255)" r="3.21528811707" stroke="rgb(99,99,153)" stroke-width="0.321528811707" /></g><g transform="translate(16.6950402034,3.21528811707) scale(1.0,-1.0)"><circle cx="0" cy="0" fill="rgb(165,165,255)" r="3.21528811707" stroke="rgb(99,99,153)" stroke-width="0.321528811707" /></g><g transform="translate(104.63829313,34.7847118829) scale(1.0,-1.0)"><circle cx="0" cy="0" fill="rgb(255,255,255)" r="3.21528811707" stroke="rgb(153,153,153)" stroke-width="0.321528811707" /></g><line stroke="rgb(33,33,153)" stroke-width="1.45597952471" x1="34.2836906977" x2="34.2836906977" y1="27.6332620129" y2="32.9175845744" /><line stroke="rgb(99,99,153)" stroke-width="1.45597952471" x1="51.8723413437" x2="51.8723413437" y1="10.3667379871" y2="5.0824154256" /><line stroke="rgb(99,99,153)" stroke-width="1.45597952471" x1="16.6950402034" x2="16.6950402034" y1="10.3667379871" y2="5.0824154256" /><line stroke="rgb(99,99,153)" stroke-width="1.45597952471" x1="69.4609919897" x2="69.4609919897" y1="27.6332620129" y2="32.9175845744" /><line stroke="rgb(153,153,153)" stroke-width="1.45597952471" x1="87.049642484" x2="87.049642484" y1="10.3667379871" y2="5.0824154256" /><line stroke="rgb(153,153,153)" stroke-width="1.45597952471" x1="104.63829313" x2="104.63829313" y1="27.6332620129" y2="32.9175845744" /><g transform="translate(87.049642484,12.7270687356) scale(1.0,-1.0)"><circle cx="0" cy="0" fill="rgb(255,255,255)" r="4.06460950649" stroke="rgb(153,153,153)" stroke-width="0.406460950649" /></g><g transform="translate(69.4609919897,25.2729312644) scale(1.0,-1.0)"><circle cx="0" cy="0" fill="rgb(165,165,255)" r="4.06460950649" stroke="rgb(99,99,153)" stroke-width="0.406460950649" /></g><g transform="translate(51.8723413437,12.7270687356) scale(1.0,-1.0)"><circle cx="0" cy="0" fill="rgb(165,165,255)" r="4.06460950649" stroke="rgb(99,99,153)" stroke-width="0.406460950649" /></g><g transform="translate(34.2836906977,25.2729312644) scale(1.0,-1.0)"><circle cx="0" cy="0" fill="rgb(55,55,255)" r="4.06460950649" stroke="rgb(33,33,153)" stroke-width="0.406460950649" /></g><g transform="translate(104.63829313,25.2729312644) scale(1.0,-1.0)"><circle cx="0" cy="0" fill="rgb(255,255,255)" r="4.06460950649" stroke="rgb(153,153,153)" stroke-width="0.406460950649" /></g><g transform="translate(16.6950402034,12.7270687356) scale(1.0,-1.0)"><circle cx="0" cy="0" fill="rgb(165,165,255)" r="4.06460950649" stroke="rgb(99,99,153)" stroke-width="0.406460950649" /></g><line stroke="rgb(99,99,153)" stroke-width="1.45597952471" x1="13.385978524" x2="5.97763149439" y1="15.0873994841" y2="20.3717220455" /><g transform="translate(3.36001553907,22.2388493541) scale(1.0,-1.0)"><circle cx="0" cy="0" fill="rgb(165,165,255)" r="3.21528811707" stroke="rgb(99,99,153)" stroke-width="0.321528811707" /></g><line stroke="rgb(153,153,153)" stroke-width="1.45597952471" x1="115.355701839" x2="107.947354809" y1="17.6282779545" y2="22.9126005159" /><line stroke="rgb(126,126,153)" stroke-width="1.6258438026" x1="83.7405808138" x2="72.7700536598" y1="15.087399497" y2="22.912600503" /><line stroke="rgb(66,66,153)" stroke-width="1.6258438026" x1="30.9746290275" x2="20.0041018735" y1="22.912600503" y2="15.087399497" /><line stroke="rgb(66,66,153)" stroke-width="1.6258438026" x1="48.5632796639" x2="37.5927523775" y1="15.0873994835" y2="22.9126005165" /><line stroke="rgb(99,99,153)" stroke-width="1.6258438026" x1="66.1519303099" x2="55.1814030235" y1="22.9126005165" y2="15.0873994835" /><line stroke="rgb(153,153,153)" stroke-width="1.6258438026" x1="101.32923145" x2="90.3587041638" y1="22.9126005165" y2="15.0873994835" /><g transform="translate(117.973317794,15.7611506459) scale(1.0,-1.0)"><circle cx="0" cy="0" fill="rgb(255,255,255)" r="3.21528811707" stroke="rgb(153,153,153)" stroke-width="0.321528811707" /></g><line stroke="rgb(153,153,153)" stroke-width="1.45597952471" x1="87.049642484" x2="87.049642484" y1="10.3667379871" y2="5.0824154256" /><line stroke="rgb(99,99,153)" stroke-width="1.45597952471" x1="69.4609919897" x2="69.4609919897" y1="27.6332620129" y2="32.9175845744" /><line stroke="rgb(99,99,153)" stroke-width="1.45597952471" x1="51.8723413437" x2="51.8723413437" y1="10.3667379871" y2="5.0824154256" /><line stroke="rgb(33,33,153)" stroke-width="1.45597952471" x1="34.2836906977" x2="34.2836906977" y1="27.6332620129" y2="32.9175845744" /><line stroke="rgb(153,153,153)" stroke-width="1.45597952471" x1="104.63829313" x2="104.63829313" y1="27.6332620129" y2="32.9175845744" /><line stroke="rgb(99,99,153)" stroke-width="1.45597952471" x1="16.6950402034" x2="16.6950402034" y1="10.3667379871" y2="5.0824154256" /><g transform="translate(34.2836906977,34.7847118829) scale(1.0,-1.0)"><circle cx="0" cy="0" fill="rgb(55,55,255)" r="3.21528811707" stroke="rgb(33,33,153)" stroke-width="0.321528811707" /></g><g transform="translate(51.8723413437,3.21528811707) scale(1.0,-1.0)"><circle cx="0" cy="0" fill="rgb(165,165,255)" r="3.21528811707" stroke="rgb(99,99,153)" stroke-width="0.321528811707" /></g><g transform="translate(16.6950402034,3.21528811707) scale(1.0,-1.0)"><circle cx="0" cy="0" fill="rgb(165,165,255)" r="3.21528811707" stroke="rgb(99,99,153)" stroke-width="0.321528811707" /></g><g transform="translate(69.4609919897,34.7847118829) scale(1.0,-1.0)"><circle cx="0" cy="0" fill="rgb(165,165,255)" r="3.21528811707" stroke="rgb(99,99,153)" stroke-width="0.321528811707" /></g><g transform="translate(87.049642484,3.21528811707) scale(1.0,-1.0)"><circle cx="0" cy="0" fill="rgb(255,255,255)" r="3.21528811707" stroke="rgb(153,153,153)" stroke-width="0.321528811707" /></g><g transform="translate(104.63829313,34.7847118829) scale(1.0,-1.0)"><circle cx="0" cy="0" fill="rgb(255,255,255)" r="3.21528811707" stroke="rgb(153,153,153)" stroke-width="0.321528811707" /></g></g></g><g transform="translate(666.666666667,50.0)"><rect fill="rgb(255,255,255)" height="50.0" width="133.333333333" x="0" y="0" /><g transform="scale(1.0,-1.0) translate(6,-44.0)"><g transform="translate(69.4609919897,34.7847118829) scale(1.0,-1.0)"><circle cx="0" cy="0" fill="rgb(255,255,255)" r="3.21528811707" stroke="rgb(153,153,153)" stroke-width="0.321528811707" /></g><g transform="translate(87.049642484,3.21528811707) scale(1.0,-1.0)"><circle cx="0" cy="0" fill="rgb(255,255,255)" r="3.21528811707" stroke="rgb(153,153,153)" stroke-width="0.321528811707" /></g><g transform="translate(34.2836906977,34.7847118829) scale(1.0,-1.0)"><circle cx="0" cy="0" fill="rgb(165,165,255)" r="3.21528811707" stroke="rgb(99,99,153)" stroke-width="0.321528811707" /></g><g transform="translate(51.8723413437,3.21528811707) scale(1.0,-1.0)"><circle cx="0" cy="0" fill="rgb(165,165,255)" r="3.21528811707" stroke="rgb(99,99,153)" stroke-width="0.321528811707" /></g><g transform="translate(16.6950402034,3.21528811707) scale(1.0,-1.0)"><circle cx="0" cy="0" fill="rgb(55,55,255)" r="3.21528811707" stroke="rgb(33,33,153)" stroke-width="0.321528811707" /></g><g transform="translate(104.63829313,34.7847118829) scale(1.0,-1.0)"><circle cx="0" cy="0" fill="rgb(255,255,255)" r="3.21528811707" stroke="rgb(153,153,153)" stroke-width="0.321528811707" /></g><line stroke="rgb(99,99,153)" stroke-width="1.45597952471" x1="34.2836906977" x2="34.2836906977" y1="27.6332620129" y2="32.9175845744" /><line stroke="rgb(99,99,153)" stroke-width="1.45597952471" x1="51.8723413437" x2="51.8723413437" y1="10.3667379871" y2="5.0824154256" /><line stroke="rgb(33,33,153)" stroke-width="1.45597952471" x1="16.6950402034" x2="16.6950402034" y1="10.3667379871" y2="5.0824154256" /><line stroke="rgb(153,153,153)" stroke-width="1.45597952471" x1="69.4609919897" x2="69.4609919897" y1="27.6332620129" y2="32.9175845744" /><line stroke="rgb(153,153,153)" stroke-width="1.45597952471" x1="87.049642484" x2="87.049642484" y1="10.3667379871" y2="5.0824154256" /><line stroke="rgb(153,153,153)" stroke-width="1.45597952471" x1="104.63829313" x2="104.63829313" y1="27.6332620129" y2="32.9175845744" /><g transform="translate(87.049642484,12.7270687356) scale(1.0,-1.0)"><circle cx="0" cy="0" fill="rgb(255,255,255)" r="4.06460950649" stroke="rgb(153,153,153)" stroke-width="0.406460950649" /></g><g transform="translate(69.4609919897,25.2729312644) scale(1.0,-1.0)"><circle cx="0" cy="0" fill="rgb(255,255,255)" r="4.06460950649" stroke="rgb(153,153,153)" stroke-width="0.406460950649" /></g><g transform="translate(51.8723413437,12.7270687356) scale(1.0,-1.0)"><circle cx="0" cy="0" fill="rgb(165,165,255)" r="4.06460950649" stroke="rgb(99,99,153)" stroke-width="0.406460950649" /></g><g transform="translate(34.2836906977,25.2729312644) scale(1.0,-1.0)"><circle cx="0" cy="0" fill="rgb(165,165,255)" r="4.06460950649" stroke="rgb(99,99,153)" stroke-width="0.406460950649" /></g><g transform="translate(104.63829313,25.2729312644) scale(1.0,-1.0)"><circle cx="0" cy="0" fill="rgb(255,255,255)" r="4.06460950649" stroke="rgb(153,153,153)" stroke-width="0.406460950649" /></g><g transform="translate(16.6950402034,12.7270687356) scale(1.0,-1.0)"><circle cx="0" cy="0" fill="rgb(55,55,255)" r="4.06460950649" stroke="rgb(33,33,153)" stroke-width="0.406460950649" /></g><line stroke="rgb(33,33,153)" stroke-width="1.45597952471" x1="13.385978524" x2="5.97763149439" y1="15.0873994841" y2="20.3717220455" /><g transform="translate(3.36001553907,22.2388493541) scale(1.0,-1.0)"><circle cx="0" cy="0" fill="rgb(55,55,255)" r="3.21528811707" stroke="rgb(33,33,153)" stroke-width="0.321528811707" /></g><line stroke="rgb(153,153,153)" stroke-width="1.45597952471" x1="115.355701839" x2="107.947354809" y1="17.6282779545" y2="22.9126005159" /><line stroke="rgb(153,153,153)" stroke-width="1.6258438026" x1="83.7405808138" x2="72.7700536598" y1="15.087399497" y2="22.912600503" /><line stroke="rgb(66,66,153)" stroke-width="1.6258438026" x1="30.9746290275" x2="20.0041018735" y1="22.912600503" y2="15.087399497" /><line stroke="rgb(99,99,153)" stroke-width="1.6258438026" x1="48.5632796639" x2="37.5927523775" y1="15.0873994835" y2="22.9126005165" /><line stroke="rgb(126,126,153)" stroke-width="1.6258438026" x1="66.1519303099" x2="55.1814030235" y1="22.9126005165" y2="15.0873994835" /><line stroke="rgb(153,153,153)" stroke-width="1.6258438026" x1="101.32923145" x2="90.3587041638" y1="22.9126005165" y2="15.0873994835" /><g transform="translate(117.973317794,15.7611506459) scale(1.0,-1.0)"><circle cx="0" cy="0" fill="rgb(255,255,255)" r="3.21528811707" stroke="rgb(153,153,153)" stroke-width="0.321528811707" /></g><line stroke="rgb(153,153,153)" stroke-width="1.45597952471" x1="87.049642484" x2="87.049642484" y1="10.3667379871" y2="5.0824154256" /><line stroke="rgb(153,153,153)" stroke-width="1.45597952471" x1="69.4609919897" x2="69.4609919897" y1="27.6332620129" y2="32.9175845744" /><line stroke="rgb(99,99,153)" stroke-width="1.45597952471" x1="51.8723413437" x2="51.8723413437" y1="10.3667379871" y2="5.0824154256" /><line stroke="rgb(99,99,153)" stroke-width="1.45597952471" x1="34.2836906977" x2="34.2836906977" y1="27.6332620129" y2="32.9175845744" /><line stroke="rgb(153,153,153)" stroke-width="1.45597952471" x1="104.63829313" x2="104.63829313" y1="27.6332620129" y2="32.9175845744" /><line stroke="rgb(33,33,153)" stroke-width="1.45597952471" x1="16.6950402034" x2="16.6950402034" y1="10.3667379871" y2="5.0824154256" /><g transform="translate(34.2836906977,34.7847118829) scale(1.0,-1.0)"><circle cx="0" cy="0" fill="rgb(165,165,255)" r="3.21528811707" stroke="rgb(99,99,153)" stroke-width="0.321528811707" /></g><g transform="translate(51.8723413437,3.21528811707) scale(1.0,-1.0)"><circle cx="0" cy="0" fill="rgb(165,165,255)" r="3.21528811707" stroke="rgb(99,99,153)" stroke-width="0.321528811707" /></g><g transform="translate(16.6950402034,3.21528811707) scale(1.0,-1.0)"><circle cx="0" cy="0" fill="rgb(55,55,255)" r="3.21528811707" stroke="rgb(33,33,153)" stroke-width="0.321528811707" /></g><g transform="translate(69.4609919897,34.7847118829) scale(1.0,-1.0)"><circle cx="0" cy="0" fill="rgb(255,255,255)" r="3.21528811707" stroke="rgb(153,153,153)" stroke-width="0.321528811707" /></g><g transform="translate(87.049642484,3.21528811707) scale(1.0,-1.0)"><circle cx="0" cy="0" fill="rgb(255,255,255)" r="3.21528811707" stroke="rgb(153,153,153)" stroke-width="0.321528811707" /></g><g transform="translate(104.63829313,34.7847118829) scale(1.0,-1.0)"><circle cx="0" cy="0" fill="rgb(255,255,255)" r="3.21528811707" stroke="rgb(153,153,153)" stroke-width="0.321528811707" /></g></g></g></svg>