<?xml version="1.0" encoding="utf-8" ?>
<svg baseProfile="full" height="200" version="1.1" width="800" xmlns="http://www.w3.org/2000/svg" xmlns:ev="http://www.w3.org/2001/xml-events" xmlns:xlink="http://www.w3.org/1999/xlink"><defs /><g transform="translate(0.0,0.0)"><rect fill="rgb(255,255,255)" height="200.0" width="533.333333333" x="0" y="0" /><g transform="scale(1.0,-1.0) translate(6,-194.0)"><g transform="translate(43.1228304798,15.907214895) scale(1.0,-1.0)"><circle cx="0" cy="0" fill="rgb(255,255,255)" r="15.907214895" stroke="rgb(153,153,153)" stroke-width="1.5907214895" /><text fill="rgb(153,153,153)" font-size="15.907214895" text-anchor="middle" x="0" y="3.97680372375">17</text></g><g transform="translate(478.210502854,172.092785105) scale(1.0,-1.0)"><circle cx="0" cy="0" fill="rgb(255,255,255)" r="15.907214895" stroke="rgb(153,153,153)" stroke-width="1.5907214895" /><text fill="rgb(153,153,153)" font-size="15.907214895" text-anchor="middle" x="0" y="3.97680372375">2</text></g><g transform="translate(391.192968079,15.907214895) scale(1.0,-1.0)"><circle cx="0" cy="0" fill="rgb(255,255,255)" r="15.907214895" stroke="rgb(153,153,153)" stroke-width="1.5907214895" /><text fill="rgb(153,153,153)" font-size="15.907214895" text-anchor="middle" x="0" y="3.97680372375">5</text></g><g transform="translate(304.175434054,172.092785105) scale(1.0,-1.0)"><circle cx="0" cy="0" fill="rgb(255,255,255)" r="15.907214895" stroke="rgb(153,153,153)" stroke-width="1.5907214895" /><text fill="rgb(153,153,153)" font-size="15.907214895" text-anchor="middle" x="0" y="3.97680372375">8</text></g><g transform="translate(217.157899279,15.907214895) scale(1.0,-1.0)"><circle cx="0" cy="0" fill="rgb(255,255,255)" r="15.907214895" stroke="rgb(153,153,153)" stroke-width="1.5907214895" /><text fill="rgb(153,153,153)" font-size="15.907214895" text-anchor="middle" x="0" y="3.97680372375">11</text></g><g transform="translate(130.140364504,172.092785105) scale(1.0,-1.0)"><circle cx="0" cy="0" fill="rgb(255,255,255)" r="15.907214895" stroke="rgb(153,153,153)" stroke-width="1.5907214895" /><text fill="rgb(153,153,153)" font-size="15.907214895" text-anchor="middle" x="0" y="3.97680372375">14</text></g><line stroke="rgb(132,132,132)" stroke-width="7.20326712227" x1="304.175434054" x2="304.175434054" y1="136.711927853" y2="162.855418421" /><line stroke="rgb(132,132,132)" stroke-width="7.20326712227" x1="478.210502854" x2="478.210502854" y1="136.711927853" y2="162.855418421" /><line stroke="rgb(132,132,132)" stroke-width="7.20326712227" x1="391.192968079" x2="391.192968079" y1="51.2880721465" y2="25.1445815793" /><line stroke="rgb(132,132,132)" stroke-width="7.20326712227" x1="43.1228304798" x2="43.1228304798" y1="51.2880721465" y2="25.1445815793" /><line stroke="rgb(132,132,132)" stroke-width="7.20326712227" x1="217.157899279" x2="217.157899279" y1="51.2880721465" y2="25.1445815793" /><line stroke="rgb(132,132,132)" stroke-width="7.20326712227" x1="130.140364504" x2="130.140364504" y1="136.711927853" y2="162.855418421" /><g transform="translate(130.140364504,125.034502045) scale(1.0,-1.0)"><circle cx="0" cy="0" fill="rgb(188,188,188)" r="20.1091207163" stroke="rgb(112,112,112)" stroke-width="2.01091207163" /><text fill="rgb(112,112,112)" font-size="20.1091207163" text-anchor="middle" x="0" y="5.02728017908">12</text></g><line stroke="rgb(112,112,112)" stroke-width="8.04364828653" x1="113.769217294" x2="59.4939776901" y1="113.357076173" y2="74.6429238272" /><g transform="translate(391.192968079,62.9654979549) scale(1.0,-1.0)"><circle cx="0" cy="0" fill="rgb(188,188,188)" r="20.1091207163" stroke="rgb(112,112,112)" stroke-width="2.01091207163" /><text fill="rgb(112,112,112)" font-size="20.1091207163" text-anchor="middle" x="0" y="5.02728017908">3</text></g><g transform="translate(304.175434054,125.034502045) scale(1.0,-1.0)"><circle cx="0" cy="0" fill="rgb(188,188,188)" r="20.1091207163" stroke="rgb(112,112,112)" stroke-width="2.01091207163" /><text fill="rgb(112,112,112)" font-size="20.1091207163" text-anchor="middle" x="0" y="5.02728017908">6</text></g><g transform="translate(217.157899279,62.9654979549) scale(1.0,-1.0)"><circle cx="0" cy="0" fill="rgb(188,188,188)" r="20.1091207163" stroke="rgb(112,112,112)" stroke-width="2.01091207163" /><text fill="rgb(112,112,112)" font-size="20.1091207163" text-anchor="middle" x="0" y="5.02728017908">9</text></g><line stroke="rgb(112,112,112)" stroke-width="8.04364828653" x1="200.786752021" x2="146.511511762" y1="74.6429237604" y2="113.35707624" /><line stroke="rgb(112,112,112)" stroke-width="8.04364828653" x1="374.821820868" x2="320.546581264" y1="74.6429238272" y2="113.357076173" /><g transform="translate(478.210502854,125.034502045) scale(1.0,-1.0)"><circle cx="0" cy="0" fill="rgb(188,188,188)" r="20.1091207163" stroke="rgb(112,112,112)" stroke-width="2.01091207163" /><text fill="rgb(112,112,112)" font-size="20.1091207163" text-anchor="middle" x="0" y="5.02728017908">0</text></g><g transform="translate(43.1228304798,62.9654979549) scale(1.0,-1.0)"><circle cx="0" cy="0" fill="rgb(188,188,188)" r="20.1091207163" stroke="rgb(112,112,112)" stroke-width="2.01091207163" /><text fill="rgb(112,112,112)" font-size="20.1091207163" text-anchor="middle" x="0" y="5.02728017908">15</text></g><line stroke="rgb(112,112,112)" stroke-width="8.04364828653" x1="461.839355596" x2="407.564115337" y1="113.35707624" y2="74.6429237604" /><line stroke="rgb(112,112,112)" stroke-width="8.04364828653" x1="287.804286796" x2="233.529046537" y1="113.35707624" y2="74.6429237604" /><line stroke="rgb(132,132,132)" stroke-width="7.20326712227" x1="43.1228304798" x2="43.1228304798" y1="51.2880721465" y2="25.1445815793" /><line stroke="rgb(132,132,132)" stroke-width="7.20326712227" x1="478.210502854" x2="478.210502854" y1="136.711927853" y2="162.855418421" /><line stroke="rgb(132,132,132)" stroke-width="7.20326712227" x1="130.140364504" x2="130.140364504" y1="136.711927853" y2="162.855418421" /><line stroke="rgb(132,132,132)" stroke-width="7.20326712227" x1="217.157899279" x2="217.157899279" y1="51.2880721465" y2="25.1445815793" /><line stroke="rgb(132,132,132)" stroke-width="7.20326712227" x1="391.192968079" x2="391.192968079" y1="51.2880721465" y2="25.1445815793" /><line stroke="rgb(132,132,132)" stroke-width="7.20326712227" x1="304.175434054" x2="304.175434054" y1="136.711927853" y2="162.855418421" /><g transform="translate(130.140364504,172.092785105) scale(1.0,-1.0)"><circle cx="0" cy="0" fill="rgb(255,255,255)" r="15.907214895" stroke="rgb(153,153,153)" stroke-width="1.5907214895" /><text fill="rgb(153,153,153)" font-size="15.907214895" text-anchor="middle" x="0" y="3.97680372375">13</text></g><g transform="translate(43.1228304798,15.907214895) scale(1.0,-1.0)"><circle cx="0" cy="0" fill="rgb(255,255,255)" r="15.907214895" stroke="rgb(153,153,153)" stroke-width="1.5907214895" /><text fill="rgb(153,153,153)" font-size="15.907214895" text-anchor="middle" x="0" y="3.97680372375">16</text></g><g transform="translate(217.157899279,15.907214895) scale(1.0,-1.0)"><circle cx="0" cy="0" fill="rgb(255,255,255)" r="15.907214895" stroke="rgb(153,153,153)" stroke-width="1.5907214895" /><text fill="rgb(153,153,153)" font-size="15.907214895" text-anchor="middle" x="0" y="3.97680372375">10</text></g><g transform="translate(304.175434054,172.092785105) scale(1.0,-1.0)"><circle cx="0" cy="0" fill="rgb(255,255,255)" r="15.907214895" stroke="rgb(153,153,153)" stroke-width="1.5907214895" /><text fill="rgb(153,153,153)" font-size="15.907214895" text-anchor="middle" x="0" y="3.97680372375">7</text></g><g transform="translate(391.192968079,15.907214895) scale(1.0,-1.0)"><circle cx="0" cy="0" fill="rgb(255,255,255)" r="15.907214895" stroke="rgb(153,153,153)" stroke-width="1.5907214895" /><text fill="rgb(153,153,153)" font-size="15.907214895" text-anchor="middle" x="0" y="3.97680372375">4</text></g><g transform="translate(478.210502854,172.092785105) scale(1.0,-1.0)"><circle cx="0" cy="0" fill="rgb(255,255,255)" r="15.907214895" stroke="rgb(153,153,153)" stroke-width="1.5907214895" /><text fill="rgb(153,153,153)" font-size="15.907214895" text-anchor="middle" x="0" y="3.97680372375">1</text></g></g><rect fill="rgb(255,255,255)" height="30" rx="2" ry="2" stroke="rgb(50,50,50)" stroke-width="2" width="30" x="453.333333333" y="10" /><text fill="rgb(50,50,50)" font-size="10" text-anchor="middle" x="460.333333333" y="20">1</text><text fill="rgb(50,50,50)" font-size="18" text-anchor="middle" x="468.333333333" y="35">H</text><rect fill="rgb(144,144,144)" height="30" rx="2" ry="2" stroke="rgb(28,28,28)" stroke-width="2" width="30" x="493.333333333" y="10" /><text fill="rgb(28,28,28)" font-size="10" text-anchor="middle" x="500.333333333" y="20">6</text><text fill="rgb(28,28,28)" font-size="18" text-anchor="middle" x="508.333333333" y="35">C</text></g><g transform="translate(533.333333333,0.0)"><rect fill="rgb(255,255,255)" height="50.0" width="133.333333333" x="0" y="0" /><g transform="scale(1.0,-1.0) translate(6,-44.0)"><g transform="translate(16.6950402034,3.21528811707) scale(1.0,-1.0)"><circle cx="0" cy="0" fill="rgb(255,255,255)" r="3.21528811707" stroke="rgb(153,153,153)" stroke-width="0.321528811707" /></g><g transform="translate(104.63829313,34.7847118829) scale(1.0,-1.0)"><circle cx="0" cy="0" fill="rgb(55,55,255)" r="3.21528811707" stroke="rgb(33,33,153)" stroke-width="0.321528811707" /></g><g transform="translate(87.049642484,3.21528811707) scale(1.0,-1.0)"><circle cx="0" cy="0" fill="rgb(165,165,255)" r="3.21528811707" stroke="rgb(99,99,153)" stroke-width="0.321528811707" /></g><g transform="translate(69.4609919897,34.7847118829) scale(1.0,-1.0)"><circle cx="0" cy="0" fill="rgb(165,165,255)" r="3.21528811707" stroke="rgb(99,99,153)" stroke-width="0.321528811707" /></g><g transform="translate(51.8723413437,3.21528811707) scale(1.0,-1.0)"><circle cx="0" cy="0" fill="rgb(255,255,255)" r="3.21528811707" stroke="rgb(153,153,153)" stroke-width="0.321528811707" /></g><g transform="translate(34.2836906977,34.7847118829) scale(1.0,-1.0)"><circle cx="0" cy="0" fill="rgb(255,255,255)" r="3.21528811707" stroke="rgb(153,153,153)" stroke-width="0.321528811707" /></g><line stroke="rgb(99,99,153)" stroke-width="1.45597952471" x1="69.4609919897" x2="69.4609919897" y1="27.6332620129" y2="32.9175845744" /><line stroke="rgb(33,33,153)" stroke-width="1.45597952471" x1="104.63829313" x2="104.63829313" y1="27.6332620129" y2="32.9175845744" /><line stroke="rgb(99,99,153)" stroke-width="1.45597952471" x1="87.049642484" x2="87.049642484" y1="10.3667379871" y2="5.0824154256" /><line stroke="rgb(153,153,153)" stroke-width="1.45597952471" x1="16.6950402034" x2="16.6950402034" y1="10.3667379871" y2="5.0824154256" /><line stroke="rgb(153,153,153)" stroke-width="1.45597952471" x1="51.8723413437" x2="51.8723413437" y1="10.3667379871" y2="5.0824154256" /><line stroke="rgb(153,153,153)" stroke-width="1.45597952471" x1="34.2836906977" x2="34.2836906977" y1="27.6332620129" y2="32.9175845744" /><g transform="translate(34.2836906977,25.2729312644) scale(1.0,-1.0)"><circle cx="0" cy="0" fill="rgb(255,255,255)" r="4.06460950649" stroke="rgb(153,153,153)" stroke-width="0.406460950649" /></g><line stroke="rgb(153,153,153)" stroke-width="1.6258438026" x1="30.9746290275" x2="20.0041018735" y1="22.912600503" y2="15.087399497" /><g transform="translate(87.049642484,12.7270687356) scale(1.0,-1.0)"><circle cx="0" cy="0" fill="rgb(165,165,255)" r="4.06460950649" stroke="rgb(99,99,153)" stroke-width="0.406460950649" /></g><g transform="translate(69.4609919897,25.2729312644) scale(1.0,-1.0)"><circle cx="0" cy="0" fill="rgb(165,165,255)" r="4.06460950649" stroke="rgb(99,99,153)" stroke-width="0.406460950649" /></g><g transform="translate(51.8723413437,12.7270687356) scale(1.0,-1.0)"><circle cx="0" cy="0" fill="rgb(255,255,255)" r="4.06460950649" stroke="rgb(153,153,153)" stroke-width="0.406460950649" /></g><line stroke="rgb(153,153,153)" stroke-width="1.6258438026" x1="48.5632796639" x2="37.5927523775" y1="15.0873994835" y2="22.9126005165" /><line stroke="rgb(99,99,153)" stroke-width="1.6258438026" x1="83.7405808138" x2="72.7700536598" y1="15.087399497" y2="22.912600503" /><g transform="translate(104.63829313,25.2729312644) scale(1.0,-1.0)"><circle cx="0" cy="0" fill="rgb(55,55,255)" r="4.06460950649" stroke="rgb(33,33,153)" stroke-width="0.406460950649" /></g><g transform="translate(16.6950402034,12.7270687356) scale(1.0,-1.0)"><circle cx="0" cy="0" fill="rgb(255,255,255)" r="4.06460950649" stroke="rgb(153,153,153)" stroke-width="0.406460950649" /></g><line stroke="rgb(66,66,153)" stroke-width="1.6258438026" x1="101.32923145" x2="90.3587041638" y1="22.9126005165" y2="15.0873994835" /><line stroke="rgb(126,126,153)" stroke-width="1.6258438026" x1="66.1519303099" x2="55.1814030235" y1="22.9126005165" y2="15.0873994835" /><line stroke="rgb(153,153,153)" stroke-width="1.45597952471" x1="16.6950402034" x2="16.6950402034" y1="10.3667379871" y2="5.0824154256" /><line stroke="rgb(33,33,153)" stroke-width="1.45597952471" x1="104.63829313" x2="104.63829313" y1="27.6332620129" y2="32.9175845744" /><line stroke="rgb(153,153,153)" stroke-width="1.45597952471" x1="34.2836906977" x2="34.2836906977" y1="27.6332620129" y2="32.9175845744" /><line stroke="rgb(153,153,153)" stroke-width="1.45597952471" x1="51.8723413437" x2="51.8723413437" y1="10.3667379871" y2="5.0824154256" /><line stroke="rgb(99,99,153)" stroke-width="1.45597952471" x1="87.049642484" x2="87.049642484" y1="10.3667379871" y2="5.0824154256" /><line stroke="rgb(99,99,153)" stroke-width="1.45597952471" x1="69.4609919897" x2="69.4609919897" y1="27.6332620129" y2="32.9175845744" /><g transform="translate(34.2836906977,34.7847118829) scale(1.0,-1.0)"><circle cx="0" cy="0" fill="rgb(255,255,255)" r="3.21528811707" stroke="rgb(153,153,153)" stroke-width="0.321528811707" /></g><g transform="translate(16.6950402034,3.21528811707) scale(1.0,-1.0)"><circle cx="0" cy="0" fill="rgb(255,255,255)" r="3.21528811707" stroke="rgb(153,153,153)" stroke-width="0.321528811707" /></g><g transform="translate(51.8723413437,3.21528811707) scale(1.0,-1.0)"><circle cx="0" cy="0" fill="rgb(255,255,255)" r="3.21528811707" stroke="rgb(153,153,153)" stroke-width="0.321528811707" /></g><g transform="translate(69.4609919897,34.7847118829) scale(1.0,-1.0)"><circle cx="0" cy="0" fill="rgb(165,165,255)" r="3.21528811707" stroke="rgb(99,99,153)" stroke-width="0.321528811707" /></g><g transform="translate(87.049642484,3.21528811707) scale(1.0,-1.0)"><circle cx="0" cy="0" fill="rgb(165,165,255)" r="3.21528811707" stroke="rgb(99,99,153)" stroke-width="0.321528811707" /></g><g transform="translate(104.63829313,34.7847118829) scale(1.0,-1.0)"><circle cx="0" cy="0" fill="rgb(55,55,255)" r="3.21528811707" stroke="rgb(33,33,153)" stroke-width="0.321528811707" /></g></g></g><g transform="translate(533.333333333,50.0)"><rect fill="rgb(255,255,255)" height="50.0" width="133.333333333" x="0" y="0" /><g transform="scale(1.0,-1.0) translate(6,-44.0)"><g transform="translate(16.6950402034,3.21528811707) scale(1.0,-1.0)"><circle cx="0" cy="0" fill="rgb(255,255,255)" r="3.21528811707" stroke="rgb(153,153,153)" stroke-width="0.321528811707" /></g><g transform="translate(104.63829313,34.7847118829) scale(1.0,-1.0)"><circle cx="0" cy="0" fill="rgb(165,165,255)" r="3.21528811707" stroke="rgb(99,99,153)" stroke-width="0.321528811707" /></g><g transform="translate(87.049642484,3.21528811707) scale(1.0,-1.0)"><circle cx="0" cy="0" fill="rgb(55,55,255)" r="3.21528811707" stroke="rgb(33,33,153)" stroke-width="0.321528811707" /></g><g transform="translate(69.4609919897,34.7847118829) scale(1.0,-1.0)"><circle cx="0" cy="0" fill="rgb(165,165,255)" r="3.21528811707" stroke="rgb(99,99,153)" stroke-width="0.321528811707" /></g><g transform="translate(51.8723413437,3.21528811707) scale(1.0,-1.0)"><circle cx="0" cy="0" fill="rgb(165,165,255)" r="3.21528811707" stroke="rgb(99,99,153)" stroke-width="0.321528811707" /></g><g transform="translate(34.2836906977,34.7847118829) scale(1.0,-1.0)"><circle cx="0" cy="0" fill="rgb(255,255,255)" r="3.21528811707" stroke="rgb(153,153,153)" stroke-width="0.321528811707" /></g><line stroke="rgb(99,99,153)" stroke-width="1.45597952471" x1="69.4609919897" x2="69.4609919897" y1="27.6332620129" y2="32.9175845744" /><line stroke="rgb(99,99,153)" stroke-width="1.45597952471" x1="104.63829313" x2="104.63829313" y1="27.6332620129" y2="32.9175845744" /><line stroke="rgb(33,33,153)" stroke-width="1.45597952471" x1="87.049642484" x2="87.049642484" y1="10.3667379871" y2="5.0824154256" /><line stroke="rgb(153,153,153)" stroke-width="1.45597952471" x1="16.6950402034" x2="16.6950402034" y1="10.3667379871" y2="5.0824154256" /><line stroke="rgb(99,99,153)" stroke-width="1.45597952471" x1="51.8723413437" x2="51.8723413437" y1="10.3667379871" y2="5.0824154256" /><line stroke="rgb(153,153,153)" stroke-width="1.45597952471" x1="34.2836906977" x2="34.2836906977" y1="27.6332620129" y2="32.9175845744" /><g transform="translate(34.2836906977,25.2729312644) scale(1.0,-1.0)"><circle cx="0" cy="0" fill="rgb(255,255,255)" r="4.06460950649" stroke="rgb(153,153,153)" stroke-width="0.406460950649" /></g><line stroke="rgb(153,153,153)" stroke-width="1.6258438026" x1="30.9746290275" x2="20.0041018735" y1="22.912600503" y2="15.087399497" /><g transform="translate(87.049642484,12.7270687356) scale(1.0,-1.0)"><circle cx="0" cy="0" fill="rgb(55,55,255)" r="4.06460950649" stroke="rgb(33,33,153)" stroke-width="0.406460950649" /></g><g transform="translate(69.4609919897,25.2729312644) scale(1.0,-1.0)"><circle cx="0" cy="0" fill="rgb(165,165,255)" r="4.06460950649" stroke="rgb(99,99,153)" stroke-width="0.406460950649" /></g><g transform="translate(51.8723413437,12.7270687356) scale(1.0,-1.0)"><circle cx="0" cy="0" fill="rgb(165,165,255)" r="4.06460950649" stroke="rgb(99,99,153)" stroke-width="0.406460950649" /></g><line stroke="rgb(126,126,153)" stroke-width="1.6258438026" x1="48.5632796639" x2="37.5927523775" y1="15.0873994835" y2="22.9126005165" /><line stroke="rgb(66,66,153)" stroke-width="1.6258438026" x1="83.7405808138" x2="72.7700536598" y1="15.087399497" y2="22.912600503" /><g transform="translate(104.63829313,25.2729312644) scale(1.0,-1.0)"><circle cx="0" cy="0" fill="rgb(165,165,255)" r="4.06460950649" stroke="rgb(99,99,153)" stroke-width="0.406460950649" /></g><g transform="translate(16.6950402034,12.7270687356) scale(1.0,-1.0)"><circle cx="0" cy="0" fill="rgb(255,255,255)" r="4.06460950649" stroke="rgb(153,153,153)" stroke-width="0.406460950649" /></g><line stroke="rgb(66,66,153)" stroke-width="1.6258438026" x1="101.32923145" x2="90.3587041638" y1="22.9126005165" y2="15.0873994835" /><line stroke="rgb(99,99,153)" stroke-width="1.6258438026" x1="66.1519303099" x2="55.1814030235" y1="22.9126005165" y2="15.0873994835" /><line stroke="rgb(153,153,153)" stroke-width="1.45597952471" x1="16.6950402034" x2="16.6950402034" y1="10.3667379871" y2="5.0824154256" /><line stroke="rgb(99,99,153)" stroke-width="1.45597952471" x1="104.63829313" x2="104.63829313" y1="27.6332620129" y2="32.9175845744" /><line stroke="rgb(153,153,153)" stroke-width="1.45597952471" x1="34.2836906977" x2="34.2836906977" y1="27.6332620129" y2="32.9175845744" /><line stroke="rgb(99,99,153)" stroke-width="1.45597952471" x1="51.8723413437" x2="51.8723413437" y1="10.3667379871" y2="5.0824154256" /><line stroke="rgb(33,33,153)" stroke-width="1.45597952471" x1="87.049642484" x2="87.049642484" y1="10.3667379871" y2="5.0824154256" /><line stroke="rgb(99,99,153)" stroke-width="1.45597952471" x1="69.4609919897" x2="69.4609919897" y1="27.6332620129" y2="32.9175845744" /><g transform="translate(34.2836906977,34.7847118829) scale(1.0,-1.0)"><circle cx="0" cy="0" fill="rgb(255,255,255)" r="3.21528811707" stroke="rgb(153,153,153)" stroke-width="0.321528811707" /></g><g transform="translate(16.6950402034,3.21528811707) scale(1.0,-1.0)"><circle cx="0" cy="0" fill="rgb(255,255,255)" r="3.21528811707" stroke="rgb(153,153,153)" stroke-width="0.321528811707" /></g><g transform="translate(51.8723413437,3.21528811707) scale(1.0,-1.0)"><circle cx="0" cy="0" fill="rgb(165,165,255)" r="3.21528811707" stroke="rgb(99,99,153)" stroke-width="0.321528811707" /></g><g transform="translate(69.4609919897,34.7847118829) scale(1.0,-1.0)"><circle cx="0" cy="0" fill="rgb(165,165,255)" r="3.21528811707" stroke="rgb(99,99,153)" stroke-width="0.321528811707" /></g><g transform="translate(87.049642484,3.21528811707) scale(1.0,-1.0)"><circle cx="0" cy="0" fill="rgb(55,55,255)" r="3.21528811707" stroke="rgb(33,33,153)" stroke-width="0.321528811707" /></g><g transform="translate(104.63829313,34.7847118829) scale(1.0,-1.0)"><circle cx="0" cy="0" fill="rgb(165,165,255)" r="3.21528811707" stroke="rgb(99,99,153)" stroke-width="0.321528811707" /></g></g></g><g transform="translate(533.333333333,100.0)"><rect fill="rgb(255,255,255)" height="50.0" width="133.333333333" x="0" y="0" /><g transform="scale(1.0,-1.0) translate(6,-44.0)"><g transform="translate(16.6950402034,3.21528811707) scale(1.0,-1.0)"><circle cx="0" cy="0" fill="rgb(255,255,255)" r="3.21528811707" stroke="rgb(153,153,153)" stroke-width="0.321528811707" /></g><g transform="translate(104.63829313,34.7847118829) scale(1.0,-1.0)"><circle cx="0" cy="0" fill="rgb(165,165,255)" r="3.21528811707" stroke="rgb(99,99,153)" stroke-width="0.321528811707" /></g><g transform="translate(87.049642484,3.21528811707) scale(1.0,-1.0)"><circle cx="0" cy="0" fill="rgb(165,165,255)" r="3.21528811707" stroke="rgb(99,99,153)" stroke-width="0.321528811707" /></g><g transform="translate(69.4609919897,34.7847118829) scale(1.0,-1.0)"><circle cx="0" cy="0" fill="rgb(55,55,255)" r="3.21528811707" stroke="rgb(33,33,153)" stroke-width="0.321528811707" /></g><g transform="translate(51.8723413437,3.21528811707) scale(1.0,-1.0)"><circle cx="0" cy="0" fill="rgb(165,165,255)" r="3.21528811707" stroke="rgb(99,99,153)" stroke-width="0.321528811707" /></g><g transform="translate(34.2836906977,34.7847118829) scale(1.0,-1.0)"><circle cx="0" cy="0" fill="rgb(165,165,255)" r="3.21528811707" stroke="rgb(99,99,153)" stroke-width="0.321528811707" /></g><line stroke="rgb(33,33,153)" stroke-width="1.45597952471" x1="69.4609919897" x2="69.4609919897" y1="27.6332620129" y2="32.9175845744" /><line stroke="rgb(99,99,153)" stroke-width="1.45597952471" x1="104.63829313" x2="104.63829313" y1="27.6332620129" y2="32.9175845744" /><line stroke="rgb(99,99,153)" stroke-width="1.45597952471" x1="87.049642484" x2="87.049642484" y1="10.3667379871" y2="5.0824154256" /><line stroke="rgb(153,153,153)" stroke-width="1.45597952471" x1="16.6950402034" x2="16.6950402034" y1="10.3667379871" y2="5.0824154256" /><line stroke="rgb(99,99,153)" stroke-width="1.45597952471" x1="51.8723413437" x2="51.8723413437" y1="10.3667379871" y2="5.0824154256" /><line stroke="rgb(99,99,153)" stroke-width="1.45597952471" x1="34.2836906977" x2="34.2836906977" y1="27.6332620129" y2="32.9175845744" /><g transform="translate(34.2836906977,25.2729312644) scale(1.0,-1.0)"><circle cx="0" cy="0" fill="rgb(165,165,255)" r="4.06460950649" stroke="rgb(99,99,153)" stroke-width="0.406460950649" /></g><line stroke="rgb(126,126,153)" stroke-width="1.6258438026" x1="30.9746290275" x2="20.0041018735" y1="22.912600503" y2="15.087399497" /><g transform="translate(87.049642484,12.7270687356) scale(1.0,-1.0)"><circle cx="0" cy="0" fill="rgb(165,165,255)" r="4.06460950649" stroke="rgb(99,99,153)" stroke-width="0.406460950649" /></g><g transform="translate(69.4609919897,25.2729312644) scale(1.0,-1.0)"><circle cx="0" cy="0" fill="rgb(55,55,255)" r="4.06460950649" stroke="rgb(33,33,153)" stroke-width="0.406460950649" /></g><g transform="translate(51.8723413437,12.7270687356) scale(1.0,-1.0)"><circle cx="0" cy="0" fill="rgb(165,165,255)" r="4.06460950649" stroke="rgb(99,99,153)" stroke-width="0.406460950649" /></g><line stroke="rgb(99,99,153)" stroke-width="1.6258438026" x1="48.5632796639" x2="37.5927523775" y1="15.0873994835" y2="22.9126005165" /><line stroke="rgb(66,66,153)" stroke-width="1.6258438026" x1="83.7405808138" x2="72.7700536598" y1="15.087399497" y2="22.912600503" /><g transform="translate(104.63829313,25.2729312644) scale(1.0,-1.0)"><circle cx="0" cy="0" fill="rgb(165,165,255)" r="4.06460950649" stroke="rgb(99,99,153)" stroke-width="0.406460950649" /></g><g transform="translate(16.6950402034,12.7270687356) scale(1.0,-1.0)"><circle cx="0" cy="0" fill="rgb(255,255,255)" r="4.06460950649" stroke="rgb(153,153,153)" stroke-width="0.406460950649" /></g><line stroke="rgb(99,99,153)" stroke-width="1.6258438026" x1="101.32923145" x2="90.3587041638" y1="22.9126005165" y2="15.0873994835" /><line stroke="rgb(66,66,153)" stroke-width="1.6258438026" x1="66.1519303099" x2="55.1814030235" y1="22.9126005165" y2="15.0873994835" /><line stroke="rgb(153,153,153)" stroke-width="1.45597952471" x1="16.6950402034" x2="16.6950402034" y1="10.3667379871" y2="5.0824154256" /><line stroke="rgb(99,99,153)" stroke-width="1.45597952471" x1="104.63829313" x2="104.63829313" y1="27.6332620129" y2="32.9175845744" /><line stroke="rgb(99,99,153)" stroke-width="1.45597952471" x1="34.2836906977" x2="34.2836906977" y1="27.6332620129" y2="32.9175845744" /><line stroke="rgb(99,99,153)" stroke-width="1.45597952471" x1="51.8723413437" x2="51.8723413437" y1="10.3667379871" y2="5.0824154256" /><line stroke="rgb(99,99,153)" stroke-width="1.45597952471" x1="87.049642484" x2="87.049642484" y1="10.3667379871" y2="5.0824154256" /><line stroke="rgb(33,33,153)" stroke-width="1.45597952471" x1="69.4609919897" x2="69.4609919897" y1="27.6332620129" y2="32.9175845744" /><g transform="translate(34.2836906977,34.7847118829) scale(1.0,-1.0)"><circle cx="0" cy="0" fill="rgb(165,165,255)" r="3.21528811707" stroke="rgb(99,99,153)" stroke-width="0.321528811707" /></g><g transform="translate(16.6950402034,3.21528811707) scale(1.0,-1.0)"><circle cx="0" cy="0" fill="rgb(255,255,255)" r="3.21528811707" stroke="rgb(153,153,153)" stroke-width="0.321528811707" /></g><g transform="translate(51.8723413437,3.21528811707) scale(1.0,-1.0)"><circle cx="0" cy="0" fill="rgb(165,165,255)" r="3.21528811707" stroke="rgb(99,99,153)" stroke-width="0.321528811707" /></g><g transform="translate(69.4609919897,34.7847118829) scale(1.0,-1.0)"><circle cx="0" cy="0" fill="rgb(55,55,255)" r="3.21528811707" stroke="rgb(33,33,153)" stroke-width="0.321528811707" /></g><g transform="translate(87.049642484,3.21528811707) scale(1.0,-1.0)"><circle cx="0" cy="0" fill="rgb(165,165,255)" r="3.21528811707" stroke="rgb(99,99,153)" stroke-width="0.321528811707" /></g><g transform="translate(104.63829313,34.7847118829) scale(1.0,-1.0)"><circle cx="0" cy="0" fill="rgb(165,165,255)" r="3.21528811707" stroke="rgb(99,99,153)" stroke-width="0.321528811707" /></g></g></g><g transform="translate(533.333333333,150.0)"><rect fill="rgb(255,255,255)" height="50.0" width="133.333333333" x="0" y="0" /><g transform="scale(1.0,-1.0) translate(6,-44.0)"><g transform="translate(16.6950402034,3.21528811707) scale(1.0,-1.0)"><circle cx="0" cy="0" fill="rgb(165,165,255)" r="3.21528811707" stroke="rgb(99,99,153)" stroke-width="0.321528811707" /></g><g transform="translate(104.63829313,34.7847118829) scale(1.0,-1.0)"><circle cx="0" cy="0" fill="rgb(255,255,255)" r="3.21528811707" stroke="rgb(153,153,153)" stroke-width="0.321528811707" /></g><g transform="translate(87.049642484,3.21528811707) scale(1.0,-1.0)"><circle cx="0" cy="0" fill="rgb(165,165,255)" r="3.21528811707" stroke="rgb(99,99,153)" stroke-width="0.321528811707" /></g><g transform="translate(69.4609919897,34.7847118829) scale(1.0,-1.0)"><circle cx="0" cy="0" fill="rgb(165,165,255)" r="3.21528811707" stroke="rgb(99,99,153)" stroke-width="0.321528811707" /></g><g transform="translate(51.8723413437,3.21528811707) scale(1.0,-1.0)"><circle cx="0" cy="0" fill="rgb(55,55,255)" r="3.21528811707" stroke="rgb(33,33,153)" stroke-width="0.321528811707" /></g><g transform="translate(34.2836906977,34.7847118829) scale(1.0,-1.0)"><circle cx="0" cy="0" fill="rgb(165,165,255)" r="3.21528811707" stroke="rgb(99,99,153)" stroke-width="0.321528811707" /></g><line stroke="rgb(99,99,153)" stroke-width="1.45597952471" x1="69.4609919897" x2="69.4609919897" y1="27.6332620129" y2="32.9175845744" /><line stroke="rgb(153,153,153)" stroke-width="1.45597952471" x1="104.63829313" x2="104.63829313" y1="27.6332620129" y2="32.9175845744" /><line stroke="rgb(99,99,153)" stroke-width="1.45597952471" x1="87.049642484" x2="87.049642484" y1="10.3667379871" y2="5.0824154256" /><line stroke="rgb(99,99,153)" stroke-width="1.45597952471" x1="16.6950402034" x2="16.6950402034" y1="10.3667379871" y2="5.0824154256" /><line stroke="rgb(33,33,153)" stroke-width="1.45597952471" x1="51.8723413437" x2="51.8723413437" y1="10.3667379871" y2="5.0824154256" /><line stroke="rgb(99,99,153)" stroke-width="1.45597952471" x1="34.2836906977" x2="34.2836906977" y1="27.6332620129" y2="32.9175845744" /><g transform="translate(34.2836906977,25.2729312644) scale(1.0,-1.0)"><circle cx="0" cy="0" fill="rgb(165,165,255)" r="4.06460950649" stroke="rgb(99,99,153)" stroke-width="0.406460950649" /></g><line stroke="rgb(99,99,153)" stroke-width="1.6258438026" x1="30.9746290275" x2="20.0041018735" y1="22.912600503" y2="15.087399497" /><g transform="translate(87.049642484,12.7270687356) scale(1.0,-1.0)"><circle cx="0" cy="0" fill="rgb(165,165,255)" r="4.06460950649" stroke="rgb(99,99,153)" stroke-width="0.406460950649" /></g><g transform="translate(69.4609919897,25.2729312644) scale(1.0,-1.0)"><circle cx="0" cy="0" fill="rgb(165,165,255)" r="4.06460950649" stroke="rgb(99,99,153)" stroke-width="0.406460950649" /></g><g transform="translate(51.8723413437,12.7270687356) scale(1.0,-1.0)"><circle cx="0" cy="0" fill="rgb(55,55,255)" r="4.06460950649" stroke="rgb(33,33,153)" stroke-width="0.406460950649" /></g><line stroke="rgb(66,66,153)" stroke-width="1.6258438026" x1="48.5632796639" x2="37.5927523775" y1="15.0873994835" y2="22.9126005165" /><line stroke="rgb(99,99,153)" stroke-width="1.6258438026" x1="83.7405808138" x2="72.7700536598" y1="15.087399497" y2="22.912600503" /><g transform="translate(104.63829313,25.2729312644) scale(1.0,-1.0)"><circle cx="0" cy="0" fill="rgb(255,255,255)" r="4.06460950649" stroke="rgb(153,153,153)" stroke-width="0.406460950649" /></g><g transform="translate(16.6950402034,12.7270687356) scale(1.0,-1.0)"><circle cx="0" cy="0" fill="rgb(165,165,255)" r="4.06460950649" stroke="rgb(99,99,153)" stroke-width="0.406460950649" /></g><line stroke="rgb(126,126,153)" stroke-width="1.6258438026" x1="101.32923145" x2="90.3587041638" y1="22.9126005165" y2="15.0873994835" /><line stroke="rgb(66,66,153)" stroke-width="1.6258438026" x1="66.1519303099" x2="55.1814030235" y1="22.9126005165" y2="15.0873994835" /><line stroke="rgb(99,99,153)" stroke-width="1.45597952471" x1="16.6950402034" x2="16.6950402034" y1="10.3667379871" y2="5.0824154256" /><line stroke="rgb(153,153,153)" stroke-width="1.45597952471" x1="104.63829313" x2="104.63829313" y1="27.6332620129" y2="32.9175845744" /><line stroke="rgb(99,99,153)" stroke-width="1.45597952471" x1="34.2836906977" x2="34.2836906977" y1="27.6332620129" y2="32.9175845744" /><line stroke="rgb(33,33,153)" stroke-width="1.45597952471" x1="51.8723413437" x2="51.8723413437" y1="10.3667379871" y2="5.0824154256" /><line stroke="rgb(99,99,153)" stroke-width="1.45597952471" x1="87.049642484" x2="87.049642484" y1="10.3667379871" y2="5.0824154256" /><line stroke="rgb(99,99,153)" stroke-width="1.45597952471" x1="69.4609919897" x2="69.4609919897" y1="27.6332620129" y2="32.9175845744" /><g transform="translate(34.2836906977,34.7847118829) scale(1.0,-1.0)"><circle cx="0" cy="0" fill="rgb(165,165,255)" r="3.21528811707" stroke="rgb(99,99,153)" stroke-width="0.321528811707" /></g><g transform="translate(16.6950402034,3.21528811707) scale(1.0,-1.0)"><circle cx="0" cy="0" fill="rgb(165,165,255)" r="3.21528811707" stroke="rgb(99,99,153)" stroke-width="0.321528811707" /></g><g transform="translate(51.8723413437,3.21528811707) scale(1.0,-1.0)"><circle cx="0" cy="0" fill="rgb(55,55,255)" r="3.21528811707" stroke="rgb(33,33,153)" stroke-width="0.321528811707" /></g><g transform="translate(69.4609919897,34.7847118829) scale(1.0,-1.0)"><circle cx="0" cy="0" fill="rgb(165,165,255)" r="3.21528811707" stroke="rgb(99,99,153)" stroke-width="0.321528811707" /></g><g transform="translate(87.049642484,3.21528811707) scale(1.0,-1.0)"><circle cx="0" cy="0" fill="rgb(165,165,255)" r="3.21528811707" stroke="rgb(99,99,153)" stroke-width="0.321528811707" /></g><g transform="translate(104.63829313,34.7847118829) scale(1.0,-1.0)"><circle cx="0" cy="0" fill="rgb(255,255,255)" r="3.21528811707" stroke="rgb(153,153,153)" stroke-width="0.321528811707" /></g></g></g><g transform="translate(666.666666667,0.0)"><rect fill="rgb(255,255,255)" height="50.0" width="133.333333333" x="0" y="0" /><g transform="scale(1.0,-1.0) translate(6,-44.0)"><g transform="translate(16.6950402034,3.21528811707) scale(1.0,-1.0)"><circle cx="0" cy="0" fill="rgb(165,165,255)" r="3.21528811707" stroke="rgb(99,99,153)" stroke-width="0.321528811707" /></g><g transform="translate(104.63829313,34.7847118829) scale(1.0,-1.0)"><circle cx="0" cy="0" fill="rgb(255,255,255)" r="3.21528811707" stroke="rgb(153,153,153)" stroke-width="0.321528811707" /></g><g transform="translate(87.049642484,3.21528811707) scale(1.0,-1.0)"><circle cx="0" cy="0" fill="rgb(255,255,255)" r="3.21528811707" stroke="rgb(153,153,153)" stroke-width="0.321528811707" /></g><g transform="translate(69.4609919897,34.7847118829) scale(1.0,-1.0)"><circle cx="0" cy="0" fill="rgb(165,165,255)" r="3.21528811707" stroke="rgb(99,99,153)" stroke-width="0.321528811707" /></g><g transform="translate(51.8723413437,3.21528811707) scale(1.0,-1.0)"><circle cx="0" cy="0" fill="rgb(165,165,255)" r="3.21528811707" stroke="rgb(99,99,153)" stroke-width="0.321528811707" /></g><g transform="translate(34.2836906977,34.7847118829) scale(1.0,-1.0)"><circle cx="0" cy="0" fill="rgb(55,55,255)" r="3.21528811707" stroke="rgb(33,33,153)" stroke-width="0.321528811707" /></g><line stroke="rgb(99,99,153)" stroke-width="1.45597952471" x1="69.4609919897" x2="69.4609919897" y1="27.6332620129" y2="32.9175845744" /><line stroke="rgb(153,153,153)" stroke-width="1.45597952471" x1="104.63829313" x2="104.63829313" y1="27.6332620129" y2="32.9175845744" /><line stroke="rgb(153,153,153)" stroke-width="1.45597952471" x1="87.049642484" x2="87.049642484" y1="10.3667379871" y2="5.0824154256" /><line stroke="rgb(99,99,153)" stroke-width="1.45597952471" x1="16.6950402034" x2="16.6950402034" y1="10.3667379871" y2="5.0824154256" /><line stroke="rgb(99,99,153)" stroke-width="1.45597952471" x1="51.8723413437" x2="51.8723413437" y1="10.3667379871" y2="5.0824154256" /><line stroke="rgb(33,33,153)" stroke-width="1.45597952471" x1="34.2836906977" x2="34.2836906977" y1="27.6332620129" y2="32.9175845744" /><g transform="translate(34.2836906977,25.2729312644) scale(1.0,-1.0)"><circle cx="0" cy="0" fill="rgb(55,55,255)" r="4.06460950649" stroke="rgb(33,33,153)" stroke-width="0.406460950649" /></g><line stroke="rgb(66,66,153)" stroke-width="1.6258438026" x1="30.9746290275" x2="20.0041018735" y1="22.912600503" y2="15.087399497" /><g transform="translate(87.049642484,12.7270687356) scale(1.0,-1.0)"><circle cx="0" cy="0" fill="rgb(255,255,255)" r="4.06460950649" stroke="rgb(153,153,153)" stroke-width="0.406460950649" /></g><g transform="translate(69.4609919897,25.2729312644) scale(1.0,-1.0)"><circle cx="0" cy="0" fill="rgb(165,165,255)" r="4.06460950649" stroke="rgb(99,99,153)" stroke-width="0.406460950649" /></g><g transform="translate(51.8723413437,12.7270687356) scale(1.0,-1.0)"><circle cx="0" cy="0" fill="rgb(165,165,255)" r="4.06460950649" stroke="rgb(99,99,153)" stroke-width="0.406460950649" /></g><line stroke="rgb(66,66,153)" stroke-width="1.6258438026" x1="48.5632796639" x2="37.5927523775" y1="15.0873994835" y2="22.9126005165" /><line stroke="rgb(126,126,153)" stroke-width="1.6258438026" x1="83.7405808138" x2="72.7700536598" y1="15.087399497" y2="22.912600503" /><g transform="translate(104.63829313,25.2729312644) scale(1.0,-1.0)"><circle cx="0" cy="0" fill="rgb(255,255,255)" r="4.06460950649" stroke="rgb(153,153,153)" stroke-width="0.406460950649" /></g><g transform="translate(16.6950402034,12.7270687356) scale(1.0,-1.0)"><circle cx="0" cy="0" fill="rgb(165,165,255)" r="4.06460950649" stroke="rgb(99,99,153)" stroke-width="0.406460950649" /></g><line stroke="rgb(153,153,153)" stroke-width="1.6258438026" x1="101.32923145" x2="90.3587041638" y1="22.9126005165" y2="15.0873994835" /><line stroke="rgb(99,99,153)" stroke-width="1.6258438026" x1="66.1519303099" x2="55.1814030235" y1="22.9126005165" y2="15.0873994835" /><line stroke="rgb(99,99,153)" stroke-width="1.45597952471" x1="16.6950402034" x2="16.6950402034" y1="10.3667379871" y2="5.0824154256" /><line stroke="rgb(153,153,153)" stroke-width="1.45597952471" x1="104.63829313" x2="104.63829313" y1="27.6332620129" y2="32.9175845744" /><line stroke="rgb(33,33,153)" stroke-width="1.45597952471" x1="34.2836906977" x2="34.2836906977" y1="27.6332620129" y2="32.9175845744" /><line stroke="rgb(99,99,153)" stroke-width="1.45597952471" x1="51.8723413437" x2="51.8723413437" y1="10.3667379871" y2="5.0824154256" /><line stroke="rgb(153,153,153)" stroke-width="1.45597952471" x1="87.049642484" x2="87.049642484" y1="10.3667379871" y2="5.0824154256" /><line stroke="rgb(99,99,153)" stroke-width="1.45597952471" x1="69.4609919897" x2="69.4609919897" y1="27.6332620129" y2="32.9175845744" /><g transform="translate(34.2836906977,34.7847118829) scale(1.0,-1.0)"><circle cx="0" cy="0" fill="rgb(55,55,255)" r="3.21528811707" stroke="rgb(33,33,153)" stroke-width="0.321528811707" /></g><g transform="translate(16.6950402034,3.21528811707) scale(1.0,-1.0)"><circle cx="0" cy="0" fill="rgb(165,165,255)" r="3.21528811707" stroke="rgb(99,99,153)" stroke-width="0.321528811707" /></g><g transform="translate(51.8723413437,3.21528811707) scale(1.0,-1.0)"><circle cx="0" cy="0" fill="rgb(165,165,255)" r="3.21528811707" stroke="rgb(99,99,153)" stroke-width="0.321528811707" /></g><g transform="translate(69.4609919897,34.7847118829) scale(1.0,-1.0)"><circle cx="0" cy="0" fill="rgb(165,165,255)" r="3.21528811707" stroke="rgb(99,99,153)" stroke-width="0.321528811707" /></g><g transform="translate(87.049642484,3.21528811707) scale(1.0,-1.0)"><circle cx="0" cy="0" fill="rgb(255,255,255)" r="3.21528811707" stroke="rgb(153,153,153)" stroke-width="0.321528811707" /></g><g transform="translate(104.63829313,34.7847118829) scale(1.0,-1.0)"><circle cx="0" cy="0" fill="rgb(255,255,255)" r="3.21528811707" stroke="rgb(153,153,153)" stroke-width="0.321528811707" /></g></g></g><g transform="translate(666.666666667,50.0)"><rect fill="rgb(255,255,255)" height="50.0" width="133.333333333" x="0" y="0" /><g transform="scale(1.0,-1.0) translate(6,-44.0)"><g transform="translate(16.6950402034,3.21528811707) scale(1.0,-1.0)"><circle cx="0" cy="0" fill="rgb(55,55,255)" r="3.21528811707" stroke="rgb(33,33,153)" stroke-width="0.321528811707" /></g><g transform="translate(104.63829313,34.7847118829) scale(1.0,-1.0)"><circle cx="0" cy="0" fill="rgb(255,255,255)" r="3.21528811707" stroke="rgb(153,153,153)" stroke-width="0.321528811707" /></g><g transform="translate(87.049642484,3.21528811707) scale(1.0,-1.0)"><circle cx="0" cy="0" fill="rgb(255,255,255)" r="3.21528811707" stroke="rgb(153,153,153)" stroke-width="0.321528811707" /></g><g transform="translate(69.4609919897,34.7847118829) scale(1.0,-1.0)"><circle cx="0" cy="0" fill="rgb(255,255,255)" r="3.21528811707" stroke="rgb(153,153,153)" stroke-width="0.321528811707" /></g><g transform="translate(51.8723413437,3.21528811707) scale(1.0,-1.0)"><circle cx="0" cy="0" fill="rgb(165,165,255)" r="3.21528811707" stroke="rgb(99,99,153)" stroke-width="0.321528811707" /></g><g transform="translate(34.2836906977,34.7847118829) scale(1.0,-1.0)"><circle cx="0" cy="0" fill="rgb(165,165,255)" r="3.21528811707" stroke="rgb(99,99,153)" stroke-width="0.321528811707" /></g><line stroke="rgb(153,153,153)" stroke-width="1.45597952471" x1="69.4609919897" x2="69.4609919897" y1="27.6332620129" y2="32.9175845744" /><line stroke="rgb(153,153,153)" stroke-width="1.45597952471" x1="104.63829313" x2="104.63829313" y1="27.6332620129" y2="32.9175845744" /><line stroke="rgb(153,153,153)" stroke-width="1.45597952471" x1="87.049642484" x2="87.049642484" y1="10.3667379871" y2="5.0824154256" /><line stroke="rgb(33,33,153)" stroke-width="1.45597952471" x1="16.6950402034" x2="16.6950402034" y1="10.3667379871" y2="5.0824154256" /><line stroke="rgb(99,99,153)" stroke-width="1.45597952471" x1="51.8723413437" x2="51.8723413437" y1="10.3667379871" y2="5.0824154256" /><line stroke="rgb(99,99,153)" stroke-width="1.45597952471" x1="34.2836906977" x2="34.2836906977" y1="27.6332620129" y2="32.9175845744" /><g transform="translate(34.2836906977,25.2729312644) scale(1.0,-1.0)"><circle cx="0" cy="0" fill="rgb(165,165,255)" r="4.06460950649" stroke="rgb(99,99,153)" stroke-width="0.406460950649" /></g><line stroke="rgb(66,66,153)" stroke-width="1.6258438026" x1="30.9746290275" x2="20.0041018735" y1="22.912600503" y2="15.087399497" /><g transform="translate(87.049642484,12.7270687356) scale(1.0,-1.0)"><circle cx="0" cy="0" fill="rgb(255,255,255)" r="4.06460950649" stroke="rgb(153,153,153)" stroke-width="0.406460950649" /></g><g transform="translate(69.4609919897,25.2729312644) scale(1.0,-1.0)"><circle cx="0" cy="0" fill="rgb(255,255,255)" r="4.06460950649" stroke="rgb(153,153,153)" stroke-width="0.406460950649" /></g><g transform="translate(51.8723413437,12.7270687356) scale(1.0,-1.0)"><circle cx="0" cy="0" fill="rgb(165,165,255)" r="4.06460950649" stroke="rgb(99,99,153)" stroke-width="0.406460950649" /></g><line stroke="rgb(99,99,153)" stroke-width="1.6258438026" x1="48.5632796639" x2="37.5927523775" y1="15.0873994835" y2="22.9126005165" /><line stroke="rgb(153,153,153)" stroke-width="1.6258438026" x1="83.7405808138" x2="72.7700536598" y1="15.087399497" y2="22.912600503" /><g transform="translate(104.63829313,25.2729312644) scale(1.0,-1.0)"><circle cx="0" cy="0" fill="rgb(255,255,255)" r="4.06460950649" stroke="rgb(153,153,153)" stroke-width="0.406460950649" /></g><g transform="translate(16.6950402034,12.7270687356) scale(1.0,-1.0)"><circle cx="0" cy="0" fill="rgb(55,55,255)" r="4.06460950649" stroke="rgb(33,33,153)" stroke-width="0.406460950649" /></g><line stroke="rgb(153,153,153)" stroke-width="1.6258438026" x1="101.32923145" x2="90.3587041638" y1="22.9126005165" y2="15.0873994835" /><line stroke="rgb(126,126,153)" stroke-width="1.6258438026" x1="66.1519303099" x2="55.1814030235" y1="22.9126005165" y2="15.0873994835" /><line stroke="rgb(33,33,153)" stroke-width="1.45597952471" x1="16.6950402034" x2="16.6950402034" y1="10.3667379871" y2="5.0824154256" /><line stroke="rgb(153,153,153)" stroke-width="1.45597952471" x1="104.63829313" x2="104.63829313" y1="27.6332620129" y2="32.9175845744" /><line stroke="rgb(99,99,153)" stroke-width="1.45597952471" x1="34.2836906977" x2="34.2836906977" y1="27.6332620129" y2="32.9175845744" /><line stroke="rgb(99,99,153)" stroke-width="1.45597952471" x1="51.8723413437" x2="51.8723413437" y1="10.3667379871" y2="5.0824154256" /><line stroke="rgb(153,153,153)" stroke-width="1.45597952471" x1="87.049642484" x2="87.049642484" y1="10.3667379871" y2="5.0824154256" /><line stroke="rgb(153,153,153)" stroke-width="1.45597952471" x1="69.4609919897" x2="69.4609919897" y1="27.6332620129" y2="32.9175845744" /><g transform="translate(34.2836906977,34.7847118829) scale(1.0,-1.0)"><circle cx="0" cy="0" fill="rgb(165,165,255)" r="3.21528811707" stroke="rgb(99,99,153)" stroke-width="0.321528811707" /></g><g transform="translate(16.6950402034,3.21528811707) scale(1.0,-1.0)"><circle cx="0" cy="0" fill="rgb(55,55,255)" r="3.21528811707" stroke="rgb(33,33,153)" stroke-width="0.321528811707" /></g><g transform="translate(51.8723413437,3.21528811707) scale(1.0,-1.0)"><circle cx="0" cy="0" fill="rgb(165,165,255)" r="3.21528811707" stroke="rgb(99,99,153)" stroke-width="0.321528811707" /></g><g transform="translate(69.4609919897,34.7847118829) scale(1.0,-1.0)"><circle cx="0" cy="0" fill="rgb(255,255,255)" r="3.21528811707" stroke="rgb(153,153,153)" stroke-width="0.321528811707" /></g><g transform="translate(87.049642484,3.21528811707) scale(1.0,-1.0)"><circle cx="0" cy="0" fill="rgb(255,255,255)" r="3.21528811707" stroke="rgb(153,153,153)" stroke-width="0.321528811707" /></g><g transform="translate(104.63829313,34.7847118829) scale(1.0,-1.0)"><circle cx="0" cy="0" fill="rgb(255,255,255)" r="3.21528811707" stroke="rgb(153,153,153)" stroke-width="0.321528811707" /></g></g></g></svg>