<?xml version="1.0" encoding="utf-8" ?>
<svg baseProfile="full" height="200" version="1.1" width="800" xmlns="http://www.w3.org/2000/svg" xmlns:ev="http://www.w3.org/2001/xml-events" xmlns:xlink="http://www.w3.org/1999/xlink"><defs /><g transform="translate(0.0,0.0)"><rect fill="rgb(255,255,255)" height="200.0" width="600.0" x="0" y="0" /><g transform="scale(1.0,-1.0) translate(6,-194.0)"><g transform="translate(336.720568396,170.678066689) scale(1.0,-1.0)"><circle cx="0" cy="0" fill="rgb(255,255,255)" r="15.6190419246" stroke="rgb(153,153,153)" stroke-width="1.56190419246" /><text fill="rgb(153,153,153)" font-size="15.6190419246" text-anchor="middle" x="0" y="3.90476048115">9</text></g><g transform="translate(422.161704451,17.3219333105) scale(1.0,-1.0)"><circle cx="0" cy="0" fill="rgb(255,255,255)" r="15.6190419246" stroke="rgb(153,153,153)" stroke-width="1.56190419246" /><text fill="rgb(153,153,153)" font-size="15.6190419246" text-anchor="middle" x="0" y="3.90476048115">6</text></g><g transform="translate(165.838294812,170.678066689) scale(1.0,-1.0)"><circle cx="0" cy="0" fill="rgb(255,255,255)" r="15.6190419246" stroke="rgb(153,153,153)" stroke-width="1.56190419246" /><text fill="rgb(153,153,153)" font-size="15.6190419246" text-anchor="middle" x="0" y="3.90476048115">15</text></g><g transform="translate(251.279431604,17.3219333105) scale(1.0,-1.0)"><circle cx="0" cy="0" fill="rgb(255,255,255)" r="15.6190419246" stroke="rgb(153,153,153)" stroke-width="1.56190419246" /><text fill="rgb(153,153,153)" font-size="15.6190419246" text-anchor="middle" x="0" y="3.90476048115">12</text></g><g transform="translate(80.3971587567,17.3219333105) scale(1.0,-1.0)"><circle cx="0" cy="0" fill="rgb(255,255,255)" r="15.6190419246" stroke="rgb(153,153,153)" stroke-width="1.56190419246" /><text fill="rgb(153,153,153)" font-size="15.6190419246" text-anchor="middle" x="0" y="3.90476048115">18</text></g><g transform="translate(507.602841243,170.678066689) scale(1.0,-1.0)"><circle cx="0" cy="0" fill="rgb(255,255,255)" r="15.6190419246" stroke="rgb(153,153,153)" stroke-width="1.56190419246" /><text fill="rgb(153,153,153)" font-size="15.6190419246" text-anchor="middle" x="0" y="3.90476048115">3</text></g><line stroke="rgb(132,132,132)" stroke-width="7.0727737017" x1="165.838294812" x2="165.838294812" y1="135.9381643" y2="161.6080429" /><line stroke="rgb(132,132,132)" stroke-width="7.0727737017" x1="251.279431604" x2="251.279431604" y1="52.0618356999" y2="26.3919570995" /><line stroke="rgb(132,132,132)" stroke-width="7.0727737017" x1="80.3971587567" x2="80.3971587567" y1="52.0618356999" y2="26.3919570995" /><line stroke="rgb(132,132,132)" stroke-width="7.0727737017" x1="336.720568396" x2="336.720568396" y1="135.9381643" y2="161.6080429" /><line stroke="rgb(132,132,132)" stroke-width="7.0727737017" x1="422.161704451" x2="422.161704451" y1="52.0618356999" y2="26.3919570995" /><line stroke="rgb(132,132,132)" stroke-width="7.0727737017" x1="507.602841243" x2="507.602841243" y1="135.9381643" y2="161.6080429" /><g transform="translate(422.161704451,63.5277148294) scale(1.0,-1.0)"><circle cx="0" cy="0" fill="rgb(188,188,188)" r="19.7448265839" stroke="rgb(112,112,112)" stroke-width="1.97448265839" /><text fill="rgb(112,112,112)" font-size="19.7448265839" text-anchor="middle" x="0" y="4.93620664598">4</text></g><g transform="translate(336.720568396,124.472285171) scale(1.0,-1.0)"><circle cx="0" cy="0" fill="rgb(188,188,188)" r="19.7448265839" stroke="rgb(112,112,112)" stroke-width="1.97448265839" /><text fill="rgb(112,112,112)" font-size="19.7448265839" text-anchor="middle" x="0" y="4.93620664598">7</text></g><g transform="translate(251.279431604,63.5277148294) scale(1.0,-1.0)"><circle cx="0" cy="0" fill="rgb(188,188,188)" r="19.7448265839" stroke="rgb(112,112,112)" stroke-width="1.97448265839" /><text fill="rgb(112,112,112)" font-size="19.7448265839" text-anchor="middle" x="0" y="4.93620664598">10</text></g><g transform="translate(165.838294812,124.472285171) scale(1.0,-1.0)"><circle cx="0" cy="0" fill="rgb(188,188,188)" r="19.7448265839" stroke="rgb(112,112,112)" stroke-width="1.97448265839" /><text fill="rgb(112,112,112)" font-size="19.7448265839" text-anchor="middle" x="0" y="4.93620664598">13</text></g><g transform="translate(507.602841243,124.472285171) scale(1.0,-1.0)"><circle cx="0" cy="0" fill="rgb(188,188,188)" r="19.7448265839" stroke="rgb(112,112,112)" stroke-width="1.97448265839" /><text fill="rgb(112,112,112)" font-size="19.7448265839" text-anchor="middle" x="0" y="4.93620664598">1</text></g><g transform="translate(80.3971587567,63.5277148294) scale(1.0,-1.0)"><circle cx="0" cy="0" fill="rgb(188,188,188)" r="19.7448265839" stroke="rgb(112,112,112)" stroke-width="1.97448265839" /><text fill="rgb(112,112,112)" font-size="19.7448265839" text-anchor="middle" x="0" y="4.93620664598">16</text></g><line stroke="rgb(132,132,132)" stroke-width="7.0727737017" x1="64.3225890077" x2="28.3347463529" y1="74.9935939589" y2="100.663472559" /><g transform="translate(15.6190419246,109.733496348) scale(1.0,-1.0)"><circle cx="0" cy="0" fill="rgb(255,255,255)" r="15.6190419246" stroke="rgb(153,153,153)" stroke-width="1.56190419246" /><text fill="rgb(153,153,153)" font-size="15.6190419246" text-anchor="middle" x="0" y="3.90476048115">19</text></g><line stroke="rgb(132,132,132)" stroke-width="7.0727737017" x1="559.665253647" x2="523.677410992" y1="87.3365274407" y2="113.006406041" /><line stroke="rgb(112,112,112)" stroke-width="7.89793063357" x1="406.087134747" x2="352.7951381" y1="74.9935940216" y2="113.006405978" /><line stroke="rgb(112,112,112)" stroke-width="7.89793063357" x1="149.763725108" x2="96.4717284611" y1="113.006405978" y2="74.9935940216" /><line stroke="rgb(112,112,112)" stroke-width="7.89793063357" x1="235.204861853" x2="181.912864563" y1="74.993593956" y2="113.006406044" /><line stroke="rgb(112,112,112)" stroke-width="7.89793063357" x1="320.645998645" x2="267.354001355" y1="113.006406044" y2="74.993593956" /><line stroke="rgb(112,112,112)" stroke-width="7.89793063357" x1="491.528271492" x2="438.236274202" y1="113.006406044" y2="74.993593956" /><g transform="translate(572.380958075,78.2665036517) scale(1.0,-1.0)"><circle cx="0" cy="0" fill="rgb(255,255,255)" r="15.6190419246" stroke="rgb(153,153,153)" stroke-width="1.56190419246" /><text fill="rgb(153,153,153)" font-size="15.6190419246" text-anchor="middle" x="0" y="3.90476048115">0</text></g><line stroke="rgb(132,132,132)" stroke-width="7.0727737017" x1="422.161704451" x2="422.161704451" y1="52.0618356999" y2="26.3919570995" /><line stroke="rgb(132,132,132)" stroke-width="7.0727737017" x1="336.720568396" x2="336.720568396" y1="135.9381643" y2="161.6080429" /><line stroke="rgb(132,132,132)" stroke-width="7.0727737017" x1="251.279431604" x2="251.279431604" y1="52.0618356999" y2="26.3919570995" /><line stroke="rgb(132,132,132)" stroke-width="7.0727737017" x1="165.838294812" x2="165.838294812" y1="135.9381643" y2="161.6080429" /><line stroke="rgb(132,132,132)" stroke-width="7.0727737017" x1="507.602841243" x2="507.602841243" y1="135.9381643" y2="161.6080429" /><line stroke="rgb(132,132,132)" stroke-width="7.0727737017" x1="80.3971587567" x2="80.3971587567" y1="52.0618356999" y2="26.3919570995" /><g transform="translate(165.838294812,170.678066689) scale(1.0,-1.0)"><circle cx="0" cy="0" fill="rgb(255,255,255)" r="15.6190419246" stroke="rgb(153,153,153)" stroke-width="1.56190419246" /><text fill="rgb(153,153,153)" font-size="15.6190419246" text-anchor="middle" x="0" y="3.90476048115">14</text></g><g transform="translate(251.279431604,17.3219333105) scale(1.0,-1.0)"><circle cx="0" cy="0" fill="rgb(255,255,255)" r="15.6190419246" stroke="rgb(153,153,153)" stroke-width="1.56190419246" /><text fill="rgb(153,153,153)" font-size="15.6190419246" text-anchor="middle" x="0" y="3.90476048115">11</text></g><g transform="translate(80.3971587567,17.3219333105) scale(1.0,-1.0)"><circle cx="0" cy="0" fill="rgb(255,255,255)" r="15.6190419246" stroke="rgb(153,153,153)" stroke-width="1.56190419246" /><text fill="rgb(153,153,153)" font-size="15.6190419246" text-anchor="middle" x="0" y="3.90476048115">17</text></g><g transform="translate(336.720568396,170.678066689) scale(1.0,-1.0)"><circle cx="0" cy="0" fill="rgb(255,255,255)" r="15.6190419246" stroke="rgb(153,153,153)" stroke-width="1.56190419246" /><text fill="rgb(153,153,153)" font-size="15.6190419246" text-anchor="middle" x="0" y="3.90476048115">8</text></g><g transform="translate(422.161704451,17.3219333105) scale(1.0,-1.0)"><circle cx="0" cy="0" fill="rgb(255,255,255)" r="15.6190419246" stroke="rgb(153,153,153)" stroke-width="1.56190419246" /><text fill="rgb(153,153,153)" font-size="15.6190419246" text-anchor="middle" x="0" y="3.90476048115">5</text></g><g transform="translate(507.602841243,170.678066689) scale(1.0,-1.0)"><circle cx="0" cy="0" fill="rgb(255,255,255)" r="15.6190419246" stroke="rgb(153,153,153)" stroke-width="1.56190419246" /><text fill="rgb(153,153,153)" font-size="15.6190419246" text-anchor="middle" x="0" y="3.90476048115">2</text></g></g><rect fill="rgb(255,255,255)" height="30" rx="2" ry="2" stroke="rgb(50,50,50)" stroke-width="2" width="30" x="520.0" y="10" /><text fill="rgb(50,50,50)" font-size="10" text-anchor="middle" x="527.0" y="20">1</text><text fill="rgb(50,50,50)" font-size="18" text-anchor="middle" x="535.0" y="35">H</text><rect fill="rgb(144,144,144)" height="30" rx="2" ry="2" stroke="rgb(28,28,28)" stroke-width="2" width="30" x="560.0" y="10" /><text fill="rgb(28,28,28)" font-size="10" text-anchor="middle" x="567.0" y="20">6</text><text fill="rgb(28,28,28)" font-size="18" text-anchor="middle" x="575.0" y="35">C</text></g><g transform="translate(600.0,0.0)"><rect fill="rgb(255,255,255)" height="66.0" width="200.0" x="0" y="0" /><g transform="scale(1.0,-1.0) translate(6,-60.0)"><g transform="translate(106.497199143,49.4309063599) scale(1.0,-1.0)"><circle cx="0" cy="0" fill="rgb(165,165,255)" r="4.56909364005" stroke="rgb(99,99,153)" stroke-width="0.456909364005" /></g><g transform="translate(131.491597214,4.56909364005) scale(1.0,-1.0)"><circle cx="0" cy="0" fill="rgb(55,55,255)" r="4.56909364005" stroke="rgb(33,33,153)" stroke-width="0.456909364005" /></g><g transform="translate(56.5084025704,49.4309063599) scale(1.0,-1.0)"><circle cx="0" cy="0" fill="rgb(255,255,255)" r="4.56909364005" stroke="rgb(153,153,153)" stroke-width="0.456909364005" /></g><g transform="translate(81.5028008568,4.56909364005) scale(1.0,-1.0)"><circle cx="0" cy="0" fill="rgb(255,255,255)" r="4.56909364005" stroke="rgb(153,153,153)" stroke-width="0.456909364005" /></g><g transform="translate(31.5140044995,4.56909364005) scale(1.0,-1.0)"><circle cx="0" cy="0" fill="rgb(255,255,255)" r="4.56909364005" stroke="rgb(153,153,153)" stroke-width="0.456909364005" /></g><g transform="translate(156.4859955,49.4309063599) scale(1.0,-1.0)"><circle cx="0" cy="0" fill="rgb(55,55,255)" r="4.56909364005" stroke="rgb(33,33,153)" stroke-width="0.456909364005" /></g><line stroke="rgb(153,153,153)" stroke-width="2.06902353512" x1="56.5084025704" x2="56.5084025704" y1="39.2683197026" y2="46.7776201847" /><line stroke="rgb(153,153,153)" stroke-width="2.06902353512" x1="81.5028008568" x2="81.5028008568" y1="14.7316802974" y2="7.22237981532" /><line stroke="rgb(153,153,153)" stroke-width="2.06902353512" x1="31.5140044995" x2="31.5140044995" y1="14.7316802974" y2="7.22237981532" /><line stroke="rgb(99,99,153)" stroke-width="2.06902353512" x1="106.497199143" x2="106.497199143" y1="39.2683197026" y2="46.7776201847" /><line stroke="rgb(33,33,153)" stroke-width="2.06902353512" x1="131.491597214" x2="131.491597214" y1="14.7316802974" y2="7.22237981532" /><line stroke="rgb(33,33,153)" stroke-width="2.06902353512" x1="156.4859955" x2="156.4859955" y1="39.2683197026" y2="46.7776201847" /><g transform="translate(131.491597214,18.085834519) scale(1.0,-1.0)"><circle cx="0" cy="0" fill="rgb(55,55,255)" r="5.77602403554" stroke="rgb(33,33,153)" stroke-width="0.577602403554" /></g><g transform="translate(106.497199143,35.914165481) scale(1.0,-1.0)"><circle cx="0" cy="0" fill="rgb(165,165,255)" r="5.77602403554" stroke="rgb(99,99,153)" stroke-width="0.577602403554" /></g><g transform="translate(81.5028008568,18.085834519) scale(1.0,-1.0)"><circle cx="0" cy="0" fill="rgb(255,255,255)" r="5.77602403554" stroke="rgb(153,153,153)" stroke-width="0.577602403554" /></g><g transform="translate(56.5084025704,35.914165481) scale(1.0,-1.0)"><circle cx="0" cy="0" fill="rgb(255,255,255)" r="5.77602403554" stroke="rgb(153,153,153)" stroke-width="0.577602403554" /></g><g transform="translate(156.4859955,35.914165481) scale(1.0,-1.0)"><circle cx="0" cy="0" fill="rgb(55,55,255)" r="5.77602403554" stroke="rgb(33,33,153)" stroke-width="0.577602403554" /></g><g transform="translate(31.5140044995,18.085834519) scale(1.0,-1.0)"><circle cx="0" cy="0" fill="rgb(255,255,255)" r="5.77602403554" stroke="rgb(153,153,153)" stroke-width="0.577602403554" /></g><line stroke="rgb(153,153,153)" stroke-width="2.06902353512" x1="26.811653692" x2="16.2840026499" y1="21.4399887405" y2="28.9492892226" /><g transform="translate(12.5642326082,31.6025753979) scale(1.0,-1.0)"><circle cx="0" cy="0" fill="rgb(255,255,255)" r="4.56909364005" stroke="rgb(153,153,153)" stroke-width="0.456909364005" /></g><line stroke="rgb(33,33,153)" stroke-width="2.06902353512" x1="171.71599735" x2="161.188346308" y1="25.0507107774" y2="32.5600112595" /><line stroke="rgb(66,66,153)" stroke-width="2.31040961422" x1="126.78924642" x2="111.199549938" y1="21.4399887589" y2="32.5600112411" /><line stroke="rgb(153,153,153)" stroke-width="2.31040961422" x1="51.8060517759" x2="36.216355294" y1="32.5600112411" y2="21.4399887589" /><line stroke="rgb(153,153,153)" stroke-width="2.31040961422" x1="76.8004500487" x2="61.2107533785" y1="21.4399887397" y2="32.5600112603" /><line stroke="rgb(126,126,153)" stroke-width="2.31040961422" x1="101.794848335" x2="86.2051516649" y1="32.5600112603" y2="21.4399887397" /><line stroke="rgb(33,33,153)" stroke-width="2.31040961422" x1="151.783644692" x2="136.193948022" y1="32.5600112603" y2="21.4399887397" /><g transform="translate(175.435767392,22.3974246021) scale(1.0,-1.0)"><circle cx="0" cy="0" fill="rgb(55,55,255)" r="4.56909364005" stroke="rgb(33,33,153)" stroke-width="0.456909364005" /></g><line stroke="rgb(33,33,153)" stroke-width="2.06902353512" x1="131.491597214" x2="131.491597214" y1="14.7316802974" y2="7.22237981532" /><line stroke="rgb(99,99,153)" stroke-width="2.06902353512" x1="106.497199143" x2="106.497199143" y1="39.2683197026" y2="46.7776201847" /><line stroke="rgb(153,153,153)" stroke-width="2.06902353512" x1="81.5028008568" x2="81.5028008568" y1="14.7316802974" y2="7.22237981532" /><line stroke="rgb(153,153,153)" stroke-width="2.06902353512" x1="56.5084025704" x2="56.5084025704" y1="39.2683197026" y2="46.7776201847" /><line stroke="rgb(33,33,153)" stroke-width="2.06902353512" x1="156.4859955" x2="156.4859955" y1="39.2683197026" y2="46.7776201847" /><line stroke="rgb(153,153,153)" stroke-width="2.06902353512" x1="31.5140044995" x2="31.5140044995" y1="14.7316802974" y2="7.22237981532" /><g transform="translate(56.5084025704,49.4309063599) scale(1.0,-1.0)"><circle cx="0" cy="0" fill="rgb(255,255,255)" r="4.56909364005" stroke="rgb(153,153,153)" stroke-width="0.456909364005" /></g><g transform="translate(81.5028008568,4.56909364005) scale(1.0,-1.0)"><circle cx="0" cy="0" fill="rgb(255,255,255)" r="4.56909364005" stroke="rgb(153,153,153)" stroke-width="0.456909364005" /></g><g transform="translate(31.5140044995,4.56909364005) scale(1.0,-1.0)"><circle cx="0" cy="0" fill="rgb(255,255,255)" r="4.56909364005" stroke="rgb(153,153,153)" stroke-width="0.456909364005" /></g><g transform="translate(106.497199143,49.4309063599) scale(1.0,-1.0)"><circle cx="0" cy="0" fill="rgb(165,165,255)" r="4.56909364005" stroke="rgb(99,99,153)" stroke-width="0.456909364005" /></g><g transform="translate(131.491597214,4.56909364005) scale(1.0,-1.0)"><circle cx="0" cy="0" fill="rgb(55,55,255)" r="4.56909364005" stroke="rgb(33,33,153)" stroke-width="0.456909364005" /></g><g transform="translate(156.4859955,49.4309063599) scale(1.0,-1.0)"><circle cx="0" cy="0" fill="rgb(55,55,255)" r="4.56909364005" stroke="rgb(33,33,153)" stroke-width="0.456909364005" /></g></g></g><g transform="translate(600.0,66.0)"><rect fill="rgb(255,255,255)" height="66.0" width="200.0" x="0" y="0" /><g transform="scale(1.0,-1.0) translate(6,-60.0)"><g transform="translate(106.497199143,49.4309063599) scale(1.0,-1.0)"><circle cx="0" cy="0" fill="rgb(55,55,255)" r="4.56909364005" stroke="rgb(33,33,153)" stroke-width="0.456909364005" /></g><g transform="translate(131.491597214,4.56909364005) scale(1.0,-1.0)"><circle cx="0" cy="0" fill="rgb(165,165,255)" r="4.56909364005" stroke="rgb(99,99,153)" stroke-width="0.456909364005" /></g><g transform="translate(56.5084025704,49.4309063599) scale(1.0,-1.0)"><circle cx="0" cy="0" fill="rgb(165,165,255)" r="4.56909364005" stroke="rgb(99,99,153)" stroke-width="0.456909364005" /></g><g transform="translate(81.5028008568,4.56909364005) scale(1.0,-1.0)"><circle cx="0" cy="0" fill="rgb(55,55,255)" r="4.56909364005" stroke="rgb(33,33,153)" stroke-width="0.456909364005" /></g><g transform="translate(31.5140044995,4.56909364005) scale(1.0,-1.0)"><circle cx="0" cy="0" fill="rgb(255,255,255)" r="4.56909364005" stroke="rgb(153,153,153)" stroke-width="0.456909364005" /></g><g transform="translate(156.4859955,49.4309063599) scale(1.0,-1.0)"><circle cx="0" cy="0" fill="rgb(255,255,255)" r="4.56909364005" stroke="rgb(153,153,153)" stroke-width="0.456909364005" /></g><line stroke="rgb(99,99,153)" stroke-width="2.06902353512" x1="56.5084025704" x2="56.5084025704" y1="39.2683197026" y2="46.7776201847" /><line stroke="rgb(33,33,153)" stroke-width="2.06902353512" x1="81.5028008568" x2="81.5028008568" y1="14.7316802974" y2="7.22237981532" /><line stroke="rgb(153,153,153)" stroke-width="2.06902353512" x1="31.5140044995" x2="31.5140044995" y1="14.7316802974" y2="7.22237981532" /><line stroke="rgb(33,33,153)" stroke-width="2.06902353512" x1="106.497199143" x2="106.497199143" y1="39.2683197026" y2="46.7776201847" /><line stroke="rgb(99,99,153)" stroke-width="2.06902353512" x1="131.491597214" x2="131.491597214" y1="14.7316802974" y2="7.22237981532" /><line stroke="rgb(153,153,153)" stroke-width="2.06902353512" x1="156.4859955" x2="156.4859955" y1="39.2683197026" y2="46.7776201847" /><g transform="translate(131.491597214,18.085834519) scale(1.0,-1.0)"><circle cx="0" cy="0" fill="rgb(165,165,255)" r="5.77602403554" stroke="rgb(99,99,153)" stroke-width="0.577602403554" /></g><g transform="translate(106.497199143,35.914165481) scale(1.0,-1.0)"><circle cx="0" cy="0" fill="rgb(55,55,255)" r="5.77602403554" stroke="rgb(33,33,153)" stroke-width="0.577602403554" /></g><g transform="translate(81.5028008568,18.085834519) scale(1.0,-1.0)"><circle cx="0" cy="0" fill="rgb(55,55,255)" r="5.77602403554" stroke="rgb(33,33,153)" stroke-width="0.577602403554" /></g><g transform="translate(56.5084025704,35.914165481) scale(1.0,-1.0)"><circle cx="0" cy="0" fill="rgb(165,165,255)" r="5.77602403554" stroke="rgb(99,99,153)" stroke-width="0.577602403554" /></g><g transform="translate(156.4859955,35.914165481) scale(1.0,-1.0)"><circle cx="0" cy="0" fill="rgb(255,255,255)" r="5.77602403554" stroke="rgb(153,153,153)" stroke-width="0.577602403554" /></g><g transform="translate(31.5140044995,18.085834519) scale(1.0,-1.0)"><circle cx="0" cy="0" fill="rgb(255,255,255)" r="5.77602403554" stroke="rgb(153,153,153)" stroke-width="0.577602403554" /></g><line stroke="rgb(153,153,153)" stroke-width="2.06902353512" x1="26.811653692" x2="16.2840026499" y1="21.4399887405" y2="28.9492892226" /><g transform="translate(12.5642326082,31.6025753979) scale(1.0,-1.0)"><circle cx="0" cy="0" fill="rgb(255,255,255)" r="4.56909364005" stroke="rgb(153,153,153)" stroke-width="0.456909364005" /></g><line stroke="rgb(153,153,153)" stroke-width="2.06902353512" x1="171.71599735" x2="161.188346308" y1="25.0507107774" y2="32.5600112595" /><line stroke="rgb(66,66,153)" stroke-width="2.31040961422" x1="126.78924642" x2="111.199549938" y1="21.4399887589" y2="32.5600112411" /><line stroke="rgb(126,126,153)" stroke-width="2.31040961422" x1="51.8060517759" x2="36.216355294" y1="32.5600112411" y2="21.4399887589" /><line stroke="rgb(66,66,153)" stroke-width="2.31040961422" x1="76.8004500487" x2="61.2107533785" y1="21.4399887397" y2="32.5600112603" /><line stroke="rgb(33,33,153)" stroke-width="2.31040961422" x1="101.794848335" x2="86.2051516649" y1="32.5600112603" y2="21.4399887397" /><line stroke="rgb(126,126,153)" stroke-width="2.31040961422" x1="151.783644692" x2="136.193948022" y1="32.5600112603" y2="21.4399887397" /><g transform="translate(175.435767392,22.3974246021) scale(1.0,-1.0)"><circle cx="0" cy="0" fill="rgb(255,255,255)" r="4.56909364005" stroke="rgb(153,153,153)" stroke-width="0.456909364005" /></g><line stroke="rgb(99,99,153)" stroke-width="2.06902353512" x1="131.491597214" x2="131.491597214" y1="14.7316802974" y2="7.22237981532" /><line stroke="rgb(33,33,153)" stroke-width="2.06902353512" x1="106.497199143" x2="106.497199143" y1="39.2683197026" y2="46.7776201847" /><line stroke="rgb(33,33,153)" stroke-width="2.06902353512" x1="81.5028008568" x2="81.5028008568" y1="14.7316802974" y2="7.22237981532" /><line stroke="rgb(99,99,153)" stroke-width="2.06902353512" x1="56.5084025704" x2="56.5084025704" y1="39.2683197026" y2="46.7776201847" /><line stroke="rgb(153,153,153)" stroke-width="2.06902353512" x1="156.4859955" x2="156.4859955" y1="39.2683197026" y2="46.7776201847" /><line stroke="rgb(153,153,153)" stroke-width="2.06902353512" x1="31.5140044995" x2="31.5140044995" y1="14.7316802974" y2="7.22237981532" /><g transform="translate(56.5084025704,49.4309063599) scale(1.0,-1.0)"><circle cx="0" cy="0" fill="rgb(165,165,255)" r="4.56909364005" stroke="rgb(99,99,153)" stroke-width="0.456909364005" /></g><g transform="translate(81.5028008568,4.56909364005) scale(1.0,-1.0)"><circle cx="0" cy="0" fill="rgb(55,55,255)" r="4.56909364005" stroke="rgb(33,33,153)" stroke-width="0.456909364005" /></g><g transform="translate(31.5140044995,4.56909364005) scale(1.0,-1.0)"><circle cx="0" cy="0" fill="rgb(255,255,255)" r="4.56909364005" stroke="rgb(153,153,153)" stroke-width="0.456909364005" /></g><g transform="translate(106.497199143,49.4309063599) scale(1.0,-1.0)"><circle cx="0" cy="0" fill="rgb(55,55,255)" r="4.56909364005" stroke="rgb(33,33,153)" stroke-width="0.456909364005" /></g><g transform="translate(131.491597214,4.56909364005) scale(1.0,-1.0)"><circle cx="0" cy="0" fill="rgb(165,165,255)" r="4.56909364005" stroke="rgb(99,99,153)" stroke-width="0.456909364005" /></g><g transform="translate(156.4859955,49.4309063599) scale(1.0,-1.0)"><circle cx="0" cy="0" fill="rgb(255,255,255)" r="4.56909364005" stroke="rgb(153,153,153)" stroke-width="0.456909364005" /></g></g></g><g transform="translate(600.0,132.0)"><rect fill="rgb(255,255,255)" height="66.0" width="200.0" x="0" y="0" /><g transform="scale(1.0,-1.0) translate(6,-60.0)"><g transform="translate(106.497199143,49.4309063599) scale(1.0,-1.0)"><circle cx="0" cy="0" fill="rgb(255,255,255)" r="4.56909364005" stroke="rgb(153,153,153)" stroke-width="0.456909364005" /></g><g transform="translate(131.491597214,4.56909364005) scale(1.0,-1.0)"><circle cx="0" cy="0" fill="rgb(255,255,255)" r="4.56909364005" stroke="rgb(153,153,153)" stroke-width="0.456909364005" /></g><g transform="translate(56.5084025704,49.4309063599) scale(1.0,-1.0)"><circle cx="0" cy="0" fill="rgb(55,55,255)" r="4.56909364005" stroke="rgb(33,33,153)" stroke-width="0.456909364005" /></g><g transform="translate(81.5028008568,4.56909364005) scale(1.0,-1.0)"><circle cx="0" cy="0" fill="rgb(165,165,255)" r="4.56909364005" stroke="rgb(99,99,153)" stroke-width="0.456909364005" /></g><g transform="translate(31.5140044995,4.56909364005) scale(1.0,-1.0)"><circle cx="0" cy="0" fill="rgb(55,55,255)" r="4.56909364005" stroke="rgb(33,33,153)" stroke-width="0.456909364005" /></g><g transform="translate(156.4859955,49.4309063599) scale(1.0,-1.0)"><circle cx="0" cy="0" fill="rgb(255,255,255)" r="4.56909364005" stroke="rgb(153,153,153)" stroke-width="0.456909364005" /></g><line stroke="rgb(33,33,153)" stroke-width="2.06902353512" x1="56.5084025704" x2="56.5084025704" y1="39.2683197026" y2="46.7776201847" /><line stroke="rgb(99,99,153)" stroke-width="2.06902353512" x1="81.5028008568" x2="81.5028008568" y1="14.7316802974" y2="7.22237981532" /><line stroke="rgb(33,33,153)" stroke-width="2.06902353512" x1="31.5140044995" x2="31.5140044995" y1="14.7316802974" y2="7.22237981532" /><line stroke="rgb(153,153,153)" stroke-width="2.06902353512" x1="106.497199143" x2="106.497199143" y1="39.2683197026" y2="46.7776201847" /><line stroke="rgb(153,153,153)" stroke-width="2.06902353512" x1="131.491597214" x2="131.491597214" y1="14.7316802974" y2="7.22237981532" /><line stroke="rgb(153,153,153)" stroke-width="2.06902353512" x1="156.4859955" x2="156.4859955" y1="39.2683197026" y2="46.7776201847" /><g transform="translate(131.491597214,18.085834519) scale(1.0,-1.0)"><circle cx="0" cy="0" fill="rgb(255,255,255)" r="5.77602403554" stroke="rgb(153,153,153)" stroke-width="0.577602403554" /></g><g transform="translate(106.497199143,35.914165481) scale(1.0,-1.0)"><circle cx="0" cy="0" fill="rgb(255,255,255)" r="5.77602403554" stroke="rgb(153,153,153)" stroke-width="0.577602403554" /></g><g transform="translate(81.5028008568,18.085834519) scale(1.0,-1.0)"><circle cx="0" cy="0" fill="rgb(165,165,255)" r="5.77602403554" stroke="rgb(99,99,153)" stroke-width="0.577602403554" /></g><g transform="translate(56.5084025704,35.914165481) scale(1.0,-1.0)"><circle cx="0" cy="0" fill="rgb(55,55,255)" r="5.77602403554" stroke="rgb(33,33,153)" stroke-width="0.577602403554" /></g><g transform="translate(156.4859955,35.914165481) scale(1.0,-1.0)"><circle cx="0" cy="0" fill="rgb(255,255,255)" r="5.77602403554" stroke="rgb(153,153,153)" stroke-width="0.577602403554" /></g><g transform="translate(31.5140044995,18.085834519) scale(1.0,-1.0)"><circle cx="0" cy="0" fill="rgb(55,55,255)" r="5.77602403554" stroke="rgb(33,33,153)" stroke-width="0.577602403554" /></g><line stroke="rgb(33,33,153)" stroke-width="2.06902353512" x1="26.811653692" x2="16.2840026499" y1="21.4399887405" y2="28.9492892226" /><g transform="translate(12.5642326082,31.6025753979) scale(1.0,-1.0)"><circle cx="0" cy="0" fill="rgb(55,55,255)" r="4.56909364005" stroke="rgb(33,33,153)" stroke-width="0.456909364005" /></g><line stroke="rgb(153,153,153)" stroke-width="2.06902353512" x1="171.71599735" x2="161.188346308" y1="25.0507107774" y2="32.5600112595" /><line stroke="rgb(153,153,153)" stroke-width="2.31040961422" x1="126.78924642" x2="111.199549938" y1="21.4399887589" y2="32.5600112411" /><line stroke="rgb(33,33,153)" stroke-width="2.31040961422" x1="51.8060517759" x2="36.216355294" y1="32.5600112411" y2="21.4399887589" /><line stroke="rgb(66,66,153)" stroke-width="2.31040961422" x1="76.8004500487" x2="61.2107533785" y1="21.4399887397" y2="32.5600112603" /><line stroke="rgb(126,126,153)" stroke-width="2.31040961422" x1="101.794848335" x2="86.2051516649" y1="32.5600112603" y2="21.4399887397" /><line stroke="rgb(153,153,153)" stroke-width="2.31040961422" x1="151.783644692" x2="136.193948022" y1="32.5600112603" y2="21.4399887397" /><g transform="translate(175.435767392,22.3974246021) scale(1.0,-1.0)"><circle cx="0" cy="0" fill="rgb(255,255,255)" r="4.56909364005" stroke="rgb(153,153,153)" stroke-width="0.456909364005" /></g><line stroke="rgb(153,153,153)" stroke-width="2.06902353512" x1="131.491597214" x2="131.491597214" y1="14.7316802974" y2="7.22237981532" /><line stroke="rgb(153,153,153)" stroke-width="2.06902353512" x1="106.497199143" x2="106.497199143" y1="39.2683197026" y2="46.7776201847" /><line stroke="rgb(99,99,153)" stroke-width="2.06902353512" x1="81.5028008568" x2="81.5028008568" y1="14.7316802974" y2="7.22237981532" /><line stroke="rgb(33,33,153)" stroke-width="2.06902353512" x1="56.5084025704" x2="56.5084025704" y1="39.2683197026" y2="46.7776201847" /><line stroke="rgb(153,153,153)" stroke-width="2.06902353512" x1="156.4859955" x2="156.4859955" y1="39.2683197026" y2="46.7776201847" /><line stroke="rgb(33,33,153)" stroke-width="2.06902353512" x1="31.5140044995" x2="31.5140044995" y1="14.7316802974" y2="7.22237981532" /><g transform="translate(56.5084025704,49.4309063599) scale(1.0,-1.0)"><circle cx="0" cy="0" fill="rgb(55,55,255)" r="4.56909364005" stroke="rgb(33,33,153)" stroke-width="0.456909364005" /></g><g transform="translate(81.5028008568,4.56909364005) scale(1.0,-1.0)"><circle cx="0" cy="0" fill="rgb(165,165,255)" r="4.56909364005" stroke="rgb(99,99,153)" stroke-width="0.456909364005" /></g><g transform="translate(31.5140044995,4.56909364005) scale(1.0,-1.0)"><circle cx="0" cy="0" fill="rgb(55,55,255)" r="4.56909364005" stroke="rgb(33,33,153)" stroke-width="0.456909364005" /></g><g transform="translate(106.497199143,49.4309063599) scale(1.0,-1.0)"><circle cx="0" cy="0" fill="rgb(255,255,255)" r="4.56909364005" stroke="rgb(153,153,153)" stroke-width="0.456909364005" /></g><g transform="translate(131.491597214,4.56909364005) scale(1.0,-1.0)"><circle cx="0" cy="0" fill="rgb(255,255,255)" r="4.56909364005" stroke="rgb(153,153,153)" stroke-width="0.456909364005" /></g><g transform="translate(156.4859955,49.4309063599) scale(1.0,-1.0)"><circle cx="0" cy="0" fill="rgb(255,255,255)" r="4.56909364005" stroke="rgb(153,153,153)" stroke-width="0.456909364005" /></g></g></g></svg>