<?xml version="1.0" encoding="utf-8" ?>
<svg baseProfile="full" height="200" version="1.1" width="800" xmlns="http://www.w3.org/2000/svg" xmlns:ev="http://www.w3.org/2001/xml-events" xmlns:xlink="http://www.w3.org/1999/xlink"><defs /><g transform="translate(0.0,0.0)"><rect fill="rgb(255,255,255)" height="200.0" width="640.0" x="0" y="0" /><g transform="scale(1.0,-1.0) translate(6,-194.0)"><g transform="translate(444.526301787,172.092785105) scale(1.0,-1.0)"><circle cx="0" cy="0" fill="rgb(255,255,255)" r="15.907214895" stroke="rgb(153,153,153)" stroke-width="1.5907214895" /><text fill="rgb(153,153,153)" font-size="15.907214895" text-anchor="middle" x="0" y="3.97680372375">3</text></g><g transform="translate(357.508767012,15.907214895) scale(1.0,-1.0)"><circle cx="0" cy="0" fill="rgb(255,255,255)" r="15.907214895" stroke="rgb(153,153,153)" stroke-width="1.5907214895" /><text fill="rgb(153,153,153)" font-size="15.907214895" text-anchor="middle" x="0" y="3.97680372375">6</text></g><g transform="translate(270.491232988,172.092785105) scale(1.0,-1.0)"><circle cx="0" cy="0" fill="rgb(255,255,255)" r="15.907214895" stroke="rgb(153,153,153)" stroke-width="1.5907214895" /><text fill="rgb(153,153,153)" font-size="15.907214895" text-anchor="middle" x="0" y="3.97680372375">9</text></g><g transform="translate(183.473698213,15.907214895) scale(1.0,-1.0)"><circle cx="0" cy="0" fill="rgb(255,255,255)" r="15.907214895" stroke="rgb(153,153,153)" stroke-width="1.5907214895" /><text fill="rgb(153,153,153)" font-size="15.907214895" text-anchor="middle" x="0" y="3.97680372375">12</text></g><line stroke="rgb(132,132,132)" stroke-width="7.20326712227" x1="183.473698213" x2="183.473698213" y1="51.2880721465" y2="25.1445815793" /><line stroke="rgb(132,132,132)" stroke-width="7.20326712227" x1="270.491232988" x2="270.491232988" y1="136.711927853" y2="162.855418421" /><line stroke="rgb(132,132,132)" stroke-width="7.20326712227" x1="357.508767012" x2="357.508767012" y1="51.2880721465" y2="25.1445815793" /><line stroke="rgb(132,132,132)" stroke-width="7.20326712227" x1="444.526301787" x2="444.526301787" y1="136.711927853" y2="162.855418421" /><line stroke="rgb(132,132,132)" stroke-width="7.20326712227" x1="167.102550957" x2="130.450728811" y1="74.6429237634" y2="100.786414331" /><g transform="translate(444.526301787,125.034502045) scale(1.0,-1.0)"><circle cx="0" cy="0" fill="rgb(188,188,188)" r="20.1091207163" stroke="rgb(112,112,112)" stroke-width="2.01091207163" /><text fill="rgb(112,112,112)" font-size="20.1091207163" text-anchor="middle" x="0" y="5.02728017908">1</text></g><g transform="translate(357.508767012,62.9654979549) scale(1.0,-1.0)"><circle cx="0" cy="0" fill="rgb(188,188,188)" r="20.1091207163" stroke="rgb(112,112,112)" stroke-width="2.01091207163" /><text fill="rgb(112,112,112)" font-size="20.1091207163" text-anchor="middle" x="0" y="5.02728017908">4</text></g><g transform="translate(270.491232988,125.034502045) scale(1.0,-1.0)"><circle cx="0" cy="0" fill="rgb(188,188,188)" r="20.1091207163" stroke="rgb(112,112,112)" stroke-width="2.01091207163" /><text fill="rgb(112,112,112)" font-size="20.1091207163" text-anchor="middle" x="0" y="5.02728017908">7</text></g><g transform="translate(183.473698213,62.9654979549) scale(1.0,-1.0)"><circle cx="0" cy="0" fill="rgb(188,188,188)" r="20.1091207163" stroke="rgb(112,112,112)" stroke-width="2.01091207163" /><text fill="rgb(112,112,112)" font-size="20.1091207163" text-anchor="middle" x="0" y="5.02728017908">10</text></g><g transform="translate(117.500418295,110.023781015) scale(1.0,-1.0)"><circle cx="0" cy="0" fill="rgb(255,255,255)" r="15.907214895" stroke="rgb(153,153,153)" stroke-width="1.5907214895" /><text fill="rgb(153,153,153)" font-size="15.907214895" text-anchor="middle" x="0" y="3.97680372375">13</text></g><line stroke="rgb(132,132,132)" stroke-width="7.20326712227" x1="497.549271189" x2="460.897449043" y1="87.2135856694" y2="113.357076237" /><line stroke="rgb(112,112,112)" stroke-width="8.04364828653" x1="428.155154529" x2="373.87991427" y1="113.35707624" y2="74.6429237604" /><line stroke="rgb(112,112,112)" stroke-width="8.04364828653" x1="341.137619802" x2="286.862380198" y1="74.6429238272" y2="113.357076173" /><line stroke="rgb(112,112,112)" stroke-width="8.04364828653" x1="254.12008573" x2="199.844845471" y1="113.35707624" y2="74.6429237604" /><g transform="translate(510.499581705,77.9762189851) scale(1.0,-1.0)"><circle cx="0" cy="0" fill="rgb(255,255,255)" r="15.907214895" stroke="rgb(153,153,153)" stroke-width="1.5907214895" /><text fill="rgb(153,153,153)" font-size="15.907214895" text-anchor="middle" x="0" y="3.97680372375">0</text></g><line stroke="rgb(132,132,132)" stroke-width="7.20326712227" x1="444.526301787" x2="444.526301787" y1="136.711927853" y2="162.855418421" /><line stroke="rgb(132,132,132)" stroke-width="7.20326712227" x1="357.508767012" x2="357.508767012" y1="51.2880721465" y2="25.1445815793" /><line stroke="rgb(132,132,132)" stroke-width="7.20326712227" x1="270.491232988" x2="270.491232988" y1="136.711927853" y2="162.855418421" /><line stroke="rgb(132,132,132)" stroke-width="7.20326712227" x1="183.473698213" x2="183.473698213" y1="51.2880721465" y2="25.1445815793" /><g transform="translate(183.473698213,15.907214895) scale(1.0,-1.0)"><circle cx="0" cy="0" fill="rgb(255,255,255)" r="15.907214895" stroke="rgb(153,153,153)" stroke-width="1.5907214895" /><text fill="rgb(153,153,153)" font-size="15.907214895" text-anchor="middle" x="0" y="3.97680372375">11</text></g><g transform="translate(270.491232988,172.092785105) scale(1.0,-1.0)"><circle cx="0" cy="0" fill="rgb(255,255,255)" r="15.907214895" stroke="rgb(153,153,153)" stroke-width="1.5907214895" /><text fill="rgb(153,153,153)" font-size="15.907214895" text-anchor="middle" x="0" y="3.97680372375">8</text></g><g transform="translate(357.508767012,15.907214895) scale(1.0,-1.0)"><circle cx="0" cy="0" fill="rgb(255,255,255)" r="15.907214895" stroke="rgb(153,153,153)" stroke-width="1.5907214895" /><text fill="rgb(153,153,153)" font-size="15.907214895" text-anchor="middle" x="0" y="3.97680372375">5</text></g><g transform="translate(444.526301787,172.092785105) scale(1.0,-1.0)"><circle cx="0" cy="0" fill="rgb(255,255,255)" r="15.907214895" stroke="rgb(153,153,153)" stroke-width="1.5907214895" /><text fill="rgb(153,153,153)" font-size="15.907214895" text-anchor="middle" x="0" y="3.97680372375">2</text></g></g><rect fill="rgb(255,255,255)" height="30" rx="2" ry="2" stroke="rgb(50,50,50)" stroke-width="2" width="30" x="560.0" y="10" /><text fill="rgb(50,50,50)" font-size="10" text-anchor="middle" x="567.0" y="20">1</text><text fill="rgb(50,50,50)" font-size="18" text-anchor="middle" x="575.0" y="35">H</text><rect fill="rgb(144,144,144)" height="30" rx="2" ry="2" stroke="rgb(28,28,28)" stroke-width="2" width="30" x="600.0" y="10" /><text fill="rgb(28,28,28)" font-size="10" text-anchor="middle" x="607.0" y="20">6</text><text fill="rgb(28,28,28)" font-size="18" text-anchor="middle" x="615.0" y="35">C</text></g><g transform="translate(640.0,0.0)"><rect fill="rgb(255,255,255)" height="50.0" width="160.0" x="0" y="0" /><g transform="scale(1.0,-1.0) translate(6,-44.0)"><g transform="translate(100.382975893,34.7847118829) scale(1.0,-1.0)"><circle cx="0" cy="0" fill="rgb(55,55,255)" r="3.21528811707" stroke="rgb(33,33,153)" stroke-width="0.321528811707" /></g><g transform="translate(82.7943252472,3.21528811707) scale(1.0,-1.0)"><circle cx="0" cy="0" fill="rgb(165,165,255)" r="3.21528811707" stroke="rgb(99,99,153)" stroke-width="0.321528811707" /></g><g transform="translate(65.2056747528,34.7847118829) scale(1.0,-1.0)"><circle cx="0" cy="0" fill="rgb(165,165,255)" r="3.21528811707" stroke="rgb(99,99,153)" stroke-width="0.321528811707" /></g><g transform="translate(47.6170241068,3.21528811707) scale(1.0,-1.0)"><circle cx="0" cy="0" fill="rgb(255,255,255)" r="3.21528811707" stroke="rgb(153,153,153)" stroke-width="0.321528811707" /></g><line stroke="rgb(153,153,153)" stroke-width="1.45597952471" x1="47.6170241068" x2="47.6170241068" y1="10.3667379871" y2="5.0824154256" /><line stroke="rgb(99,99,153)" stroke-width="1.45597952471" x1="65.2056747528" x2="65.2056747528" y1="27.6332620129" y2="32.9175845744" /><line stroke="rgb(99,99,153)" stroke-width="1.45597952471" x1="82.7943252472" x2="82.7943252472" y1="10.3667379871" y2="5.0824154256" /><line stroke="rgb(33,33,153)" stroke-width="1.45597952471" x1="100.382975893" x2="100.382975893" y1="27.6332620129" y2="32.9175845744" /><line stroke="rgb(153,153,153)" stroke-width="1.45597952471" x1="44.3079624275" x2="36.8996153979" y1="15.0873994841" y2="20.3717220455" /><g transform="translate(100.382975893,25.2729312644) scale(1.0,-1.0)"><circle cx="0" cy="0" fill="rgb(55,55,255)" r="4.06460950649" stroke="rgb(33,33,153)" stroke-width="0.406460950649" /></g><g transform="translate(82.7943252472,12.7270687356) scale(1.0,-1.0)"><circle cx="0" cy="0" fill="rgb(165,165,255)" r="4.06460950649" stroke="rgb(99,99,153)" stroke-width="0.406460950649" /></g><g transform="translate(65.2056747528,25.2729312644) scale(1.0,-1.0)"><circle cx="0" cy="0" fill="rgb(165,165,255)" r="4.06460950649" stroke="rgb(99,99,153)" stroke-width="0.406460950649" /></g><g transform="translate(47.6170241068,12.7270687356) scale(1.0,-1.0)"><circle cx="0" cy="0" fill="rgb(255,255,255)" r="4.06460950649" stroke="rgb(153,153,153)" stroke-width="0.406460950649" /></g><g transform="translate(34.2819994426,22.2388493541) scale(1.0,-1.0)"><circle cx="0" cy="0" fill="rgb(255,255,255)" r="3.21528811707" stroke="rgb(153,153,153)" stroke-width="0.321528811707" /></g><line stroke="rgb(33,33,153)" stroke-width="1.45597952471" x1="111.100384602" x2="103.692037573" y1="17.6282779545" y2="22.9126005159" /><line stroke="rgb(66,66,153)" stroke-width="1.6258438026" x1="97.0739142134" x2="86.103386927" y1="22.9126005165" y2="15.0873994835" /><line stroke="rgb(99,99,153)" stroke-width="1.6258438026" x1="79.485263577" x2="68.514736423" y1="15.087399497" y2="22.912600503" /><line stroke="rgb(126,126,153)" stroke-width="1.6258438026" x1="61.896613073" x2="50.9260857866" y1="22.9126005165" y2="15.0873994835" /><g transform="translate(113.718000557,15.7611506459) scale(1.0,-1.0)"><circle cx="0" cy="0" fill="rgb(55,55,255)" r="3.21528811707" stroke="rgb(33,33,153)" stroke-width="0.321528811707" /></g><line stroke="rgb(33,33,153)" stroke-width="1.45597952471" x1="100.382975893" x2="100.382975893" y1="27.6332620129" y2="32.9175845744" /><line stroke="rgb(99,99,153)" stroke-width="1.45597952471" x1="82.7943252472" x2="82.7943252472" y1="10.3667379871" y2="5.0824154256" /><line stroke="rgb(99,99,153)" stroke-width="1.45597952471" x1="65.2056747528" x2="65.2056747528" y1="27.6332620129" y2="32.9175845744" /><line stroke="rgb(153,153,153)" stroke-width="1.45597952471" x1="47.6170241068" x2="47.6170241068" y1="10.3667379871" y2="5.0824154256" /><g transform="translate(47.6170241068,3.21528811707) scale(1.0,-1.0)"><circle cx="0" cy="0" fill="rgb(255,255,255)" r="3.21528811707" stroke="rgb(153,153,153)" stroke-width="0.321528811707" /></g><g transform="translate(65.2056747528,34.7847118829) scale(1.0,-1.0)"><circle cx="0" cy="0" fill="rgb(165,165,255)" r="3.21528811707" stroke="rgb(99,99,153)" stroke-width="0.321528811707" /></g><g transform="translate(82.7943252472,3.21528811707) scale(1.0,-1.0)"><circle cx="0" cy="0" fill="rgb(165,165,255)" r="3.21528811707" stroke="rgb(99,99,153)" stroke-width="0.321528811707" /></g><g transform="translate(100.382975893,34.7847118829) scale(1.0,-1.0)"><circle cx="0" cy="0" fill="rgb(55,55,255)" r="3.21528811707" stroke="rgb(33,33,153)" stroke-width="0.321528811707" /></g></g></g><g transform="translate(640.0,50.0)"><rect fill="rgb(255,255,255)" height="50.0" width="160.0" x="0" y="0" /><g transform="scale(1.0,-1.0) translate(6,-44.0)"><g transform="translate(100.382975893,34.7847118829) scale(1.0,-1.0)"><circle cx="0" cy="0" fill="rgb(165,165,255)" r="3.21528811707" stroke="rgb(99,99,153)" stroke-width="0.321528811707" /></g><g transform="translate(82.7943252472,3.21528811707) scale(1.0,-1.0)"><circle cx="0" cy="0" fill="rgb(55,55,255)" r="3.21528811707" stroke="rgb(33,33,153)" stroke-width="0.321528811707" /></g><g transform="translate(65.2056747528,34.7847118829) scale(1.0,-1.0)"><circle cx="0" cy="0" fill="rgb(165,165,255)" r="3.21528811707" stroke="rgb(99,99,153)" stroke-width="0.321528811707" /></g><g transform="translate(47.6170241068,3.21528811707) scale(1.0,-1.0)"><circle cx="0" cy="0" fill="rgb(165,165,255)" r="3.21528811707" stroke="rgb(99,99,153)" stroke-width="0.321528811707" /></g><line stroke="rgb(99,99,153)" stroke-width="1.45597952471" x1="47.6170241068" x2="47.6170241068" y1="10.3667379871" y2="5.0824154256" /><line stroke="rgb(99,99,153)" stroke-width="1.45597952471" x1="65.2056747528" x2="65.2056747528" y1="27.6332620129" y2="32.9175845744" /><line stroke="rgb(33,33,153)" stroke-width="1.45597952471" x1="82.7943252472" x2="82.7943252472" y1="10.3667379871" y2="5.0824154256" /><line stroke="rgb(99,99,153)" stroke-width="1.45597952471" x1="100.382975893" x2="100.382975893" y1="27.6332620129" y2="32.9175845744" /><line stroke="rgb(99,99,153)" stroke-width="1.45597952471" x1="44.3079624275" x2="36.8996153979" y1="15.0873994841" y2="20.3717220455" /><g transform="translate(100.382975893,25.2729312644) scale(1.0,-1.0)"><circle cx="0" cy="0" fill="rgb(165,165,255)" r="4.06460950649" stroke="rgb(99,99,153)" stroke-width="0.406460950649" /></g><g transform="translate(82.7943252472,12.7270687356) scale(1.0,-1.0)"><circle cx="0" cy="0" fill="rgb(55,55,255)" r="4.06460950649" stroke="rgb(33,33,153)" stroke-width="0.406460950649" /></g><g transform="translate(65.2056747528,25.2729312644) scale(1.0,-1.0)"><circle cx="0" cy="0" fill="rgb(165,165,255)" r="4.06460950649" stroke="rgb(99,99,153)" stroke-width="0.406460950649" /></g><g transform="translate(47.6170241068,12.7270687356) scale(1.0,-1.0)"><circle cx="0" cy="0" fill="rgb(165,165,255)" r="4.06460950649" stroke="rgb(99,99,153)" stroke-width="0.406460950649" /></g><g transform="translate(34.2819994426,22.2388493541) scale(1.0,-1.0)"><circle cx="0" cy="0" fill="rgb(165,165,255)" r="3.21528811707" stroke="rgb(99,99,153)" stroke-width="0.321528811707" /></g><line stroke="rgb(99,99,153)" stroke-width="1.45597952471" x1="111.100384602" x2="103.692037573" y1="17.6282779545" y2="22.9126005159" /><line stroke="rgb(66,66,153)" stroke-width="1.6258438026" x1="97.0739142134" x2="86.103386927" y1="22.9126005165" y2="15.0873994835" /><line stroke="rgb(66,66,153)" stroke-width="1.6258438026" x1="79.485263577" x2="68.514736423" y1="15.087399497" y2="22.912600503" /><line stroke="rgb(99,99,153)" stroke-width="1.6258438026" x1="61.896613073" x2="50.9260857866" y1="22.9126005165" y2="15.0873994835" /><g transform="translate(113.718000557,15.7611506459) scale(1.0,-1.0)"><circle cx="0" cy="0" fill="rgb(165,165,255)" r="3.21528811707" stroke="rgb(99,99,153)" stroke-width="0.321528811707" /></g><line stroke="rgb(99,99,153)" stroke-width="1.45597952471" x1="100.382975893" x2="100.382975893" y1="27.6332620129" y2="32.9175845744" /><line stroke="rgb(33,33,153)" stroke-width="1.45597952471" x1="82.7943252472" x2="82.7943252472" y1="10.3667379871" y2="5.0824154256" /><line stroke="rgb(99,99,153)" stroke-width="1.45597952471" x1="65.2056747528" x2="65.2056747528" y1="27.6332620129" y2="32.9175845744" /><line stroke="rgb(99,99,153)" stroke-width="1.45597952471" x1="47.6170241068" x2="47.6170241068" y1="10.3667379871" y2="5.0824154256" /><g transform="translate(47.6170241068,3.21528811707) scale(1.0,-1.0)"><circle cx="0" cy="0" fill="rgb(165,165,255)" r="3.21528811707" stroke="rgb(99,99,153)" stroke-width="0.321528811707" /></g><g transform="translate(65.2056747528,34.7847118829) scale(1.0,-1.0)"><circle cx="0" cy="0" fill="rgb(165,165,255)" r="3.21528811707" stroke="rgb(99,99,153)" stroke-width="0.321528811707" /></g><g transform="translate(82.7943252472,3.21528811707) scale(1.0,-1.0)"><circle cx="0" cy="0" fill="rgb(55,55,255)" r="3.21528811707" stroke="rgb(33,33,153)" stroke-width="0.321528811707" /></g><g transform="translate(100.382975893,34.7847118829) scale(1.0,-1.0)"><circle cx="0" cy="0" fill="rgb(165,165,255)" r="3.21528811707" stroke="rgb(99,99,153)" stroke-width="0.321528811707" /></g></g></g><g transform="translate(640.0,100.0)"><rect fill="rgb(255,255,255)" height="50.0" width="160.0" x="0" y="0" /><g transform="scale(1.0,-1.0) translate(6,-44.0)"><g transform="translate(100.382975893,34.7847118829) scale(1.0,-1.0)"><circle cx="0" cy="0" fill="rgb(165,165,255)" r="3.21528811707" stroke="rgb(99,99,153)" stroke-width="0.321528811707" /></g><g transform="translate(82.7943252472,3.21528811707) scale(1.0,-1.0)"><circle cx="0" cy="0" fill="rgb(165,165,255)" r="3.21528811707" stroke="rgb(99,99,153)" stroke-width="0.321528811707" /></g><g transform="translate(65.2056747528,34.7847118829) scale(1.0,-1.0)"><circle cx="0" cy="0" fill="rgb(55,55,255)" r="3.21528811707" stroke="rgb(33,33,153)" stroke-width="0.321528811707" /></g><g transform="translate(47.6170241068,3.21528811707) scale(1.0,-1.0)"><circle cx="0" cy="0" fill="rgb(165,165,255)" r="3.21528811707" stroke="rgb(99,99,153)" stroke-width="0.321528811707" /></g><line stroke="rgb(99,99,153)" stroke-width="1.45597952471" x1="47.6170241068" x2="47.6170241068" y1="10.3667379871" y2="5.0824154256" /><line stroke="rgb(33,33,153)" stroke-width="1.45597952471" x1="65.2056747528" x2="65.2056747528" y1="27.6332620129" y2="32.9175845744" /><line stroke="rgb(99,99,153)" stroke-width="1.45597952471" x1="82.7943252472" x2="82.7943252472" y1="10.3667379871" y2="5.0824154256" /><line stroke="rgb(99,99,153)" stroke-width="1.45597952471" x1="100.382975893" x2="100.382975893" y1="27.6332620129" y2="32.9175845744" /><line stroke="rgb(99,99,153)" stroke-width="1.45597952471" x1="44.3079624275" x2="36.8996153979" y1="15.0873994841" y2="20.3717220455" /><g transform="translate(100.382975893,25.2729312644) scale(1.0,-1.0)"><circle cx="0" cy="0" fill="rgb(165,165,255)" r="4.06460950649" stroke="rgb(99,99,153)" stroke-width="0.406460950649" /></g><g transform="translate(82.7943252472,12.7270687356) scale(1.0,-1.0)"><circle cx="0" cy="0" fill="rgb(165,165,255)" r="4.06460950649" stroke="rgb(99,99,153)" stroke-width="0.406460950649" /></g><g transform="translate(65.2056747528,25.2729312644) scale(1.0,-1.0)"><circle cx="0" cy="0" fill="rgb(55,55,255)" r="4.06460950649" stroke="rgb(33,33,153)" stroke-width="0.406460950649" /></g><g transform="translate(47.6170241068,12.7270687356) scale(1.0,-1.0)"><circle cx="0" cy="0" fill="rgb(165,165,255)" r="4.06460950649" stroke="rgb(99,99,153)" stroke-width="0.406460950649" /></g><g transform="translate(34.2819994426,22.2388493541) scale(1.0,-1.0)"><circle cx="0" cy="0" fill="rgb(165,165,255)" r="3.21528811707" stroke="rgb(99,99,153)" stroke-width="0.321528811707" /></g><line stroke="rgb(99,99,153)" stroke-width="1.45597952471" x1="111.100384602" x2="103.692037573" y1="17.6282779545" y2="22.9126005159" /><line stroke="rgb(99,99,153)" stroke-width="1.6258438026" x1="97.0739142134" x2="86.103386927" y1="22.9126005165" y2="15.0873994835" /><line stroke="rgb(66,66,153)" stroke-width="1.6258438026" x1="79.485263577" x2="68.514736423" y1="15.087399497" y2="22.912600503" /><line stroke="rgb(66,66,153)" stroke-width="1.6258438026" x1="61.896613073" x2="50.9260857866" y1="22.9126005165" y2="15.0873994835" /><g transform="translate(113.718000557,15.7611506459) scale(1.0,-1.0)"><circle cx="0" cy="0" fill="rgb(165,165,255)" r="3.21528811707" stroke="rgb(99,99,153)" stroke-width="0.321528811707" /></g><line stroke="rgb(99,99,153)" stroke-width="1.45597952471" x1="100.382975893" x2="100.382975893" y1="27.6332620129" y2="32.9175845744" /><line stroke="rgb(99,99,153)" stroke-width="1.45597952471" x1="82.7943252472" x2="82.7943252472" y1="10.3667379871" y2="5.0824154256" /><line stroke="rgb(33,33,153)" stroke-width="1.45597952471" x1="65.2056747528" x2="65.2056747528" y1="27.6332620129" y2="32.9175845744" /><line stroke="rgb(99,99,153)" stroke-width="1.45597952471" x1="47.6170241068" x2="47.6170241068" y1="10.3667379871" y2="5.0824154256" /><g transform="translate(47.6170241068,3.21528811707) scale(1.0,-1.0)"><circle cx="0" cy="0" fill="rgb(165,165,255)" r="3.21528811707" stroke="rgb(99,99,153)" stroke-width="0.321528811707" /></g><g transform="translate(65.2056747528,34.7847118829) scale(1.0,-1.0)"><circle cx="0" cy="0" fill="rgb(55,55,255)" r="3.21528811707" stroke="rgb(33,33,153)" stroke-width="0.321528811707" /></g><g transform="translate(82.7943252472,3.21528811707) scale(1.0,-1.0)"><circle cx="0" cy="0" fill="rgb(165,165,255)" r="3.21528811707" stroke="rgb(99,99,153)" stroke-width="0.321528811707" /></g><g transform="translate(100.382975893,34.7847118829) scale(1.0,-1.0)"><circle cx="0" cy="0" fill="rgb(165,165,255)" r="3.21528811707" stroke="rgb(99,99,153)" stroke-width="0.321528811707" /></g></g></g><g transform="translate(640.0,150.0)"><rect fill="rgb(255,255,255)" height="50.0" width="160.0" x="0" y="0" /><g transform="scale(1.0,-1.0) translate(6,-44.0)"><g transform="translate(100.382975893,34.7847118829) scale(1.0,-1.0)"><circle cx="0" cy="0" fill="rgb(255,255,255)" r="3.21528811707" stroke="rgb(153,153,153)" stroke-width="0.321528811707" /></g><g transform="translate(82.7943252472,3.21528811707) scale(1.0,-1.0)"><circle cx="0" cy="0" fill="rgb(165,165,255)" r="3.21528811707" stroke="rgb(99,99,153)" stroke-width="0.321528811707" /></g><g transform="translate(65.2056747528,34.7847118829) scale(1.0,-1.0)"><circle cx="0" cy="0" fill="rgb(165,165,255)" r="3.21528811707" stroke="rgb(99,99,153)" stroke-width="0.321528811707" /></g><g transform="translate(47.6170241068,3.21528811707) scale(1.0,-1.0)"><circle cx="0" cy="0" fill="rgb(55,55,255)" r="3.21528811707" stroke="rgb(33,33,153)" stroke-width="0.321528811707" /></g><line stroke="rgb(33,33,153)" stroke-width="1.45597952471" x1="47.6170241068" x2="47.6170241068" y1="10.3667379871" y2="5.0824154256" /><line stroke="rgb(99,99,153)" stroke-width="1.45597952471" x1="65.2056747528" x2="65.2056747528" y1="27.6332620129" y2="32.9175845744" /><line stroke="rgb(99,99,153)" stroke-width="1.45597952471" x1="82.7943252472" x2="82.7943252472" y1="10.3667379871" y2="5.0824154256" /><line stroke="rgb(153,153,153)" stroke-width="1.45597952471" x1="100.382975893" x2="100.382975893" y1="27.6332620129" y2="32.9175845744" /><line stroke="rgb(33,33,153)" stroke-width="1.45597952471" x1="44.3079624275" x2="36.8996153979" y1="15.0873994841" y2="20.3717220455" /><g transform="translate(100.382975893,25.2729312644) scale(1.0,-1.0)"><circle cx="0" cy="0" fill="rgb(255,255,255)" r="4.06460950649" stroke="rgb(153,153,153)" stroke-width="0.406460950649" /></g><g transform="translate(82.7943252472,12.7270687356) scale(1.0,-1.0)"><circle cx="0" cy="0" fill="rgb(165,165,255)" r="4.06460950649" stroke="rgb(99,99,153)" stroke-width="0.406460950649" /></g><g transform="translate(65.2056747528,25.2729312644) scale(1.0,-1.0)"><circle cx="0" cy="0" fill="rgb(165,165,255)" r="4.06460950649" stroke="rgb(99,99,153)" stroke-width="0.406460950649" /></g><g transform="translate(47.6170241068,12.7270687356) scale(1.0,-1.0)"><circle cx="0" cy="0" fill="rgb(55,55,255)" r="4.06460950649" stroke="rgb(33,33,153)" stroke-width="0.406460950649" /></g><g transform="translate(34.2819994426,22.2388493541) scale(1.0,-1.0)"><circle cx="0" cy="0" fill="rgb(55,55,255)" r="3.21528811707" stroke="rgb(33,33,153)" stroke-width="0.321528811707" /></g><line stroke="rgb(153,153,153)" stroke-width="1.45597952471" x1="111.100384602" x2="103.692037573" y1="17.6282779545" y2="22.9126005159" /><line stroke="rgb(126,126,153)" stroke-width="1.6258438026" x1="97.0739142134" x2="86.103386927" y1="22.9126005165" y2="15.0873994835" /><line stroke="rgb(99,99,153)" stroke-width="1.6258438026" x1="79.485263577" x2="68.514736423" y1="15.087399497" y2="22.912600503" /><line stroke="rgb(66,66,153)" stroke-width="1.6258438026" x1="61.896613073" x2="50.9260857866" y1="22.9126005165" y2="15.0873994835" /><g transform="translate(113.718000557,15.7611506459) scale(1.0,-1.0)"><circle cx="0" cy="0" fill="rgb(255,255,255)" r="3.21528811707" stroke="rgb(153,153,153)" stroke-width="0.321528811707" /></g><line stroke="rgb(153,153,153)" stroke-width="1.45597952471" x1="100.382975893" x2="100.382975893" y1="27.6332620129" y2="32.9175845744" /><line stroke="rgb(99,99,153)" stroke-width="1.45597952471" x1="82.7943252472" x2="82.7943252472" y1="10.3667379871" y2="5.0824154256" /><line stroke="rgb(99,99,153)" stroke-width="1.45597952471" x1="65.2056747528" x2="65.2056747528" y1="27.6332620129" y2="32.9175845744" /><line stroke="rgb(33,33,153)" stroke-width="1.45597952471" x1="47.6170241068" x2="47.6170241068" y1="10.3667379871" y2="5.0824154256" /><g transform="translate(47.6170241068,3.21528811707) scale(1.0,-1.0)"><circle cx="0" cy="0" fill="rgb(55,55,255)" r="3.21528811707" stroke="rgb(33,33,153)" stroke-width="0.321528811707" /></g><g transform="translate(65.2056747528,34.7847118829) scale(1.0,-1.0)"><circle cx="0" cy="0" fill="rgb(165,165,255)" r="3.21528811707" stroke="rgb(99,99,153)" stroke-width="0.321528811707" /></g><g transform="translate(82.7943252472,3.21528811707) scale(1.0,-1.0)"><circle cx="0" cy="0" fill="rgb(165,165,255)" r="3.21528811707" stroke="rgb(99,99,153)" stroke-width="0.321528811707" /></g><g transform="translate(100.382975893,34.7847118829) scale(1.0,-1.0)"><circle cx="0" cy="0" fill="rgb(255,255,255)" r="3.21528811707" stroke="rgb(153,153,153)" stroke-width="0.321528811707" /></g></g></g></svg>