<?xml version="1.0" encoding="utf-8" ?>
<svg baseProfile="full" height="400" version="1.1" width="400" xmlns="http://www.w3.org/2000/svg" xmlns:ev="http://www.w3.org/2001/xml-events" xmlns:xlink="http://www.w3.org/1999/xlink"><defs /><g transform="translate(0.0,0.0)"><rect fill="rgb(255,255,255)" height="400.0" width="266.666666667" x="0" y="0" /><g transform="scale(1.0,-1.0) translate(6,-394.0)"><line stroke="rgb(112,112,112)" stroke-width="4.99037649416" x1="242.190725344" x2="242.190725053" y1="173.319468056" y2="214.680531944" /><g transform="translate(242.190724966,227.15647318) scale(1.0,-1.0)"><circle cx="0" cy="0" fill="rgb(188,188,188)" r="12.4759412354" stroke="rgb(112,112,112)" stroke-width="1.24759412354" /><text fill="rgb(112,112,112)" font-size="12.4759412354" text-anchor="middle" x="0" y="3.11898530885">9</text></g><g transform="translate(69.904637168,127.687053873) scale(1.0,-1.0)"><circle cx="0" cy="0" fill="rgb(188,188,188)" r="12.4759412354" stroke="rgb(112,112,112)" stroke-width="1.24759412354" /><text fill="rgb(112,112,112)" font-size="12.4759412354" text-anchor="middle" x="0" y="3.11898530885">1</text></g><g transform="translate(127.333333101,227.15647318) scale(1.0,-1.0)"><circle cx="0" cy="0" fill="rgb(188,188,188)" r="12.4759412354" stroke="rgb(112,112,112)" stroke-width="1.24759412354" /><text fill="rgb(112,112,112)" font-size="12.4759412354" text-anchor="middle" x="0" y="3.11898530885">2</text></g><g transform="translate(12.4759417009,160.84352682) scale(1.0,-1.0)"><circle cx="0" cy="0" fill="rgb(188,188,188)" r="12.4759412354" stroke="rgb(112,112,112)" stroke-width="1.24759412354" /><text fill="rgb(112,112,112)" font-size="12.4759412354" text-anchor="middle" x="0" y="3.11898530885">3</text></g><g transform="translate(69.9046376335,260.312946127) scale(1.0,-1.0)"><circle cx="0" cy="0" fill="rgb(188,188,188)" r="12.4759412354" stroke="rgb(112,112,112)" stroke-width="1.24759412354" /><text fill="rgb(112,112,112)" font-size="12.4759412354" text-anchor="middle" x="0" y="3.11898530885">4</text></g><g transform="translate(12.4759412354,227.15647318) scale(1.0,-1.0)"><circle cx="0" cy="0" fill="rgb(188,188,188)" r="12.4759412354" stroke="rgb(112,112,112)" stroke-width="1.24759412354" /><text fill="rgb(112,112,112)" font-size="12.4759412354" text-anchor="middle" x="0" y="3.11898530885">5</text></g><g transform="translate(184.762029033,127.687053873) scale(1.0,-1.0)"><circle cx="0" cy="0" fill="rgb(188,188,188)" r="12.4759412354" stroke="rgb(112,112,112)" stroke-width="1.24759412354" /><text fill="rgb(112,112,112)" font-size="12.4759412354" text-anchor="middle" x="0" y="3.11898530885">6</text></g><g transform="translate(184.762029499,260.312946127) scale(1.0,-1.0)"><circle cx="0" cy="0" fill="rgb(188,188,188)" r="12.4759412354" stroke="rgb(112,112,112)" stroke-width="1.24759412354" /><text fill="rgb(112,112,112)" font-size="12.4759412354" text-anchor="middle" x="0" y="3.11898530885">7</text></g><g transform="translate(242.190725431,160.84352682) scale(1.0,-1.0)"><circle cx="0" cy="0" fill="rgb(188,188,188)" r="12.4759412354" stroke="rgb(112,112,112)" stroke-width="1.24759412354" /><text fill="rgb(112,112,112)" font-size="12.4759412354" text-anchor="middle" x="0" y="3.11898530885">8</text></g><line stroke="rgb(112,112,112)" stroke-width="4.99037649416" x1="116.528851489" x2="80.7091192447" y1="154.605556256" y2="133.925024438" /><line stroke="rgb(112,112,112)" stroke-width="4.99037649416" x1="195.566511532" x2="231.386242933" y1="254.074975487" y2="233.39444382" /><line stroke="rgb(112,112,112)" stroke-width="4.99037649416" x1="127.333333479" x2="127.333333188" y1="173.319468056" y2="214.680531944" /><line stroke="rgb(112,112,112)" stroke-width="4.99037649416" x1="138.137815599" x2="173.957547" y1="154.60555618" y2="133.925024513" /><line stroke="rgb(112,112,112)" stroke-width="4.99037649416" x1="59.100155135" x2="23.2804237339" y1="133.925024513" y2="154.60555618" /><line stroke="rgb(112,112,112)" stroke-width="4.99037649416" x1="116.528851068" x2="80.7091196664" y1="233.39444382" y2="254.074975487" /><line stroke="rgb(112,112,112)" stroke-width="4.99037649416" x1="138.137815177" x2="173.957547422" y1="233.394443744" y2="254.074975562" /><line stroke="rgb(112,112,112)" stroke-width="4.99037649416" x1="12.4759416133" x2="12.475941323" y1="173.319468056" y2="214.680531944" /><line stroke="rgb(112,112,112)" stroke-width="4.99037649416" x1="59.1001555568" x2="23.2804233121" y1="254.074975562" y2="233.394443744" /><line stroke="rgb(112,112,112)" stroke-width="4.99037649416" x1="195.56651111" x2="231.386243355" y1="133.925024438" y2="154.605556256" /><g transform="translate(127.333333566,160.84352682) scale(1.0,-1.0)"><circle cx="0" cy="0" fill="rgb(188,188,188)" r="12.4759412354" stroke="rgb(112,112,112)" stroke-width="1.24759412354" /><text fill="rgb(112,112,112)" font-size="12.4759412354" text-anchor="middle" x="0" y="3.11898530885">0</text></g></g><rect fill="rgb(144,144,144)" height="30" rx="2" ry="2" stroke="rgb(28,28,28)" stroke-width="2" width="30" x="226.666666667" y="10" /><text fill="rgb(28,28,28)" font-size="10" text-anchor="middle" x="233.666666667" y="20">6</text><text fill="rgb(28,28,28)" font-size="18" text-anchor="middle" x="241.666666667" y="35">C</text></g><g transform="translate(266.666666667,0.0)"><rect fill="rgb(255,255,255)" height="100.0" width="66.6666666667" x="0" y="0" /><g transform="scale(1.0,-1.0) translate(6,-94.0)"><line stroke="rgb(126,126,153)" stroke-width="1.07123265058" x1="51.9885850214" x2="51.9885849591" y1="39.5607235093" y2="48.4392764907" /><g transform="translate(51.9885849403,51.1173581171) scale(1.0,-1.0)"><circle cx="0" cy="0" fill="rgb(255,255,255)" r="2.67808162644" stroke="rgb(153,153,153)" stroke-width="0.267808162644" /></g><g transform="translate(15.0057074549,29.7652838157) scale(1.0,-1.0)"><circle cx="0" cy="0" fill="rgb(165,165,255)" r="2.67808162644" stroke="rgb(99,99,153)" stroke-width="0.267808162644" /></g><g transform="translate(27.3333332834,51.1173581171) scale(1.0,-1.0)"><circle cx="0" cy="0" fill="rgb(165,165,255)" r="2.67808162644" stroke="rgb(99,99,153)" stroke-width="0.267808162644" /></g><g transform="translate(2.67808172637,36.8826418829) scale(1.0,-1.0)"><circle cx="0" cy="0" fill="rgb(255,255,255)" r="2.67808162644" stroke="rgb(153,153,153)" stroke-width="0.267808162644" /></g><g transform="translate(15.0057075548,58.2347161843) scale(1.0,-1.0)"><circle cx="0" cy="0" fill="rgb(255,255,255)" r="2.67808162644" stroke="rgb(153,153,153)" stroke-width="0.267808162644" /></g><g transform="translate(2.67808162644,51.1173581171) scale(1.0,-1.0)"><circle cx="0" cy="0" fill="rgb(255,255,255)" r="2.67808162644" stroke="rgb(153,153,153)" stroke-width="0.267808162644" /></g><g transform="translate(39.6609591118,29.7652838157) scale(1.0,-1.0)"><circle cx="0" cy="0" fill="rgb(55,55,255)" r="2.67808162644" stroke="rgb(33,33,153)" stroke-width="0.267808162644" /></g><g transform="translate(39.6609592118,58.2347161843) scale(1.0,-1.0)"><circle cx="0" cy="0" fill="rgb(255,255,255)" r="2.67808162644" stroke="rgb(153,153,153)" stroke-width="0.267808162644" /></g><g transform="translate(51.9885850402,36.8826418829) scale(1.0,-1.0)"><circle cx="0" cy="0" fill="rgb(165,165,255)" r="2.67808162644" stroke="rgb(99,99,153)" stroke-width="0.267808162644" /></g><line stroke="rgb(66,66,153)" stroke-width="1.07123265058" x1="25.0140466548" x2="17.3249941834" y1="35.5436010811" y2="31.1043246175" /><line stroke="rgb(153,153,153)" stroke-width="1.07123265058" x1="41.9802459309" x2="49.6692982212" y1="56.8956753662" y2="52.4563989352" /><line stroke="rgb(66,66,153)" stroke-width="1.07123265058" x1="27.3333333645" x2="27.3333333022" y1="39.5607235093" y2="48.4392764907" /><line stroke="rgb(33,33,153)" stroke-width="1.07123265058" x1="29.6526201024" x2="37.3416723927" y1="35.5436010648" y2="31.1043246338" /><line stroke="rgb(126,126,153)" stroke-width="1.07123265058" x1="12.6864207358" x2="4.99736844549" y1="31.1043246338" y2="35.5436010648" /><line stroke="rgb(126,126,153)" stroke-width="1.07123265058" x1="25.0140465643" x2="17.3249942739" y1="52.4563989352" y2="56.8956753662" /><line stroke="rgb(126,126,153)" stroke-width="1.07123265058" x1="29.6526200119" x2="37.3416724832" y1="52.4563989189" y2="56.8956753825" /><line stroke="rgb(153,153,153)" stroke-width="1.07123265058" x1="2.67808170757" x2="2.67808164525" y1="39.5607235093" y2="48.4392764907" /><line stroke="rgb(153,153,153)" stroke-width="1.07123265058" x1="12.6864208263" x2="4.99736835496" y1="56.8956753825" y2="52.4563989189" /><line stroke="rgb(66,66,153)" stroke-width="1.07123265058" x1="41.9802458403" x2="49.6692983117" y1="31.1043246175" y2="35.5436010811" /><g transform="translate(27.3333333833,36.8826418829) scale(1.0,-1.0)"><circle cx="0" cy="0" fill="rgb(55,55,255)" r="2.67808162644" stroke="rgb(33,33,153)" stroke-width="0.267808162644" /></g></g></g><g transform="translate(266.666666667,100.0)"><rect fill="rgb(255,255,255)" height="100.0" width="66.6666666667" x="0" y="0" /><g transform="scale(1.0,-1.0) translate(6,-94.0)"><line stroke="rgb(33,33,153)" stroke-width="1.07123265058" x1="51.9885850214" x2="51.9885849591" y1="39.5607235093" y2="48.4392764907" /><g transform="translate(51.9885849403,51.1173581171) scale(1.0,-1.0)"><circle cx="0" cy="0" fill="rgb(55,55,255)" r="2.67808162644" stroke="rgb(33,33,153)" stroke-width="0.267808162644" /></g><g transform="translate(15.0057074549,29.7652838157) scale(1.0,-1.0)"><circle cx="0" cy="0" fill="rgb(255,255,255)" r="2.67808162644" stroke="rgb(153,153,153)" stroke-width="0.267808162644" /></g><g transform="translate(27.3333332834,51.1173581171) scale(1.0,-1.0)"><circle cx="0" cy="0" fill="rgb(255,255,255)" r="2.67808162644" stroke="rgb(153,153,153)" stroke-width="0.267808162644" /></g><g transform="translate(2.67808172637,36.8826418829) scale(1.0,-1.0)"><circle cx="0" cy="0" fill="rgb(255,255,255)" r="2.67808162644" stroke="rgb(153,153,153)" stroke-width="0.267808162644" /></g><g transform="translate(15.0057075548,58.2347161843) scale(1.0,-1.0)"><circle cx="0" cy="0" fill="rgb(255,255,255)" r="2.67808162644" stroke="rgb(153,153,153)" stroke-width="0.267808162644" /></g><g transform="translate(2.67808162644,51.1173581171) scale(1.0,-1.0)"><circle cx="0" cy="0" fill="rgb(255,255,255)" r="2.67808162644" stroke="rgb(153,153,153)" stroke-width="0.267808162644" /></g><g transform="translate(39.6609591118,29.7652838157) scale(1.0,-1.0)"><circle cx="0" cy="0" fill="rgb(165,165,255)" r="2.67808162644" stroke="rgb(99,99,153)" stroke-width="0.267808162644" /></g><g transform="translate(39.6609592118,58.2347161843) scale(1.0,-1.0)"><circle cx="0" cy="0" fill="rgb(165,165,255)" r="2.67808162644" stroke="rgb(99,99,153)" stroke-width="0.267808162644" /></g><g transform="translate(51.9885850402,36.8826418829) scale(1.0,-1.0)"><circle cx="0" cy="0" fill="rgb(55,55,255)" r="2.67808162644" stroke="rgb(33,33,153)" stroke-width="0.267808162644" /></g><line stroke="rgb(153,153,153)" stroke-width="1.07123265058" x1="25.0140466548" x2="17.3249941834" y1="35.5436010811" y2="31.1043246175" /><line stroke="rgb(66,66,153)" stroke-width="1.07123265058" x1="41.9802459309" x2="49.6692982212" y1="56.8956753662" y2="52.4563989352" /><line stroke="rgb(153,153,153)" stroke-width="1.07123265058" x1="27.3333333645" x2="27.3333333022" y1="39.5607235093" y2="48.4392764907" /><line stroke="rgb(126,126,153)" stroke-width="1.07123265058" x1="29.6526201024" x2="37.3416723927" y1="35.5436010648" y2="31.1043246338" /><line stroke="rgb(153,153,153)" stroke-width="1.07123265058" x1="12.6864207358" x2="4.99736844549" y1="31.1043246338" y2="35.5436010648" /><line stroke="rgb(153,153,153)" stroke-width="1.07123265058" x1="25.0140465643" x2="17.3249942739" y1="52.4563989352" y2="56.8956753662" /><line stroke="rgb(126,126,153)" stroke-width="1.07123265058" x1="29.6526200119" x2="37.3416724832" y1="52.4563989189" y2="56.8956753825" /><line stroke="rgb(153,153,153)" stroke-width="1.07123265058" x1="2.67808170757" x2="2.67808164525" y1="39.5607235093" y2="48.4392764907" /><line stroke="rgb(153,153,153)" stroke-width="1.07123265058" x1="12.6864208263" x2="4.99736835496" y1="56.8956753825" y2="52.4563989189" /><line stroke="rgb(66,66,153)" stroke-width="1.07123265058" x1="41.9802458403" x2="49.6692983117" y1="31.1043246175" y2="35.5436010811" /><g transform="translate(27.3333333833,36.8826418829) scale(1.0,-1.0)"><circle cx="0" cy="0" fill="rgb(255,255,255)" r="2.67808162644" stroke="rgb(153,153,153)" stroke-width="0.267808162644" /></g></g></g><g transform="translate(266.666666667,200.0)"><rect fill="rgb(255,255,255)" height="100.0" width="66.6666666667" x="0" y="0" /><g transform="scale(1.0,-1.0) translate(6,-94.0)"><line stroke="rgb(126,126,153)" stroke-width="1.07123265058" x1="51.9885850214" x2="51.9885849591" y1="39.5607235093" y2="48.4392764907" /><g transform="translate(51.9885849403,51.1173581171) scale(1.0,-1.0)"><circle cx="0" cy="0" fill="rgb(165,165,255)" r="2.67808162644" stroke="rgb(99,99,153)" stroke-width="0.267808162644" /></g><g transform="translate(15.0057074549,29.7652838157) scale(1.0,-1.0)"><circle cx="0" cy="0" fill="rgb(255,255,255)" r="2.67808162644" stroke="rgb(153,153,153)" stroke-width="0.267808162644" /></g><g transform="translate(27.3333332834,51.1173581171) scale(1.0,-1.0)"><circle cx="0" cy="0" fill="rgb(55,55,255)" r="2.67808162644" stroke="rgb(33,33,153)" stroke-width="0.267808162644" /></g><g transform="translate(2.67808172637,36.8826418829) scale(1.0,-1.0)"><circle cx="0" cy="0" fill="rgb(255,255,255)" r="2.67808162644" stroke="rgb(153,153,153)" stroke-width="0.267808162644" /></g><g transform="translate(15.0057075548,58.2347161843) scale(1.0,-1.0)"><circle cx="0" cy="0" fill="rgb(165,165,255)" r="2.67808162644" stroke="rgb(99,99,153)" stroke-width="0.267808162644" /></g><g transform="translate(2.67808162644,51.1173581171) scale(1.0,-1.0)"><circle cx="0" cy="0" fill="rgb(255,255,255)" r="2.67808162644" stroke="rgb(153,153,153)" stroke-width="0.267808162644" /></g><g transform="translate(39.6609591118,29.7652838157) scale(1.0,-1.0)"><circle cx="0" cy="0" fill="rgb(255,255,255)" r="2.67808162644" stroke="rgb(153,153,153)" stroke-width="0.267808162644" /></g><g transform="translate(39.6609592118,58.2347161843) scale(1.0,-1.0)"><circle cx="0" cy="0" fill="rgb(55,55,255)" r="2.67808162644" stroke="rgb(33,33,153)" stroke-width="0.267808162644" /></g><g transform="translate(51.9885850402,36.8826418829) scale(1.0,-1.0)"><circle cx="0" cy="0" fill="rgb(255,255,255)" r="2.67808162644" stroke="rgb(153,153,153)" stroke-width="0.267808162644" /></g><line stroke="rgb(126,126,153)" stroke-width="1.07123265058" x1="25.0140466548" x2="17.3249941834" y1="35.5436010811" y2="31.1043246175" /><line stroke="rgb(66,66,153)" stroke-width="1.07123265058" x1="41.9802459309" x2="49.6692982212" y1="56.8956753662" y2="52.4563989352" /><line stroke="rgb(66,66,153)" stroke-width="1.07123265058" x1="27.3333333645" x2="27.3333333022" y1="39.5607235093" y2="48.4392764907" /><line stroke="rgb(126,126,153)" stroke-width="1.07123265058" x1="29.6526201024" x2="37.3416723927" y1="35.5436010648" y2="31.1043246338" /><line stroke="rgb(153,153,153)" stroke-width="1.07123265058" x1="12.6864207358" x2="4.99736844549" y1="31.1043246338" y2="35.5436010648" /><line stroke="rgb(66,66,153)" stroke-width="1.07123265058" x1="25.0140465643" x2="17.3249942739" y1="52.4563989352" y2="56.8956753662" /><line stroke="rgb(33,33,153)" stroke-width="1.07123265058" x1="29.6526200119" x2="37.3416724832" y1="52.4563989189" y2="56.8956753825" /><line stroke="rgb(153,153,153)" stroke-width="1.07123265058" x1="2.67808170757" x2="2.67808164525" y1="39.5607235093" y2="48.4392764907" /><line stroke="rgb(126,126,153)" stroke-width="1.07123265058" x1="12.6864208263" x2="4.99736835496" y1="56.8956753825" y2="52.4563989189" /><line stroke="rgb(153,153,153)" stroke-width="1.07123265058" x1="41.9802458403" x2="49.6692983117" y1="31.1043246175" y2="35.5436010811" /><g transform="translate(27.3333333833,36.8826418829) scale(1.0,-1.0)"><circle cx="0" cy="0" fill="rgb(165,165,255)" r="2.67808162644" stroke="rgb(99,99,153)" stroke-width="0.267808162644" /></g></g></g><g transform="translate(266.666666667,300.0)"><rect fill="rgb(255,255,255)" height="100.0" width="66.6666666667" x="0" y="0" /><g transform="scale(1.0,-1.0) translate(6,-94.0)"><line stroke="rgb(153,153,153)" stroke-width="1.07123265058" x1="51.9885850214" x2="51.9885849591" y1="39.5607235093" y2="48.4392764907" /><g transform="translate(51.9885849403,51.1173581171) scale(1.0,-1.0)"><circle cx="0" cy="0" fill="rgb(255,255,255)" r="2.67808162644" stroke="rgb(153,153,153)" stroke-width="0.267808162644" /></g><g transform="translate(15.0057074549,29.7652838157) scale(1.0,-1.0)"><circle cx="0" cy="0" fill="rgb(255,255,255)" r="2.67808162644" stroke="rgb(153,153,153)" stroke-width="0.267808162644" /></g><g transform="translate(27.3333332834,51.1173581171) scale(1.0,-1.0)"><circle cx="0" cy="0" fill="rgb(165,165,255)" r="2.67808162644" stroke="rgb(99,99,153)" stroke-width="0.267808162644" /></g><g transform="translate(2.67808172637,36.8826418829) scale(1.0,-1.0)"><circle cx="0" cy="0" fill="rgb(165,165,255)" r="2.67808162644" stroke="rgb(99,99,153)" stroke-width="0.267808162644" /></g><g transform="translate(15.0057075548,58.2347161843) scale(1.0,-1.0)"><circle cx="0" cy="0" fill="rgb(55,55,255)" r="2.67808162644" stroke="rgb(33,33,153)" stroke-width="0.267808162644" /></g><g transform="translate(2.67808162644,51.1173581171) scale(1.0,-1.0)"><circle cx="0" cy="0" fill="rgb(55,55,255)" r="2.67808162644" stroke="rgb(33,33,153)" stroke-width="0.267808162644" /></g><g transform="translate(39.6609591118,29.7652838157) scale(1.0,-1.0)"><circle cx="0" cy="0" fill="rgb(255,255,255)" r="2.67808162644" stroke="rgb(153,153,153)" stroke-width="0.267808162644" /></g><g transform="translate(39.6609592118,58.2347161843) scale(1.0,-1.0)"><circle cx="0" cy="0" fill="rgb(255,255,255)" r="2.67808162644" stroke="rgb(153,153,153)" stroke-width="0.267808162644" /></g><g transform="translate(51.9885850402,36.8826418829) scale(1.0,-1.0)"><circle cx="0" cy="0" fill="rgb(255,255,255)" r="2.67808162644" stroke="rgb(153,153,153)" stroke-width="0.267808162644" /></g><line stroke="rgb(153,153,153)" stroke-width="1.07123265058" x1="25.0140466548" x2="17.3249941834" y1="35.5436010811" y2="31.1043246175" /><line stroke="rgb(153,153,153)" stroke-width="1.07123265058" x1="41.9802459309" x2="49.6692982212" y1="56.8956753662" y2="52.4563989352" /><line stroke="rgb(126,126,153)" stroke-width="1.07123265058" x1="27.3333333645" x2="27.3333333022" y1="39.5607235093" y2="48.4392764907" /><line stroke="rgb(153,153,153)" stroke-width="1.07123265058" x1="29.6526201024" x2="37.3416723927" y1="35.5436010648" y2="31.1043246338" /><line stroke="rgb(126,126,153)" stroke-width="1.07123265058" x1="12.6864207358" x2="4.99736844549" y1="31.1043246338" y2="35.5436010648" /><line stroke="rgb(66,66,153)" stroke-width="1.07123265058" x1="25.0140465643" x2="17.3249942739" y1="52.4563989352" y2="56.8956753662" /><line stroke="rgb(126,126,153)" stroke-width="1.07123265058" x1="29.6526200119" x2="37.3416724832" y1="52.4563989189" y2="56.8956753825" /><line stroke="rgb(66,66,153)" stroke-width="1.07123265058" x1="2.67808170757" x2="2.67808164525" y1="39.5607235093" y2="48.4392764907" /><line stroke="rgb(33,33,153)" stroke-width="1.07123265058" x1="12.6864208263" x2="4.99736835496" y1="56.8956753825" y2="52.4563989189" /><line stroke="rgb(153,153,153)" stroke-width="1.07123265058" x1="41.9802458403" x2="49.6692983117" y1="31.1043246175" y2="35.5436010811" /><g transform="translate(27.3333333833,36.8826418829) scale(1.0,-1.0)"><circle cx="0" cy="0" fill="rgb(255,255,255)" r="2.67808162644" stroke="rgb(153,153,153)" stroke-width="0.267808162644" /></g></g></g><g transform="translate(333.333333333,0.0)"><rect fill="rgb(255,255,255)" height="100.0" width="66.6666666667" x="0" y="0" /><g transform="scale(1.0,-1.0) translate(6,-94.0)"><line stroke="rgb(153,153,153)" stroke-width="1.07123265058" x1="51.9885850214" x2="51.9885849591" y1="39.5607235093" y2="48.4392764907" /><g transform="translate(51.9885849403,51.1173581171) scale(1.0,-1.0)"><circle cx="0" cy="0" fill="rgb(255,255,255)" r="2.67808162644" stroke="rgb(153,153,153)" stroke-width="0.267808162644" /></g><g transform="translate(15.0057074549,29.7652838157) scale(1.0,-1.0)"><circle cx="0" cy="0" fill="rgb(55,55,255)" r="2.67808162644" stroke="rgb(33,33,153)" stroke-width="0.267808162644" /></g><g transform="translate(27.3333332834,51.1173581171) scale(1.0,-1.0)"><circle cx="0" cy="0" fill="rgb(255,255,255)" r="2.67808162644" stroke="rgb(153,153,153)" stroke-width="0.267808162644" /></g><g transform="translate(2.67808172637,36.8826418829) scale(1.0,-1.0)"><circle cx="0" cy="0" fill="rgb(55,55,255)" r="2.67808162644" stroke="rgb(33,33,153)" stroke-width="0.267808162644" /></g><g transform="translate(15.0057075548,58.2347161843) scale(1.0,-1.0)"><circle cx="0" cy="0" fill="rgb(255,255,255)" r="2.67808162644" stroke="rgb(153,153,153)" stroke-width="0.267808162644" /></g><g transform="translate(2.67808162644,51.1173581171) scale(1.0,-1.0)"><circle cx="0" cy="0" fill="rgb(165,165,255)" r="2.67808162644" stroke="rgb(99,99,153)" stroke-width="0.267808162644" /></g><g transform="translate(39.6609591118,29.7652838157) scale(1.0,-1.0)"><circle cx="0" cy="0" fill="rgb(255,255,255)" r="2.67808162644" stroke="rgb(153,153,153)" stroke-width="0.267808162644" /></g><g transform="translate(39.6609592118,58.2347161843) scale(1.0,-1.0)"><circle cx="0" cy="0" fill="rgb(255,255,255)" r="2.67808162644" stroke="rgb(153,153,153)" stroke-width="0.267808162644" /></g><g transform="translate(51.9885850402,36.8826418829) scale(1.0,-1.0)"><circle cx="0" cy="0" fill="rgb(255,255,255)" r="2.67808162644" stroke="rgb(153,153,153)" stroke-width="0.267808162644" /></g><line stroke="rgb(66,66,153)" stroke-width="1.07123265058" x1="25.0140466548" x2="17.3249941834" y1="35.5436010811" y2="31.1043246175" /><line stroke="rgb(153,153,153)" stroke-width="1.07123265058" x1="41.9802459309" x2="49.6692982212" y1="56.8956753662" y2="52.4563989352" /><line stroke="rgb(126,126,153)" stroke-width="1.07123265058" x1="27.3333333645" x2="27.3333333022" y1="39.5607235093" y2="48.4392764907" /><line stroke="rgb(126,126,153)" stroke-width="1.07123265058" x1="29.6526201024" x2="37.3416723927" y1="35.5436010648" y2="31.1043246338" /><line stroke="rgb(33,33,153)" stroke-width="1.07123265058" x1="12.6864207358" x2="4.99736844549" y1="31.1043246338" y2="35.5436010648" /><line stroke="rgb(153,153,153)" stroke-width="1.07123265058" x1="25.0140465643" x2="17.3249942739" y1="52.4563989352" y2="56.8956753662" /><line stroke="rgb(153,153,153)" stroke-width="1.07123265058" x1="29.6526200119" x2="37.3416724832" y1="52.4563989189" y2="56.8956753825" /><line stroke="rgb(66,66,153)" stroke-width="1.07123265058" x1="2.67808170757" x2="2.67808164525" y1="39.5607235093" y2="48.4392764907" /><line stroke="rgb(126,126,153)" stroke-width="1.07123265058" x1="12.6864208263" x2="4.99736835496" y1="56.8956753825" y2="52.4563989189" /><line stroke="rgb(153,153,153)" stroke-width="1.07123265058" x1="41.9802458403" x2="49.6692983117" y1="31.1043246175" y2="35.5436010811" /><g transform="translate(27.3333333833,36.8826418829) scale(1.0,-1.0)"><circle cx="0" cy="0" fill="rgb(165,165,255)" r="2.67808162644" stroke="rgb(99,99,153)" stroke-width="0.267808162644" /></g></g></g></svg>