<?xml version="1.0" encoding="utf-8" ?>
<svg baseProfile="full" height="400" version="1.1" width="400" xmlns="http://www.w3.org/2000/svg" xmlns:ev="http://www.w3.org/2001/xml-events" xmlns:xlink="http://www.w3.org/1999/xlink"><defs /><g transform="translate(0.0,0.0)"><rect fill="rgb(255,255,255)" height="400.0" width="300.0" x="0" y="0" /><g transform="scale(1.0,-1.0) translate(6,-394.0)"><line stroke="rgb(132,132,132)" stroke-width="5.07025277361" x1="188.694576342" x2="204.803191923" y1="271.413277065" y2="299.314217688" /><line stroke="rgb(132,132,132)" stroke-width="5.07025277361" x1="233.389152418" x2="265.606383583" y1="193.999999476" y2="193.999998885" /><g transform="translate(68.7653032421,194.000000264) scale(1.0,-1.0)"><circle cx="0" cy="0" fill="rgb(188,188,188)" r="14.1544556597" stroke="rgb(112,112,112)" stroke-width="1.41544556597" /><text fill="rgb(112,112,112)" font-size="14.1544556597" text-anchor="middle" x="0" y="3.53861391492">1</text></g><g transform="translate(181.617348511,128.84484164) scale(1.0,-1.0)"><circle cx="0" cy="0" fill="rgb(188,188,188)" r="14.1544556597" stroke="rgb(112,112,112)" stroke-width="1.41544556597" /><text fill="rgb(112,112,112)" font-size="14.1544556597" text-anchor="middle" x="0" y="3.53861391492">2</text></g><g transform="translate(106.382651489,259.15515836) scale(1.0,-1.0)"><circle cx="0" cy="0" fill="rgb(188,188,188)" r="14.1544556597" stroke="rgb(112,112,112)" stroke-width="1.41544556597" /><text fill="rgb(112,112,112)" font-size="14.1544556597" text-anchor="middle" x="0" y="3.53861391492">3</text></g><g transform="translate(219.234696758,193.999999736) scale(1.0,-1.0)"><circle cx="0" cy="0" fill="rgb(188,188,188)" r="14.1544556597" stroke="rgb(112,112,112)" stroke-width="1.41544556597" /><text fill="rgb(112,112,112)" font-size="14.1544556597" text-anchor="middle" x="0" y="3.53861391492">4</text></g><g transform="translate(181.617348511,259.155158888) scale(1.0,-1.0)"><circle cx="0" cy="0" fill="rgb(188,188,188)" r="14.1544556597" stroke="rgb(112,112,112)" stroke-width="1.41544556597" /><text fill="rgb(112,112,112)" font-size="14.1544556597" text-anchor="middle" x="0" y="3.53861391492">5</text></g><g transform="translate(77.5984039722,78.9890619621) scale(1.0,-1.0)"><circle cx="0" cy="0" fill="rgb(255,255,255)" r="11.1968082084" stroke="rgb(153,153,153)" stroke-width="1.11968082084" /><text fill="rgb(153,153,153)" font-size="11.1968082084" text-anchor="middle" x="0" y="2.7992020521">6</text></g><g transform="translate(11.1968082084,194.00000132) scale(1.0,-1.0)"><circle cx="0" cy="0" fill="rgb(255,255,255)" r="11.1968082084" stroke="rgb(153,153,153)" stroke-width="1.11968082084" /><text fill="rgb(153,153,153)" font-size="11.1968082084" text-anchor="middle" x="0" y="2.7992020521">7</text></g><g transform="translate(210.401597084,78.9890630184) scale(1.0,-1.0)"><circle cx="0" cy="0" fill="rgb(255,255,255)" r="11.1968082084" stroke="rgb(153,153,153)" stroke-width="1.11968082084" /><text fill="rgb(153,153,153)" font-size="11.1968082084" text-anchor="middle" x="0" y="2.7992020521">8</text></g><g transform="translate(77.5984029159,309.010936982) scale(1.0,-1.0)"><circle cx="0" cy="0" fill="rgb(255,255,255)" r="11.1968082084" stroke="rgb(153,153,153)" stroke-width="1.11968082084" /><text fill="rgb(153,153,153)" font-size="11.1968082084" text-anchor="middle" x="0" y="2.7992020521">9</text></g><g transform="translate(276.803191792,193.99999868) scale(1.0,-1.0)"><circle cx="0" cy="0" fill="rgb(255,255,255)" r="11.1968082084" stroke="rgb(153,153,153)" stroke-width="1.11968082084" /><text fill="rgb(153,153,153)" font-size="11.1968082084" text-anchor="middle" x="0" y="2.7992020521">10</text></g><g transform="translate(210.401596028,309.010938038) scale(1.0,-1.0)"><circle cx="0" cy="0" fill="rgb(255,255,255)" r="11.1968082084" stroke="rgb(153,153,153)" stroke-width="1.11968082084" /><text fill="rgb(153,153,153)" font-size="11.1968082084" text-anchor="middle" x="0" y="2.7992020521">11</text></g><line stroke="rgb(112,112,112)" stroke-width="5.66178226387" x1="99.3054237196" x2="75.8425310115" y1="141.102959325" y2="181.741882051" /><line stroke="rgb(112,112,112)" stroke-width="5.66178226387" x1="120.537107149" x2="167.462892851" y1="128.844841212" y2="128.844841541" /><line stroke="rgb(132,132,132)" stroke-width="5.07025277361" x1="99.3054236585" x2="83.1968080769" y1="116.586722935" y2="88.6857823116" /><line stroke="rgb(112,112,112)" stroke-width="5.66178226387" x1="75.8425310975" x2="99.3054236336" y1="206.258118427" y2="246.897040196" /><line stroke="rgb(132,132,132)" stroke-width="5.07025277361" x1="54.6108475824" x2="22.3936164168" y1="194.000000524" y2="194.000001115" /><line stroke="rgb(112,112,112)" stroke-width="5.66178226387" x1="188.694576366" x2="212.157468902" y1="141.102959804" y2="181.741881573" /><line stroke="rgb(132,132,132)" stroke-width="5.07025277361" x1="188.694576593" x2="204.803192781" y1="116.586723608" y2="88.6857832532" /><line stroke="rgb(112,112,112)" stroke-width="5.66178226387" x1="120.537107149" x2="167.462892851" y1="259.155158459" y2="259.155158788" /><line stroke="rgb(132,132,132)" stroke-width="5.07025277361" x1="99.3054234075" x2="83.1968072192" y1="271.413276392" y2="299.314216747" /><line stroke="rgb(112,112,112)" stroke-width="5.66178226387" x1="212.157468989" x2="188.69457628" y1="206.258117949" y2="246.897040675" /><g transform="translate(106.382651489,128.844841112) scale(1.0,-1.0)"><circle cx="0" cy="0" fill="rgb(188,188,188)" r="14.1544556597" stroke="rgb(112,112,112)" stroke-width="1.41544556597" /><text fill="rgb(112,112,112)" font-size="14.1544556597" text-anchor="middle" x="0" y="3.53861391492">0</text></g></g><rect fill="rgb(255,255,255)" height="30" rx="2" ry="2" stroke="rgb(50,50,50)" stroke-width="2" width="30" x="220.0" y="10" /><text fill="rgb(50,50,50)" font-size="10" text-anchor="middle" x="227.0" y="20">1</text><text fill="rgb(50,50,50)" font-size="18" text-anchor="middle" x="235.0" y="35">H</text><rect fill="rgb(144,144,144)" height="30" rx="2" ry="2" stroke="rgb(28,28,28)" stroke-width="2" width="30" x="260.0" y="10" /><text fill="rgb(28,28,28)" font-size="10" text-anchor="middle" x="267.0" y="20">6</text><text fill="rgb(28,28,28)" font-size="18" text-anchor="middle" x="275.0" y="35">C</text></g><g transform="translate(300.0,0.0)"><rect fill="rgb(255,255,255)" height="133.0" width="100.0" x="0" y="0" /><g transform="scale(1.0,-1.0) translate(6,-127.0)"><line stroke="rgb(153,153,153)" stroke-width="1.54924390305" x1="57.6566761044" x2="62.5787530876" y1="84.1540568811" y2="92.6793442937" /><line stroke="rgb(153,153,153)" stroke-width="1.54924390305" x1="71.3133521276" x2="81.1575060949" y1="60.49999984" y2="60.4999996593" /><g transform="translate(21.0116204351,60.5000000807) scale(1.0,-1.0)"><circle cx="0" cy="0" fill="rgb(55,55,255)" r="4.32497256268" stroke="rgb(33,33,153)" stroke-width="0.432497256268" /></g><g transform="translate(55.4941898228,40.5914793901) scale(1.0,-1.0)"><circle cx="0" cy="0" fill="rgb(165,165,255)" r="4.32497256268" stroke="rgb(99,99,153)" stroke-width="0.432497256268" /></g><g transform="translate(32.5058101772,80.4085206099) scale(1.0,-1.0)"><circle cx="0" cy="0" fill="rgb(165,165,255)" r="4.32497256268" stroke="rgb(99,99,153)" stroke-width="0.432497256268" /></g><g transform="translate(66.9883795649,60.4999999193) scale(1.0,-1.0)"><circle cx="0" cy="0" fill="rgb(255,255,255)" r="4.32497256268" stroke="rgb(153,153,153)" stroke-width="0.432497256268" /></g><g transform="translate(55.4941898228,80.4085207712) scale(1.0,-1.0)"><circle cx="0" cy="0" fill="rgb(255,255,255)" r="4.32497256268" stroke="rgb(153,153,153)" stroke-width="0.432497256268" /></g><g transform="translate(23.7106234359,25.3577689329) scale(1.0,-1.0)"><circle cx="0" cy="0" fill="rgb(55,55,255)" r="3.42124695256" stroke="rgb(33,33,153)" stroke-width="0.342124695256" /></g><g transform="translate(3.42124695256,60.5000004034) scale(1.0,-1.0)"><circle cx="0" cy="0" fill="rgb(55,55,255)" r="3.42124695256" stroke="rgb(33,33,153)" stroke-width="0.342124695256" /></g><g transform="translate(64.2893768868,25.3577692556) scale(1.0,-1.0)"><circle cx="0" cy="0" fill="rgb(165,165,255)" r="3.42124695256" stroke="rgb(99,99,153)" stroke-width="0.342124695256" /></g><g transform="translate(23.7106231132,95.6422307444) scale(1.0,-1.0)"><circle cx="0" cy="0" fill="rgb(165,165,255)" r="3.42124695256" stroke="rgb(99,99,153)" stroke-width="0.342124695256" /></g><g transform="translate(84.5787530474,60.4999995966) scale(1.0,-1.0)"><circle cx="0" cy="0" fill="rgb(255,255,255)" r="3.42124695256" stroke="rgb(153,153,153)" stroke-width="0.342124695256" /></g><g transform="translate(64.2893765641,95.6422310671) scale(1.0,-1.0)"><circle cx="0" cy="0" fill="rgb(255,255,255)" r="3.42124695256" stroke="rgb(153,153,153)" stroke-width="0.342124695256" /></g><line stroke="rgb(33,33,153)" stroke-width="1.72998902507" x1="30.3433239143" x2="23.174106698" y1="44.3370153494" y2="56.7544639601" /><line stroke="rgb(66,66,153)" stroke-width="1.72998902507" x1="36.8307827399" x2="51.1692172601" y1="40.5914792591" y2="40.5914793598" /><line stroke="rgb(33,33,153)" stroke-width="1.54924390305" x1="30.3433238956" x2="25.4212469124" y1="36.8459431189" y2="28.3206557063" /><line stroke="rgb(66,66,153)" stroke-width="1.72998902507" x1="23.1741067242" x2="30.343323888" y1="64.2455361861" y2="76.6629845044" /><line stroke="rgb(33,33,153)" stroke-width="1.54924390305" x1="16.6866478724" x2="6.84249390513" y1="60.50000016" y2="60.5000003407" /><line stroke="rgb(126,126,153)" stroke-width="1.72998902507" x1="57.656676112" x2="64.8258932758" y1="44.3370154956" y2="56.7544638139" /><line stroke="rgb(99,99,153)" stroke-width="1.54924390305" x1="57.6566761811" x2="62.5787533497" y1="36.8459433246" y2="28.320655994" /><line stroke="rgb(126,126,153)" stroke-width="1.72998902507" x1="36.8307827399" x2="51.1692172601" y1="80.4085206402" y2="80.4085207409" /><line stroke="rgb(99,99,153)" stroke-width="1.54924390305" x1="30.3433238189" x2="25.4212466503" y1="84.1540566754" y2="92.679344006" /><line stroke="rgb(153,153,153)" stroke-width="1.72998902507" x1="64.825893302" x2="57.6566760857" y1="64.2455360399" y2="76.6629846506" /><g transform="translate(32.5058101772,40.5914792288) scale(1.0,-1.0)"><circle cx="0" cy="0" fill="rgb(55,55,255)" r="4.32497256268" stroke="rgb(33,33,153)" stroke-width="0.432497256268" /></g></g></g><g transform="translate(300.0,133.0)"><rect fill="rgb(255,255,255)" height="133.0" width="100.0" x="0" y="0" /><g transform="scale(1.0,-1.0) translate(6,-127.0)"><line stroke="rgb(33,33,153)" stroke-width="1.54924390305" x1="57.6566761044" x2="62.5787530876" y1="84.1540568811" y2="92.6793442937" /><line stroke="rgb(99,99,153)" stroke-width="1.54924390305" x1="71.3133521276" x2="81.1575060949" y1="60.49999984" y2="60.4999996593" /><g transform="translate(21.0116204351,60.5000000807) scale(1.0,-1.0)"><circle cx="0" cy="0" fill="rgb(165,165,255)" r="4.32497256268" stroke="rgb(99,99,153)" stroke-width="0.432497256268" /></g><g transform="translate(55.4941898228,40.5914793901) scale(1.0,-1.0)"><circle cx="0" cy="0" fill="rgb(255,255,255)" r="4.32497256268" stroke="rgb(153,153,153)" stroke-width="0.432497256268" /></g><g transform="translate(32.5058101772,80.4085206099) scale(1.0,-1.0)"><circle cx="0" cy="0" fill="rgb(55,55,255)" r="4.32497256268" stroke="rgb(33,33,153)" stroke-width="0.432497256268" /></g><g transform="translate(66.9883795649,60.4999999193) scale(1.0,-1.0)"><circle cx="0" cy="0" fill="rgb(165,165,255)" r="4.32497256268" stroke="rgb(99,99,153)" stroke-width="0.432497256268" /></g><g transform="translate(55.4941898228,80.4085207712) scale(1.0,-1.0)"><circle cx="0" cy="0" fill="rgb(55,55,255)" r="4.32497256268" stroke="rgb(33,33,153)" stroke-width="0.432497256268" /></g><g transform="translate(23.7106234359,25.3577689329) scale(1.0,-1.0)"><circle cx="0" cy="0" fill="rgb(255,255,255)" r="3.42124695256" stroke="rgb(153,153,153)" stroke-width="0.342124695256" /></g><g transform="translate(3.42124695256,60.5000004034) scale(1.0,-1.0)"><circle cx="0" cy="0" fill="rgb(165,165,255)" r="3.42124695256" stroke="rgb(99,99,153)" stroke-width="0.342124695256" /></g><g transform="translate(64.2893768868,25.3577692556) scale(1.0,-1.0)"><circle cx="0" cy="0" fill="rgb(255,255,255)" r="3.42124695256" stroke="rgb(153,153,153)" stroke-width="0.342124695256" /></g><g transform="translate(23.7106231132,95.6422307444) scale(1.0,-1.0)"><circle cx="0" cy="0" fill="rgb(55,55,255)" r="3.42124695256" stroke="rgb(33,33,153)" stroke-width="0.342124695256" /></g><g transform="translate(84.5787530474,60.4999995966) scale(1.0,-1.0)"><circle cx="0" cy="0" fill="rgb(165,165,255)" r="3.42124695256" stroke="rgb(99,99,153)" stroke-width="0.342124695256" /></g><g transform="translate(64.2893765641,95.6422310671) scale(1.0,-1.0)"><circle cx="0" cy="0" fill="rgb(55,55,255)" r="3.42124695256" stroke="rgb(33,33,153)" stroke-width="0.342124695256" /></g><line stroke="rgb(126,126,153)" stroke-width="1.72998902507" x1="30.3433239143" x2="23.174106698" y1="44.3370153494" y2="56.7544639601" /><line stroke="rgb(153,153,153)" stroke-width="1.72998902507" x1="36.8307827399" x2="51.1692172601" y1="40.5914792591" y2="40.5914793598" /><line stroke="rgb(153,153,153)" stroke-width="1.54924390305" x1="30.3433238956" x2="25.4212469124" y1="36.8459431189" y2="28.3206557063" /><line stroke="rgb(66,66,153)" stroke-width="1.72998902507" x1="23.1741067242" x2="30.343323888" y1="64.2455361861" y2="76.6629845044" /><line stroke="rgb(99,99,153)" stroke-width="1.54924390305" x1="16.6866478724" x2="6.84249390513" y1="60.50000016" y2="60.5000003407" /><line stroke="rgb(126,126,153)" stroke-width="1.72998902507" x1="57.656676112" x2="64.8258932758" y1="44.3370154956" y2="56.7544638139" /><line stroke="rgb(153,153,153)" stroke-width="1.54924390305" x1="57.6566761811" x2="62.5787533497" y1="36.8459433246" y2="28.320655994" /><line stroke="rgb(33,33,153)" stroke-width="1.72998902507" x1="36.8307827399" x2="51.1692172601" y1="80.4085206402" y2="80.4085207409" /><line stroke="rgb(33,33,153)" stroke-width="1.54924390305" x1="30.3433238189" x2="25.4212466503" y1="84.1540566754" y2="92.679344006" /><line stroke="rgb(66,66,153)" stroke-width="1.72998902507" x1="64.825893302" x2="57.6566760857" y1="64.2455360399" y2="76.6629846506" /><g transform="translate(32.5058101772,40.5914792288) scale(1.0,-1.0)"><circle cx="0" cy="0" fill="rgb(255,255,255)" r="4.32497256268" stroke="rgb(153,153,153)" stroke-width="0.432497256268" /></g></g></g><g transform="translate(300.0,266.0)"><rect fill="rgb(255,255,255)" height="133.0" width="100.0" x="0" y="0" /><g transform="scale(1.0,-1.0) translate(6,-127.0)"><line stroke="rgb(99,99,153)" stroke-width="1.54924390305" x1="57.6566761044" x2="62.5787530876" y1="84.1540568811" y2="92.6793442937" /><line stroke="rgb(33,33,153)" stroke-width="1.54924390305" x1="71.3133521276" x2="81.1575060949" y1="60.49999984" y2="60.4999996593" /><g transform="translate(21.0116204351,60.5000000807) scale(1.0,-1.0)"><circle cx="0" cy="0" fill="rgb(255,255,255)" r="4.32497256268" stroke="rgb(153,153,153)" stroke-width="0.432497256268" /></g><g transform="translate(55.4941898228,40.5914793901) scale(1.0,-1.0)"><circle cx="0" cy="0" fill="rgb(55,55,255)" r="4.32497256268" stroke="rgb(33,33,153)" stroke-width="0.432497256268" /></g><g transform="translate(32.5058101772,80.4085206099) scale(1.0,-1.0)"><circle cx="0" cy="0" fill="rgb(255,255,255)" r="4.32497256268" stroke="rgb(153,153,153)" stroke-width="0.432497256268" /></g><g transform="translate(66.9883795649,60.4999999193) scale(1.0,-1.0)"><circle cx="0" cy="0" fill="rgb(55,55,255)" r="4.32497256268" stroke="rgb(33,33,153)" stroke-width="0.432497256268" /></g><g transform="translate(55.4941898228,80.4085207712) scale(1.0,-1.0)"><circle cx="0" cy="0" fill="rgb(165,165,255)" r="4.32497256268" stroke="rgb(99,99,153)" stroke-width="0.432497256268" /></g><g transform="translate(23.7106234359,25.3577689329) scale(1.0,-1.0)"><circle cx="0" cy="0" fill="rgb(165,165,255)" r="3.42124695256" stroke="rgb(99,99,153)" stroke-width="0.342124695256" /></g><g transform="translate(3.42124695256,60.5000004034) scale(1.0,-1.0)"><circle cx="0" cy="0" fill="rgb(255,255,255)" r="3.42124695256" stroke="rgb(153,153,153)" stroke-width="0.342124695256" /></g><g transform="translate(64.2893768868,25.3577692556) scale(1.0,-1.0)"><circle cx="0" cy="0" fill="rgb(55,55,255)" r="3.42124695256" stroke="rgb(33,33,153)" stroke-width="0.342124695256" /></g><g transform="translate(23.7106231132,95.6422307444) scale(1.0,-1.0)"><circle cx="0" cy="0" fill="rgb(255,255,255)" r="3.42124695256" stroke="rgb(153,153,153)" stroke-width="0.342124695256" /></g><g transform="translate(84.5787530474,60.4999995966) scale(1.0,-1.0)"><circle cx="0" cy="0" fill="rgb(55,55,255)" r="3.42124695256" stroke="rgb(33,33,153)" stroke-width="0.342124695256" /></g><g transform="translate(64.2893765641,95.6422310671) scale(1.0,-1.0)"><circle cx="0" cy="0" fill="rgb(165,165,255)" r="3.42124695256" stroke="rgb(99,99,153)" stroke-width="0.342124695256" /></g><line stroke="rgb(126,126,153)" stroke-width="1.72998902507" x1="30.3433239143" x2="23.174106698" y1="44.3370153494" y2="56.7544639601" /><line stroke="rgb(66,66,153)" stroke-width="1.72998902507" x1="36.8307827399" x2="51.1692172601" y1="40.5914792591" y2="40.5914793598" /><line stroke="rgb(99,99,153)" stroke-width="1.54924390305" x1="30.3433238956" x2="25.4212469124" y1="36.8459431189" y2="28.3206557063" /><line stroke="rgb(153,153,153)" stroke-width="1.72998902507" x1="23.1741067242" x2="30.343323888" y1="64.2455361861" y2="76.6629845044" /><line stroke="rgb(153,153,153)" stroke-width="1.54924390305" x1="16.6866478724" x2="6.84249390513" y1="60.50000016" y2="60.5000003407" /><line stroke="rgb(33,33,153)" stroke-width="1.72998902507" x1="57.656676112" x2="64.8258932758" y1="44.3370154956" y2="56.7544638139" /><line stroke="rgb(33,33,153)" stroke-width="1.54924390305" x1="57.6566761811" x2="62.5787533497" y1="36.8459433246" y2="28.320655994" /><line stroke="rgb(126,126,153)" stroke-width="1.72998902507" x1="36.8307827399" x2="51.1692172601" y1="80.4085206402" y2="80.4085207409" /><line stroke="rgb(153,153,153)" stroke-width="1.54924390305" x1="30.3433238189" x2="25.4212466503" y1="84.1540566754" y2="92.679344006" /><line stroke="rgb(66,66,153)" stroke-width="1.72998902507" x1="64.825893302" x2="57.6566760857" y1="64.2455360399" y2="76.6629846506" /><g transform="translate(32.5058101772,40.5914792288) scale(1.0,-1.0)"><circle cx="0" cy="0" fill="rgb(165,165,255)" r="4.32497256268" stroke="rgb(99,99,153)" stroke-width="0.432497256268" /></g></g></g></svg>