<?xml version="1.0" encoding="utf-8" ?>
<svg baseProfile="full" height="400" version="1.1" width="400" xmlns="http://www.w3.org/2000/svg" xmlns:ev="http://www.w3.org/2001/xml-events" xmlns:xlink="http://www.w3.org/1999/xlink"><defs /><g transform="translate(0.0,0.0)"><rect fill="rgb(255,255,255)" height="400.0" width="266.666666667" x="0" y="0" /><g transform="scale(1.0,-1.0) translate(6,-394.0)"><line stroke="rgb(112,112,112)" stroke-width="4.94416035923" x1="39.0296096373" x2="18.5406012943" y1="147.807575171" y2="183.295579021" /><line stroke="rgb(112,112,112)" stroke-width="4.94416035923" x1="39.0296095621" x2="18.5406013695" y1="240.192424412" y2="204.704421396" /><g transform="translate(209.456856633,194.000000231) scale(1.0,-1.0)"><circle cx="0" cy="0" fill="rgb(188,188,188)" r="12.3604008981" stroke="rgb(112,112,112)" stroke-width="1.23604008981" /><text fill="rgb(112,112,112)" font-size="12.3604008981" text-anchor="middle" x="0" y="3.09010022452">1</text></g><g transform="translate(110.908628766,250.896846039) scale(1.0,-1.0)"><circle cx="0" cy="0" fill="rgb(188,188,188)" r="12.3604008981" stroke="rgb(112,112,112)" stroke-width="1.23604008981" /><text fill="rgb(112,112,112)" font-size="12.3604008981" text-anchor="middle" x="0" y="3.09010022452">2</text></g><g transform="translate(143.758037901,307.793691385) scale(1.0,-1.0)"><circle cx="0" cy="0" fill="rgb(188,188,188)" r="12.3604008981" stroke="rgb(112,112,112)" stroke-width="1.23604008981" /><text fill="rgb(112,112,112)" font-size="12.3604008981" text-anchor="middle" x="0" y="3.09010022452">3</text></g><g transform="translate(242.306265769,250.896845577) scale(1.0,-1.0)"><circle cx="0" cy="0" fill="rgb(188,188,188)" r="12.3604008981" stroke="rgb(112,112,112)" stroke-width="1.23604008981" /><text fill="rgb(112,112,112)" font-size="12.3604008981" text-anchor="middle" x="0" y="3.09010022452">4</text></g><g transform="translate(209.456856633,307.793691847) scale(1.0,-1.0)"><circle cx="0" cy="0" fill="rgb(188,188,188)" r="12.3604008981" stroke="rgb(112,112,112)" stroke-width="1.23604008981" /><text fill="rgb(112,112,112)" font-size="12.3604008981" text-anchor="middle" x="0" y="3.09010022452">5</text></g><g transform="translate(110.908628766,137.103154423) scale(1.0,-1.0)"><circle cx="0" cy="0" fill="rgb(188,188,188)" r="12.3604008981" stroke="rgb(112,112,112)" stroke-width="1.23604008981" /><text fill="rgb(112,112,112)" font-size="12.3604008981" text-anchor="middle" x="0" y="3.09010022452">6</text></g><g transform="translate(242.306265769,137.103153961) scale(1.0,-1.0)"><circle cx="0" cy="0" fill="rgb(188,188,188)" r="12.3604008981" stroke="rgb(112,112,112)" stroke-width="1.23604008981" /><text fill="rgb(112,112,112)" font-size="12.3604008981" text-anchor="middle" x="0" y="3.09010022452">7</text></g><g transform="translate(143.758037901,80.2063081533) scale(1.0,-1.0)"><circle cx="0" cy="0" fill="rgb(188,188,188)" r="12.3604008981" stroke="rgb(112,112,112)" stroke-width="1.23604008981" /><text fill="rgb(112,112,112)" font-size="12.3604008981" text-anchor="middle" x="0" y="3.09010022452">8</text></g><g transform="translate(209.456856633,80.2063086146) scale(1.0,-1.0)"><circle cx="0" cy="0" fill="rgb(188,188,188)" r="12.3604008981" stroke="rgb(112,112,112)" stroke-width="1.23604008981" /><text fill="rgb(112,112,112)" font-size="12.3604008981" text-anchor="middle" x="0" y="3.09010022452">9</text></g><g transform="translate(45.2098100335,250.896845577) scale(1.0,-1.0)"><circle cx="0" cy="0" fill="rgb(188,188,188)" r="12.3604008981" stroke="rgb(112,112,112)" stroke-width="1.23604008981" /><text fill="rgb(112,112,112)" font-size="12.3604008981" text-anchor="middle" x="0" y="3.09010022452">10</text></g><g transform="translate(45.2098100335,137.103153961) scale(1.0,-1.0)"><circle cx="0" cy="0" fill="rgb(188,188,188)" r="12.3604008981" stroke="rgb(112,112,112)" stroke-width="1.23604008981" /><text fill="rgb(112,112,112)" font-size="12.3604008981" text-anchor="middle" x="0" y="3.09010022452">11</text></g><g transform="translate(12.3604008981,194.000000231) scale(1.0,-1.0)"><circle cx="0" cy="0" fill="rgb(188,188,188)" r="12.3604008981" stroke="rgb(112,112,112)" stroke-width="1.23604008981" /><text fill="rgb(112,112,112)" font-size="12.3604008981" text-anchor="middle" x="0" y="3.09010022452">12</text></g><line stroke="rgb(112,112,112)" stroke-width="4.94416035923" x1="156.118438799" x2="197.096455735" y1="193.999999856" y2="194.000000144" /><line stroke="rgb(112,112,112)" stroke-width="4.94416035923" x1="137.577837505" x2="117.088829162" y1="204.704420979" y2="240.192424829" /><line stroke="rgb(112,112,112)" stroke-width="4.94416035923" x1="137.57783743" x2="117.088829237" y1="183.295578604" y2="147.807575588" /><line stroke="rgb(112,112,112)" stroke-width="4.94416035923" x1="215.637057105" x2="236.126065297" y1="204.704421396" y2="240.192424412" /><line stroke="rgb(112,112,112)" stroke-width="4.94416035923" x1="215.637057029" x2="236.126065372" y1="183.295579021" y2="147.807575171" /><line stroke="rgb(112,112,112)" stroke-width="4.94416035923" x1="117.088829237" x2="137.57783743" y1="261.601267204" y2="297.08927022" /><line stroke="rgb(112,112,112)" stroke-width="4.94416035923" x1="98.5482278675" x2="57.5702109316" y1="250.896845952" y2="250.896845664" /><line stroke="rgb(112,112,112)" stroke-width="4.94416035923" x1="156.118438799" x2="197.096455735" y1="307.793691472" y2="307.79369176" /><line stroke="rgb(112,112,112)" stroke-width="4.94416035923" x1="236.126065372" x2="215.637057029" y1="261.601266787" y2="297.089270637" /><line stroke="rgb(112,112,112)" stroke-width="4.94416035923" x1="117.088829162" x2="137.577837505" y1="126.398733213" y2="90.9107293625" /><line stroke="rgb(112,112,112)" stroke-width="4.94416035923" x1="98.5482278675" x2="57.5702109316" y1="137.103154336" y2="137.103154048" /><line stroke="rgb(112,112,112)" stroke-width="4.94416035923" x1="236.126065297" x2="215.637057105" y1="126.398732796" y2="90.9107297803" /><line stroke="rgb(112,112,112)" stroke-width="4.94416035923" x1="156.118438799" x2="197.096455735" y1="80.2063082401" y2="80.2063085278" /><g transform="translate(143.758037901,193.999999769) scale(1.0,-1.0)"><circle cx="0" cy="0" fill="rgb(188,188,188)" r="12.3604008981" stroke="rgb(112,112,112)" stroke-width="1.23604008981" /><text fill="rgb(112,112,112)" font-size="12.3604008981" text-anchor="middle" x="0" y="3.09010022452">0</text></g></g><rect fill="rgb(144,144,144)" height="30" rx="2" ry="2" stroke="rgb(28,28,28)" stroke-width="2" width="30" x="226.666666667" y="10" /><text fill="rgb(28,28,28)" font-size="10" text-anchor="middle" x="233.666666667" y="20">6</text><text fill="rgb(28,28,28)" font-size="18" text-anchor="middle" x="241.666666667" y="35">C</text></g><g transform="translate(266.666666667,0.0)"><rect fill="rgb(255,255,255)" height="100.0" width="66.6666666667" x="0" y="0" /><g transform="scale(1.0,-1.0) translate(6,-94.0)"><line stroke="rgb(153,153,153)" stroke-width="1.06131190957" x1="8.37808374413" x2="3.97991964956" y1="34.0843485968" y2="41.7021923554" /><line stroke="rgb(153,153,153)" stroke-width="1.06131190957" x1="8.378083728" x2="3.97991966569" y1="53.9156513135" y2="46.2978077343" /><g transform="translate(44.9619430469,44.0000000495) scale(1.0,-1.0)"><circle cx="0" cy="0" fill="rgb(55,55,255)" r="2.65327977393" stroke="rgb(33,33,153)" stroke-width="0.265327977393" /></g><g transform="translate(23.8076114104,56.2134590973) scale(1.0,-1.0)"><circle cx="0" cy="0" fill="rgb(255,255,255)" r="2.65327977393" stroke="rgb(153,153,153)" stroke-width="0.265327977393" /></g><g transform="translate(30.8590552562,68.4269180461) scale(1.0,-1.0)"><circle cx="0" cy="0" fill="rgb(255,255,255)" r="2.65327977393" stroke="rgb(153,153,153)" stroke-width="0.265327977393" /></g><g transform="translate(52.0133868927,56.2134589983) scale(1.0,-1.0)"><circle cx="0" cy="0" fill="rgb(165,165,255)" r="2.65327977393" stroke="rgb(99,99,153)" stroke-width="0.265327977393" /></g><g transform="translate(44.9619430469,68.4269181451) scale(1.0,-1.0)"><circle cx="0" cy="0" fill="rgb(255,255,255)" r="2.65327977393" stroke="rgb(153,153,153)" stroke-width="0.265327977393" /></g><g transform="translate(23.8076114104,31.7865410017) scale(1.0,-1.0)"><circle cx="0" cy="0" fill="rgb(255,255,255)" r="2.65327977393" stroke="rgb(153,153,153)" stroke-width="0.265327977393" /></g><g transform="translate(52.0133868927,31.7865409027) scale(1.0,-1.0)"><circle cx="0" cy="0" fill="rgb(55,55,255)" r="2.65327977393" stroke="rgb(33,33,153)" stroke-width="0.265327977393" /></g><g transform="translate(30.8590552562,19.5730818549) scale(1.0,-1.0)"><circle cx="0" cy="0" fill="rgb(255,255,255)" r="2.65327977393" stroke="rgb(153,153,153)" stroke-width="0.265327977393" /></g><g transform="translate(44.9619430469,19.5730819539) scale(1.0,-1.0)"><circle cx="0" cy="0" fill="rgb(165,165,255)" r="2.65327977393" stroke="rgb(99,99,153)" stroke-width="0.265327977393" /></g><g transform="translate(9.70472361976,56.2134589983) scale(1.0,-1.0)"><circle cx="0" cy="0" fill="rgb(255,255,255)" r="2.65327977393" stroke="rgb(153,153,153)" stroke-width="0.265327977393" /></g><g transform="translate(9.70472361976,31.7865409027) scale(1.0,-1.0)"><circle cx="0" cy="0" fill="rgb(255,255,255)" r="2.65327977393" stroke="rgb(153,153,153)" stroke-width="0.265327977393" /></g><g transform="translate(2.65327977393,44.0000000495) scale(1.0,-1.0)"><circle cx="0" cy="0" fill="rgb(255,255,255)" r="2.65327977393" stroke="rgb(153,153,153)" stroke-width="0.265327977393" /></g><line stroke="rgb(66,66,153)" stroke-width="1.06131190957" x1="33.5123350302" x2="42.308663273" y1="43.9999999691" y2="44.0000000309" /><line stroke="rgb(126,126,153)" stroke-width="1.06131190957" x1="29.5324153806" x2="25.1342512861" y1="46.2978076446" y2="53.9156514032" /><line stroke="rgb(126,126,153)" stroke-width="1.06131190957" x1="29.5324153645" x2="25.1342513022" y1="41.7021922657" y2="34.0843486865" /><line stroke="rgb(66,66,153)" stroke-width="1.06131190957" x1="46.2885829387" x2="50.686747001" y1="46.2978077343" y2="53.9156513135" /><line stroke="rgb(33,33,153)" stroke-width="1.06131190957" x1="46.2885829225" x2="50.6867470171" y1="41.7021923554" y2="34.0843485968" /><line stroke="rgb(153,153,153)" stroke-width="1.06131190957" x1="25.1342513022" x2="29.5324153645" y1="58.5112667821" y2="66.1291103613" /><line stroke="rgb(153,153,153)" stroke-width="1.06131190957" x1="21.1543316365" x2="12.3580033937" y1="56.2134590787" y2="56.2134590169" /><line stroke="rgb(153,153,153)" stroke-width="1.06131190957" x1="33.5123350302" x2="42.308663273" y1="68.4269180647" y2="68.4269181265" /><line stroke="rgb(126,126,153)" stroke-width="1.06131190957" x1="50.6867470171" x2="46.2885829225" y1="58.5112666924" y2="66.129110451" /><line stroke="rgb(153,153,153)" stroke-width="1.06131190957" x1="25.1342512861" x2="29.5324153806" y1="29.4887333076" y2="21.870889549" /><line stroke="rgb(153,153,153)" stroke-width="1.06131190957" x1="21.1543316365" x2="12.3580033937" y1="31.7865409831" y2="31.7865409213" /><line stroke="rgb(66,66,153)" stroke-width="1.06131190957" x1="50.686747001" x2="46.2885829387" y1="29.4887332179" y2="21.8708896387" /><line stroke="rgb(126,126,153)" stroke-width="1.06131190957" x1="33.5123350302" x2="42.308663273" y1="19.5730818735" y2="19.5730819353" /><g transform="translate(30.8590552562,43.9999999505) scale(1.0,-1.0)"><circle cx="0" cy="0" fill="rgb(165,165,255)" r="2.65327977393" stroke="rgb(99,99,153)" stroke-width="0.265327977393" /></g></g></g><g transform="translate(266.666666667,100.0)"><rect fill="rgb(255,255,255)" height="100.0" width="66.6666666667" x="0" y="0" /><g transform="scale(1.0,-1.0) translate(6,-94.0)"><line stroke="rgb(126,126,153)" stroke-width="1.06131190957" x1="8.37808374413" x2="3.97991964956" y1="34.0843485968" y2="41.7021923554" /><line stroke="rgb(153,153,153)" stroke-width="1.06131190957" x1="8.378083728" x2="3.97991966569" y1="53.9156513135" y2="46.2978077343" /><g transform="translate(44.9619430469,44.0000000495) scale(1.0,-1.0)"><circle cx="0" cy="0" fill="rgb(255,255,255)" r="2.65327977393" stroke="rgb(153,153,153)" stroke-width="0.265327977393" /></g><g transform="translate(23.8076114104,56.2134590973) scale(1.0,-1.0)"><circle cx="0" cy="0" fill="rgb(255,255,255)" r="2.65327977393" stroke="rgb(153,153,153)" stroke-width="0.265327977393" /></g><g transform="translate(30.8590552562,68.4269180461) scale(1.0,-1.0)"><circle cx="0" cy="0" fill="rgb(255,255,255)" r="2.65327977393" stroke="rgb(153,153,153)" stroke-width="0.265327977393" /></g><g transform="translate(52.0133868927,56.2134589983) scale(1.0,-1.0)"><circle cx="0" cy="0" fill="rgb(255,255,255)" r="2.65327977393" stroke="rgb(153,153,153)" stroke-width="0.265327977393" /></g><g transform="translate(44.9619430469,68.4269181451) scale(1.0,-1.0)"><circle cx="0" cy="0" fill="rgb(255,255,255)" r="2.65327977393" stroke="rgb(153,153,153)" stroke-width="0.265327977393" /></g><g transform="translate(23.8076114104,31.7865410017) scale(1.0,-1.0)"><circle cx="0" cy="0" fill="rgb(55,55,255)" r="2.65327977393" stroke="rgb(33,33,153)" stroke-width="0.265327977393" /></g><g transform="translate(52.0133868927,31.7865409027) scale(1.0,-1.0)"><circle cx="0" cy="0" fill="rgb(255,255,255)" r="2.65327977393" stroke="rgb(153,153,153)" stroke-width="0.265327977393" /></g><g transform="translate(30.8590552562,19.5730818549) scale(1.0,-1.0)"><circle cx="0" cy="0" fill="rgb(55,55,255)" r="2.65327977393" stroke="rgb(33,33,153)" stroke-width="0.265327977393" /></g><g transform="translate(44.9619430469,19.5730819539) scale(1.0,-1.0)"><circle cx="0" cy="0" fill="rgb(165,165,255)" r="2.65327977393" stroke="rgb(99,99,153)" stroke-width="0.265327977393" /></g><g transform="translate(9.70472361976,56.2134589983) scale(1.0,-1.0)"><circle cx="0" cy="0" fill="rgb(255,255,255)" r="2.65327977393" stroke="rgb(153,153,153)" stroke-width="0.265327977393" /></g><g transform="translate(9.70472361976,31.7865409027) scale(1.0,-1.0)"><circle cx="0" cy="0" fill="rgb(165,165,255)" r="2.65327977393" stroke="rgb(99,99,153)" stroke-width="0.265327977393" /></g><g transform="translate(2.65327977393,44.0000000495) scale(1.0,-1.0)"><circle cx="0" cy="0" fill="rgb(255,255,255)" r="2.65327977393" stroke="rgb(153,153,153)" stroke-width="0.265327977393" /></g><line stroke="rgb(126,126,153)" stroke-width="1.06131190957" x1="33.5123350302" x2="42.308663273" y1="43.9999999691" y2="44.0000000309" /><line stroke="rgb(126,126,153)" stroke-width="1.06131190957" x1="29.5324153806" x2="25.1342512861" y1="46.2978076446" y2="53.9156514032" /><line stroke="rgb(66,66,153)" stroke-width="1.06131190957" x1="29.5324153645" x2="25.1342513022" y1="41.7021922657" y2="34.0843486865" /><line stroke="rgb(153,153,153)" stroke-width="1.06131190957" x1="46.2885829387" x2="50.686747001" y1="46.2978077343" y2="53.9156513135" /><line stroke="rgb(153,153,153)" stroke-width="1.06131190957" x1="46.2885829225" x2="50.6867470171" y1="41.7021923554" y2="34.0843485968" /><line stroke="rgb(153,153,153)" stroke-width="1.06131190957" x1="25.1342513022" x2="29.5324153645" y1="58.5112667821" y2="66.1291103613" /><line stroke="rgb(153,153,153)" stroke-width="1.06131190957" x1="21.1543316365" x2="12.3580033937" y1="56.2134590787" y2="56.2134590169" /><line stroke="rgb(153,153,153)" stroke-width="1.06131190957" x1="33.5123350302" x2="42.308663273" y1="68.4269180647" y2="68.4269181265" /><line stroke="rgb(153,153,153)" stroke-width="1.06131190957" x1="50.6867470171" x2="46.2885829225" y1="58.5112666924" y2="66.129110451" /><line stroke="rgb(33,33,153)" stroke-width="1.06131190957" x1="25.1342512861" x2="29.5324153806" y1="29.4887333076" y2="21.870889549" /><line stroke="rgb(66,66,153)" stroke-width="1.06131190957" x1="21.1543316365" x2="12.3580033937" y1="31.7865409831" y2="31.7865409213" /><line stroke="rgb(126,126,153)" stroke-width="1.06131190957" x1="50.686747001" x2="46.2885829387" y1="29.4887332179" y2="21.8708896387" /><line stroke="rgb(66,66,153)" stroke-width="1.06131190957" x1="33.5123350302" x2="42.308663273" y1="19.5730818735" y2="19.5730819353" /><g transform="translate(30.8590552562,43.9999999505) scale(1.0,-1.0)"><circle cx="0" cy="0" fill="rgb(165,165,255)" r="2.65327977393" stroke="rgb(99,99,153)" stroke-width="0.265327977393" /></g></g></g><g transform="translate(266.666666667,200.0)"><rect fill="rgb(255,255,255)" height="100.0" width="66.6666666667" x="0" y="0" /><g transform="scale(1.0,-1.0) translate(6,-94.0)"><line stroke="rgb(153,153,153)" stroke-width="1.06131190957" x1="8.37808374413" x2="3.97991964956" y1="34.0843485968" y2="41.7021923554" /><line stroke="rgb(153,153,153)" stroke-width="1.06131190957" x1="8.378083728" x2="3.97991966569" y1="53.9156513135" y2="46.2978077343" /><g transform="translate(44.9619430469,44.0000000495) scale(1.0,-1.0)"><circle cx="0" cy="0" fill="rgb(255,255,255)" r="2.65327977393" stroke="rgb(153,153,153)" stroke-width="0.265327977393" /></g><g transform="translate(23.8076114104,56.2134590973) scale(1.0,-1.0)"><circle cx="0" cy="0" fill="rgb(255,255,255)" r="2.65327977393" stroke="rgb(153,153,153)" stroke-width="0.265327977393" /></g><g transform="translate(30.8590552562,68.4269180461) scale(1.0,-1.0)"><circle cx="0" cy="0" fill="rgb(255,255,255)" r="2.65327977393" stroke="rgb(153,153,153)" stroke-width="0.265327977393" /></g><g transform="translate(52.0133868927,56.2134589983) scale(1.0,-1.0)"><circle cx="0" cy="0" fill="rgb(255,255,255)" r="2.65327977393" stroke="rgb(153,153,153)" stroke-width="0.265327977393" /></g><g transform="translate(44.9619430469,68.4269181451) scale(1.0,-1.0)"><circle cx="0" cy="0" fill="rgb(255,255,255)" r="2.65327977393" stroke="rgb(153,153,153)" stroke-width="0.265327977393" /></g><g transform="translate(23.8076114104,31.7865410017) scale(1.0,-1.0)"><circle cx="0" cy="0" fill="rgb(255,255,255)" r="2.65327977393" stroke="rgb(153,153,153)" stroke-width="0.265327977393" /></g><g transform="translate(52.0133868927,31.7865409027) scale(1.0,-1.0)"><circle cx="0" cy="0" fill="rgb(165,165,255)" r="2.65327977393" stroke="rgb(99,99,153)" stroke-width="0.265327977393" /></g><g transform="translate(30.8590552562,19.5730818549) scale(1.0,-1.0)"><circle cx="0" cy="0" fill="rgb(165,165,255)" r="2.65327977393" stroke="rgb(99,99,153)" stroke-width="0.265327977393" /></g><g transform="translate(44.9619430469,19.5730819539) scale(1.0,-1.0)"><circle cx="0" cy="0" fill="rgb(55,55,255)" r="2.65327977393" stroke="rgb(33,33,153)" stroke-width="0.265327977393" /></g><g transform="translate(9.70472361976,56.2134589983) scale(1.0,-1.0)"><circle cx="0" cy="0" fill="rgb(255,255,255)" r="2.65327977393" stroke="rgb(153,153,153)" stroke-width="0.265327977393" /></g><g transform="translate(9.70472361976,31.7865409027) scale(1.0,-1.0)"><circle cx="0" cy="0" fill="rgb(255,255,255)" r="2.65327977393" stroke="rgb(153,153,153)" stroke-width="0.265327977393" /></g><g transform="translate(2.65327977393,44.0000000495) scale(1.0,-1.0)"><circle cx="0" cy="0" fill="rgb(255,255,255)" r="2.65327977393" stroke="rgb(153,153,153)" stroke-width="0.265327977393" /></g><line stroke="rgb(153,153,153)" stroke-width="1.06131190957" x1="33.5123350302" x2="42.308663273" y1="43.9999999691" y2="44.0000000309" /><line stroke="rgb(153,153,153)" stroke-width="1.06131190957" x1="29.5324153806" x2="25.1342512861" y1="46.2978076446" y2="53.9156514032" /><line stroke="rgb(153,153,153)" stroke-width="1.06131190957" x1="29.5324153645" x2="25.1342513022" y1="41.7021922657" y2="34.0843486865" /><line stroke="rgb(153,153,153)" stroke-width="1.06131190957" x1="46.2885829387" x2="50.686747001" y1="46.2978077343" y2="53.9156513135" /><line stroke="rgb(126,126,153)" stroke-width="1.06131190957" x1="46.2885829225" x2="50.6867470171" y1="41.7021923554" y2="34.0843485968" /><line stroke="rgb(153,153,153)" stroke-width="1.06131190957" x1="25.1342513022" x2="29.5324153645" y1="58.5112667821" y2="66.1291103613" /><line stroke="rgb(153,153,153)" stroke-width="1.06131190957" x1="21.1543316365" x2="12.3580033937" y1="56.2134590787" y2="56.2134590169" /><line stroke="rgb(153,153,153)" stroke-width="1.06131190957" x1="33.5123350302" x2="42.308663273" y1="68.4269180647" y2="68.4269181265" /><line stroke="rgb(153,153,153)" stroke-width="1.06131190957" x1="50.6867470171" x2="46.2885829225" y1="58.5112666924" y2="66.129110451" /><line stroke="rgb(126,126,153)" stroke-width="1.06131190957" x1="25.1342512861" x2="29.5324153806" y1="29.4887333076" y2="21.870889549" /><line stroke="rgb(153,153,153)" stroke-width="1.06131190957" x1="21.1543316365" x2="12.3580033937" y1="31.7865409831" y2="31.7865409213" /><line stroke="rgb(66,66,153)" stroke-width="1.06131190957" x1="50.686747001" x2="46.2885829387" y1="29.4887332179" y2="21.8708896387" /><line stroke="rgb(66,66,153)" stroke-width="1.06131190957" x1="33.5123350302" x2="42.308663273" y1="19.5730818735" y2="19.5730819353" /><g transform="translate(30.8590552562,43.9999999505) scale(1.0,-1.0)"><circle cx="0" cy="0" fill="rgb(255,255,255)" r="2.65327977393" stroke="rgb(153,153,153)" stroke-width="0.265327977393" /></g></g></g><g transform="translate(266.666666667,300.0)"><rect fill="rgb(255,255,255)" height="100.0" width="66.6666666667" x="0" y="0" /><g transform="scale(1.0,-1.0) translate(6,-94.0)"><line stroke="rgb(33,33,153)" stroke-width="1.06131190957" x1="8.37808374413" x2="3.97991964956" y1="34.0843485968" y2="41.7021923554" /><line stroke="rgb(66,66,153)" stroke-width="1.06131190957" x1="8.378083728" x2="3.97991966569" y1="53.9156513135" y2="46.2978077343" /><g transform="translate(44.9619430469,44.0000000495) scale(1.0,-1.0)"><circle cx="0" cy="0" fill="rgb(255,255,255)" r="2.65327977393" stroke="rgb(153,153,153)" stroke-width="0.265327977393" /></g><g transform="translate(23.8076114104,56.2134590973) scale(1.0,-1.0)"><circle cx="0" cy="0" fill="rgb(255,255,255)" r="2.65327977393" stroke="rgb(153,153,153)" stroke-width="0.265327977393" /></g><g transform="translate(30.8590552562,68.4269180461) scale(1.0,-1.0)"><circle cx="0" cy="0" fill="rgb(255,255,255)" r="2.65327977393" stroke="rgb(153,153,153)" stroke-width="0.265327977393" /></g><g transform="translate(52.0133868927,56.2134589983) scale(1.0,-1.0)"><circle cx="0" cy="0" fill="rgb(255,255,255)" r="2.65327977393" stroke="rgb(153,153,153)" stroke-width="0.265327977393" /></g><g transform="translate(44.9619430469,68.4269181451) scale(1.0,-1.0)"><circle cx="0" cy="0" fill="rgb(255,255,255)" r="2.65327977393" stroke="rgb(153,153,153)" stroke-width="0.265327977393" /></g><g transform="translate(23.8076114104,31.7865410017) scale(1.0,-1.0)"><circle cx="0" cy="0" fill="rgb(165,165,255)" r="2.65327977393" stroke="rgb(99,99,153)" stroke-width="0.265327977393" /></g><g transform="translate(52.0133868927,31.7865409027) scale(1.0,-1.0)"><circle cx="0" cy="0" fill="rgb(255,255,255)" r="2.65327977393" stroke="rgb(153,153,153)" stroke-width="0.265327977393" /></g><g transform="translate(30.8590552562,19.5730818549) scale(1.0,-1.0)"><circle cx="0" cy="0" fill="rgb(255,255,255)" r="2.65327977393" stroke="rgb(153,153,153)" stroke-width="0.265327977393" /></g><g transform="translate(44.9619430469,19.5730819539) scale(1.0,-1.0)"><circle cx="0" cy="0" fill="rgb(255,255,255)" r="2.65327977393" stroke="rgb(153,153,153)" stroke-width="0.265327977393" /></g><g transform="translate(9.70472361976,56.2134589983) scale(1.0,-1.0)"><circle cx="0" cy="0" fill="rgb(165,165,255)" r="2.65327977393" stroke="rgb(99,99,153)" stroke-width="0.265327977393" /></g><g transform="translate(9.70472361976,31.7865409027) scale(1.0,-1.0)"><circle cx="0" cy="0" fill="rgb(55,55,255)" r="2.65327977393" stroke="rgb(33,33,153)" stroke-width="0.265327977393" /></g><g transform="translate(2.65327977393,44.0000000495) scale(1.0,-1.0)"><circle cx="0" cy="0" fill="rgb(55,55,255)" r="2.65327977393" stroke="rgb(33,33,153)" stroke-width="0.265327977393" /></g><line stroke="rgb(153,153,153)" stroke-width="1.06131190957" x1="33.5123350302" x2="42.308663273" y1="43.9999999691" y2="44.0000000309" /><line stroke="rgb(153,153,153)" stroke-width="1.06131190957" x1="29.5324153806" x2="25.1342512861" y1="46.2978076446" y2="53.9156514032" /><line stroke="rgb(126,126,153)" stroke-width="1.06131190957" x1="29.5324153645" x2="25.1342513022" y1="41.7021922657" y2="34.0843486865" /><line stroke="rgb(153,153,153)" stroke-width="1.06131190957" x1="46.2885829387" x2="50.686747001" y1="46.2978077343" y2="53.9156513135" /><line stroke="rgb(153,153,153)" stroke-width="1.06131190957" x1="46.2885829225" x2="50.6867470171" y1="41.7021923554" y2="34.0843485968" /><line stroke="rgb(153,153,153)" stroke-width="1.06131190957" x1="25.1342513022" x2="29.5324153645" y1="58.5112667821" y2="66.1291103613" /><line stroke="rgb(126,126,153)" stroke-width="1.06131190957" x1="21.1543316365" x2="12.3580033937" y1="56.2134590787" y2="56.2134590169" /><line stroke="rgb(153,153,153)" stroke-width="1.06131190957" x1="33.5123350302" x2="42.308663273" y1="68.4269180647" y2="68.4269181265" /><line stroke="rgb(153,153,153)" stroke-width="1.06131190957" x1="50.6867470171" x2="46.2885829225" y1="58.5112666924" y2="66.129110451" /><line stroke="rgb(126,126,153)" stroke-width="1.06131190957" x1="25.1342512861" x2="29.5324153806" y1="29.4887333076" y2="21.870889549" /><line stroke="rgb(66,66,153)" stroke-width="1.06131190957" x1="21.1543316365" x2="12.3580033937" y1="31.7865409831" y2="31.7865409213" /><line stroke="rgb(153,153,153)" stroke-width="1.06131190957" x1="50.686747001" x2="46.2885829387" y1="29.4887332179" y2="21.8708896387" /><line stroke="rgb(153,153,153)" stroke-width="1.06131190957" x1="33.5123350302" x2="42.308663273" y1="19.5730818735" y2="19.5730819353" /><g transform="translate(30.8590552562,43.9999999505) scale(1.0,-1.0)"><circle cx="0" cy="0" fill="rgb(255,255,255)" r="2.65327977393" stroke="rgb(153,153,153)" stroke-width="0.265327977393" /></g></g></g><g transform="translate(333.333333333,0.0)"><rect fill="rgb(255,255,255)" height="100.0" width="66.6666666667" x="0" y="0" /><g transform="scale(1.0,-1.0) translate(6,-94.0)"><line stroke="rgb(153,153,153)" stroke-width="1.06131190957" x1="8.37808374413" x2="3.97991964956" y1="34.0843485968" y2="41.7021923554" /><line stroke="rgb(126,126,153)" stroke-width="1.06131190957" x1="8.378083728" x2="3.97991966569" y1="53.9156513135" y2="46.2978077343" /><g transform="translate(44.9619430469,44.0000000495) scale(1.0,-1.0)"><circle cx="0" cy="0" fill="rgb(165,165,255)" r="2.65327977393" stroke="rgb(99,99,153)" stroke-width="0.265327977393" /></g><g transform="translate(23.8076114104,56.2134590973) scale(1.0,-1.0)"><circle cx="0" cy="0" fill="rgb(55,55,255)" r="2.65327977393" stroke="rgb(33,33,153)" stroke-width="0.265327977393" /></g><g transform="translate(30.8590552562,68.4269180461) scale(1.0,-1.0)"><circle cx="0" cy="0" fill="rgb(165,165,255)" r="2.65327977393" stroke="rgb(99,99,153)" stroke-width="0.265327977393" /></g><g transform="translate(52.0133868927,56.2134589983) scale(1.0,-1.0)"><circle cx="0" cy="0" fill="rgb(255,255,255)" r="2.65327977393" stroke="rgb(153,153,153)" stroke-width="0.265327977393" /></g><g transform="translate(44.9619430469,68.4269181451) scale(1.0,-1.0)"><circle cx="0" cy="0" fill="rgb(255,255,255)" r="2.65327977393" stroke="rgb(153,153,153)" stroke-width="0.265327977393" /></g><g transform="translate(23.8076114104,31.7865410017) scale(1.0,-1.0)"><circle cx="0" cy="0" fill="rgb(165,165,255)" r="2.65327977393" stroke="rgb(99,99,153)" stroke-width="0.265327977393" /></g><g transform="translate(52.0133868927,31.7865409027) scale(1.0,-1.0)"><circle cx="0" cy="0" fill="rgb(255,255,255)" r="2.65327977393" stroke="rgb(153,153,153)" stroke-width="0.265327977393" /></g><g transform="translate(30.8590552562,19.5730818549) scale(1.0,-1.0)"><circle cx="0" cy="0" fill="rgb(255,255,255)" r="2.65327977393" stroke="rgb(153,153,153)" stroke-width="0.265327977393" /></g><g transform="translate(44.9619430469,19.5730819539) scale(1.0,-1.0)"><circle cx="0" cy="0" fill="rgb(255,255,255)" r="2.65327977393" stroke="rgb(153,153,153)" stroke-width="0.265327977393" /></g><g transform="translate(9.70472361976,56.2134589983) scale(1.0,-1.0)"><circle cx="0" cy="0" fill="rgb(165,165,255)" r="2.65327977393" stroke="rgb(99,99,153)" stroke-width="0.265327977393" /></g><g transform="translate(9.70472361976,31.7865409027) scale(1.0,-1.0)"><circle cx="0" cy="0" fill="rgb(255,255,255)" r="2.65327977393" stroke="rgb(153,153,153)" stroke-width="0.265327977393" /></g><g transform="translate(2.65327977393,44.0000000495) scale(1.0,-1.0)"><circle cx="0" cy="0" fill="rgb(255,255,255)" r="2.65327977393" stroke="rgb(153,153,153)" stroke-width="0.265327977393" /></g><line stroke="rgb(66,66,153)" stroke-width="1.06131190957" x1="33.5123350302" x2="42.308663273" y1="43.9999999691" y2="44.0000000309" /><line stroke="rgb(33,33,153)" stroke-width="1.06131190957" x1="29.5324153806" x2="25.1342512861" y1="46.2978076446" y2="53.9156514032" /><line stroke="rgb(66,66,153)" stroke-width="1.06131190957" x1="29.5324153645" x2="25.1342513022" y1="41.7021922657" y2="34.0843486865" /><line stroke="rgb(126,126,153)" stroke-width="1.06131190957" x1="46.2885829387" x2="50.686747001" y1="46.2978077343" y2="53.9156513135" /><line stroke="rgb(126,126,153)" stroke-width="1.06131190957" x1="46.2885829225" x2="50.6867470171" y1="41.7021923554" y2="34.0843485968" /><line stroke="rgb(66,66,153)" stroke-width="1.06131190957" x1="25.1342513022" x2="29.5324153645" y1="58.5112667821" y2="66.1291103613" /><line stroke="rgb(66,66,153)" stroke-width="1.06131190957" x1="21.1543316365" x2="12.3580033937" y1="56.2134590787" y2="56.2134590169" /><line stroke="rgb(126,126,153)" stroke-width="1.06131190957" x1="33.5123350302" x2="42.308663273" y1="68.4269180647" y2="68.4269181265" /><line stroke="rgb(153,153,153)" stroke-width="1.06131190957" x1="50.6867470171" x2="46.2885829225" y1="58.5112666924" y2="66.129110451" /><line stroke="rgb(126,126,153)" stroke-width="1.06131190957" x1="25.1342512861" x2="29.5324153806" y1="29.4887333076" y2="21.870889549" /><line stroke="rgb(126,126,153)" stroke-width="1.06131190957" x1="21.1543316365" x2="12.3580033937" y1="31.7865409831" y2="31.7865409213" /><line stroke="rgb(153,153,153)" stroke-width="1.06131190957" x1="50.686747001" x2="46.2885829387" y1="29.4887332179" y2="21.8708896387" /><line stroke="rgb(153,153,153)" stroke-width="1.06131190957" x1="33.5123350302" x2="42.308663273" y1="19.5730818735" y2="19.5730819353" /><g transform="translate(30.8590552562,43.9999999505) scale(1.0,-1.0)"><circle cx="0" cy="0" fill="rgb(55,55,255)" r="2.65327977393" stroke="rgb(33,33,153)" stroke-width="0.265327977393" /></g></g></g><g transform="translate(333.333333333,100.0)"><rect fill="rgb(255,255,255)" height="100.0" width="66.6666666667" x="0" y="0" /><g transform="scale(1.0,-1.0) translate(6,-94.0)"><line stroke="rgb(153,153,153)" stroke-width="1.06131190957" x1="8.37808374413" x2="3.97991964956" y1="34.0843485968" y2="41.7021923554" /><line stroke="rgb(153,153,153)" stroke-width="1.06131190957" x1="8.378083728" x2="3.97991966569" y1="53.9156513135" y2="46.2978077343" /><g transform="translate(44.9619430469,44.0000000495) scale(1.0,-1.0)"><circle cx="0" cy="0" fill="rgb(165,165,255)" r="2.65327977393" stroke="rgb(99,99,153)" stroke-width="0.265327977393" /></g><g transform="translate(23.8076114104,56.2134590973) scale(1.0,-1.0)"><circle cx="0" cy="0" fill="rgb(255,255,255)" r="2.65327977393" stroke="rgb(153,153,153)" stroke-width="0.265327977393" /></g><g transform="translate(30.8590552562,68.4269180461) scale(1.0,-1.0)"><circle cx="0" cy="0" fill="rgb(165,165,255)" r="2.65327977393" stroke="rgb(99,99,153)" stroke-width="0.265327977393" /></g><g transform="translate(52.0133868927,56.2134589983) scale(1.0,-1.0)"><circle cx="0" cy="0" fill="rgb(55,55,255)" r="2.65327977393" stroke="rgb(33,33,153)" stroke-width="0.265327977393" /></g><g transform="translate(44.9619430469,68.4269181451) scale(1.0,-1.0)"><circle cx="0" cy="0" fill="rgb(55,55,255)" r="2.65327977393" stroke="rgb(33,33,153)" stroke-width="0.265327977393" /></g><g transform="translate(23.8076114104,31.7865410017) scale(1.0,-1.0)"><circle cx="0" cy="0" fill="rgb(255,255,255)" r="2.65327977393" stroke="rgb(153,153,153)" stroke-width="0.265327977393" /></g><g transform="translate(52.0133868927,31.7865409027) scale(1.0,-1.0)"><circle cx="0" cy="0" fill="rgb(255,255,255)" r="2.65327977393" stroke="rgb(153,153,153)" stroke-width="0.265327977393" /></g><g transform="translate(30.8590552562,19.5730818549) scale(1.0,-1.0)"><circle cx="0" cy="0" fill="rgb(255,255,255)" r="2.65327977393" stroke="rgb(153,153,153)" stroke-width="0.265327977393" /></g><g transform="translate(44.9619430469,19.5730819539) scale(1.0,-1.0)"><circle cx="0" cy="0" fill="rgb(255,255,255)" r="2.65327977393" stroke="rgb(153,153,153)" stroke-width="0.265327977393" /></g><g transform="translate(9.70472361976,56.2134589983) scale(1.0,-1.0)"><circle cx="0" cy="0" fill="rgb(255,255,255)" r="2.65327977393" stroke="rgb(153,153,153)" stroke-width="0.265327977393" /></g><g transform="translate(9.70472361976,31.7865409027) scale(1.0,-1.0)"><circle cx="0" cy="0" fill="rgb(255,255,255)" r="2.65327977393" stroke="rgb(153,153,153)" stroke-width="0.265327977393" /></g><g transform="translate(2.65327977393,44.0000000495) scale(1.0,-1.0)"><circle cx="0" cy="0" fill="rgb(255,255,255)" r="2.65327977393" stroke="rgb(153,153,153)" stroke-width="0.265327977393" /></g><line stroke="rgb(126,126,153)" stroke-width="1.06131190957" x1="33.5123350302" x2="42.308663273" y1="43.9999999691" y2="44.0000000309" /><line stroke="rgb(153,153,153)" stroke-width="1.06131190957" x1="29.5324153806" x2="25.1342512861" y1="46.2978076446" y2="53.9156514032" /><line stroke="rgb(153,153,153)" stroke-width="1.06131190957" x1="29.5324153645" x2="25.1342513022" y1="41.7021922657" y2="34.0843486865" /><line stroke="rgb(66,66,153)" stroke-width="1.06131190957" x1="46.2885829387" x2="50.686747001" y1="46.2978077343" y2="53.9156513135" /><line stroke="rgb(126,126,153)" stroke-width="1.06131190957" x1="46.2885829225" x2="50.6867470171" y1="41.7021923554" y2="34.0843485968" /><line stroke="rgb(126,126,153)" stroke-width="1.06131190957" x1="25.1342513022" x2="29.5324153645" y1="58.5112667821" y2="66.1291103613" /><line stroke="rgb(153,153,153)" stroke-width="1.06131190957" x1="21.1543316365" x2="12.3580033937" y1="56.2134590787" y2="56.2134590169" /><line stroke="rgb(66,66,153)" stroke-width="1.06131190957" x1="33.5123350302" x2="42.308663273" y1="68.4269180647" y2="68.4269181265" /><line stroke="rgb(33,33,153)" stroke-width="1.06131190957" x1="50.6867470171" x2="46.2885829225" y1="58.5112666924" y2="66.129110451" /><line stroke="rgb(153,153,153)" stroke-width="1.06131190957" x1="25.1342512861" x2="29.5324153806" y1="29.4887333076" y2="21.870889549" /><line stroke="rgb(153,153,153)" stroke-width="1.06131190957" x1="21.1543316365" x2="12.3580033937" y1="31.7865409831" y2="31.7865409213" /><line stroke="rgb(153,153,153)" stroke-width="1.06131190957" x1="50.686747001" x2="46.2885829387" y1="29.4887332179" y2="21.8708896387" /><line stroke="rgb(153,153,153)" stroke-width="1.06131190957" x1="33.5123350302" x2="42.308663273" y1="19.5730818735" y2="19.5730819353" /><g transform="translate(30.8590552562,43.9999999505) scale(1.0,-1.0)"><circle cx="0" cy="0" fill="rgb(255,255,255)" r="2.65327977393" stroke="rgb(153,153,153)" stroke-width="0.265327977393" /></g></g></g><g transform="translate(333.333333333,200.0)"><rect fill="rgb(255,255,255)" height="100.0" width="66.6666666667" x="0" y="0" /><g transform="scale(1.0,-1.0) translate(6,-94.0)"><line stroke="rgb(153,153,153)" stroke-width="1.06131190957" x1="8.37808374413" x2="3.97991964956" y1="34.0843485968" y2="41.7021923554" /><line stroke="rgb(153,153,153)" stroke-width="1.06131190957" x1="8.378083728" x2="3.97991966569" y1="53.9156513135" y2="46.2978077343" /><g transform="translate(44.9619430469,44.0000000495) scale(1.0,-1.0)"><circle cx="0" cy="0" fill="rgb(255,255,255)" r="2.65327977393" stroke="rgb(153,153,153)" stroke-width="0.265327977393" /></g><g transform="translate(23.8076114104,56.2134590973) scale(1.0,-1.0)"><circle cx="0" cy="0" fill="rgb(165,165,255)" r="2.65327977393" stroke="rgb(99,99,153)" stroke-width="0.265327977393" /></g><g transform="translate(30.8590552562,68.4269180461) scale(1.0,-1.0)"><circle cx="0" cy="0" fill="rgb(55,55,255)" r="2.65327977393" stroke="rgb(33,33,153)" stroke-width="0.265327977393" /></g><g transform="translate(52.0133868927,56.2134589983) scale(1.0,-1.0)"><circle cx="0" cy="0" fill="rgb(255,255,255)" r="2.65327977393" stroke="rgb(153,153,153)" stroke-width="0.265327977393" /></g><g transform="translate(44.9619430469,68.4269181451) scale(1.0,-1.0)"><circle cx="0" cy="0" fill="rgb(165,165,255)" r="2.65327977393" stroke="rgb(99,99,153)" stroke-width="0.265327977393" /></g><g transform="translate(23.8076114104,31.7865410017) scale(1.0,-1.0)"><circle cx="0" cy="0" fill="rgb(255,255,255)" r="2.65327977393" stroke="rgb(153,153,153)" stroke-width="0.265327977393" /></g><g transform="translate(52.0133868927,31.7865409027) scale(1.0,-1.0)"><circle cx="0" cy="0" fill="rgb(255,255,255)" r="2.65327977393" stroke="rgb(153,153,153)" stroke-width="0.265327977393" /></g><g transform="translate(30.8590552562,19.5730818549) scale(1.0,-1.0)"><circle cx="0" cy="0" fill="rgb(255,255,255)" r="2.65327977393" stroke="rgb(153,153,153)" stroke-width="0.265327977393" /></g><g transform="translate(44.9619430469,19.5730819539) scale(1.0,-1.0)"><circle cx="0" cy="0" fill="rgb(255,255,255)" r="2.65327977393" stroke="rgb(153,153,153)" stroke-width="0.265327977393" /></g><g transform="translate(9.70472361976,56.2134589983) scale(1.0,-1.0)"><circle cx="0" cy="0" fill="rgb(255,255,255)" r="2.65327977393" stroke="rgb(153,153,153)" stroke-width="0.265327977393" /></g><g transform="translate(9.70472361976,31.7865409027) scale(1.0,-1.0)"><circle cx="0" cy="0" fill="rgb(255,255,255)" r="2.65327977393" stroke="rgb(153,153,153)" stroke-width="0.265327977393" /></g><g transform="translate(2.65327977393,44.0000000495) scale(1.0,-1.0)"><circle cx="0" cy="0" fill="rgb(255,255,255)" r="2.65327977393" stroke="rgb(153,153,153)" stroke-width="0.265327977393" /></g><line stroke="rgb(153,153,153)" stroke-width="1.06131190957" x1="33.5123350302" x2="42.308663273" y1="43.9999999691" y2="44.0000000309" /><line stroke="rgb(126,126,153)" stroke-width="1.06131190957" x1="29.5324153806" x2="25.1342512861" y1="46.2978076446" y2="53.9156514032" /><line stroke="rgb(153,153,153)" stroke-width="1.06131190957" x1="29.5324153645" x2="25.1342513022" y1="41.7021922657" y2="34.0843486865" /><line stroke="rgb(153,153,153)" stroke-width="1.06131190957" x1="46.2885829387" x2="50.686747001" y1="46.2978077343" y2="53.9156513135" /><line stroke="rgb(153,153,153)" stroke-width="1.06131190957" x1="46.2885829225" x2="50.6867470171" y1="41.7021923554" y2="34.0843485968" /><line stroke="rgb(66,66,153)" stroke-width="1.06131190957" x1="25.1342513022" x2="29.5324153645" y1="58.5112667821" y2="66.1291103613" /><line stroke="rgb(126,126,153)" stroke-width="1.06131190957" x1="21.1543316365" x2="12.3580033937" y1="56.2134590787" y2="56.2134590169" /><line stroke="rgb(66,66,153)" stroke-width="1.06131190957" x1="33.5123350302" x2="42.308663273" y1="68.4269180647" y2="68.4269181265" /><line stroke="rgb(126,126,153)" stroke-width="1.06131190957" x1="50.6867470171" x2="46.2885829225" y1="58.5112666924" y2="66.129110451" /><line stroke="rgb(153,153,153)" stroke-width="1.06131190957" x1="25.1342512861" x2="29.5324153806" y1="29.4887333076" y2="21.870889549" /><line stroke="rgb(153,153,153)" stroke-width="1.06131190957" x1="21.1543316365" x2="12.3580033937" y1="31.7865409831" y2="31.7865409213" /><line stroke="rgb(153,153,153)" stroke-width="1.06131190957" x1="50.686747001" x2="46.2885829387" y1="29.4887332179" y2="21.8708896387" /><line stroke="rgb(153,153,153)" stroke-width="1.06131190957" x1="33.5123350302" x2="42.308663273" y1="19.5730818735" y2="19.5730819353" /><g transform="translate(30.8590552562,43.9999999505) scale(1.0,-1.0)"><circle cx="0" cy="0" fill="rgb(255,255,255)" r="2.65327977393" stroke="rgb(153,153,153)" stroke-width="0.265327977393" /></g></g></g><g transform="translate(333.333333333,300.0)"><rect fill="rgb(255,255,255)" height="100.0" width="66.6666666667" x="0" y="0" /><g transform="scale(1.0,-1.0) translate(6,-94.0)"><line stroke="rgb(126,126,153)" stroke-width="1.06131190957" x1="8.37808374413" x2="3.97991964956" y1="34.0843485968" y2="41.7021923554" /><line stroke="rgb(66,66,153)" stroke-width="1.06131190957" x1="8.378083728" x2="3.97991966569" y1="53.9156513135" y2="46.2978077343" /><g transform="translate(44.9619430469,44.0000000495) scale(1.0,-1.0)"><circle cx="0" cy="0" fill="rgb(255,255,255)" r="2.65327977393" stroke="rgb(153,153,153)" stroke-width="0.265327977393" /></g><g transform="translate(23.8076114104,56.2134590973) scale(1.0,-1.0)"><circle cx="0" cy="0" fill="rgb(165,165,255)" r="2.65327977393" stroke="rgb(99,99,153)" stroke-width="0.265327977393" /></g><g transform="translate(30.8590552562,68.4269180461) scale(1.0,-1.0)"><circle cx="0" cy="0" fill="rgb(255,255,255)" r="2.65327977393" stroke="rgb(153,153,153)" stroke-width="0.265327977393" /></g><g transform="translate(52.0133868927,56.2134589983) scale(1.0,-1.0)"><circle cx="0" cy="0" fill="rgb(255,255,255)" r="2.65327977393" stroke="rgb(153,153,153)" stroke-width="0.265327977393" /></g><g transform="translate(44.9619430469,68.4269181451) scale(1.0,-1.0)"><circle cx="0" cy="0" fill="rgb(255,255,255)" r="2.65327977393" stroke="rgb(153,153,153)" stroke-width="0.265327977393" /></g><g transform="translate(23.8076114104,31.7865410017) scale(1.0,-1.0)"><circle cx="0" cy="0" fill="rgb(255,255,255)" r="2.65327977393" stroke="rgb(153,153,153)" stroke-width="0.265327977393" /></g><g transform="translate(52.0133868927,31.7865409027) scale(1.0,-1.0)"><circle cx="0" cy="0" fill="rgb(255,255,255)" r="2.65327977393" stroke="rgb(153,153,153)" stroke-width="0.265327977393" /></g><g transform="translate(30.8590552562,19.5730818549) scale(1.0,-1.0)"><circle cx="0" cy="0" fill="rgb(255,255,255)" r="2.65327977393" stroke="rgb(153,153,153)" stroke-width="0.265327977393" /></g><g transform="translate(44.9619430469,19.5730819539) scale(1.0,-1.0)"><circle cx="0" cy="0" fill="rgb(255,255,255)" r="2.65327977393" stroke="rgb(153,153,153)" stroke-width="0.265327977393" /></g><g transform="translate(9.70472361976,56.2134589983) scale(1.0,-1.0)"><circle cx="0" cy="0" fill="rgb(55,55,255)" r="2.65327977393" stroke="rgb(33,33,153)" stroke-width="0.265327977393" /></g><g transform="translate(9.70472361976,31.7865409027) scale(1.0,-1.0)"><circle cx="0" cy="0" fill="rgb(255,255,255)" r="2.65327977393" stroke="rgb(153,153,153)" stroke-width="0.265327977393" /></g><g transform="translate(2.65327977393,44.0000000495) scale(1.0,-1.0)"><circle cx="0" cy="0" fill="rgb(165,165,255)" r="2.65327977393" stroke="rgb(99,99,153)" stroke-width="0.265327977393" /></g><line stroke="rgb(153,153,153)" stroke-width="1.06131190957" x1="33.5123350302" x2="42.308663273" y1="43.9999999691" y2="44.0000000309" /><line stroke="rgb(126,126,153)" stroke-width="1.06131190957" x1="29.5324153806" x2="25.1342512861" y1="46.2978076446" y2="53.9156514032" /><line stroke="rgb(153,153,153)" stroke-width="1.06131190957" x1="29.5324153645" x2="25.1342513022" y1="41.7021922657" y2="34.0843486865" /><line stroke="rgb(153,153,153)" stroke-width="1.06131190957" x1="46.2885829387" x2="50.686747001" y1="46.2978077343" y2="53.9156513135" /><line stroke="rgb(153,153,153)" stroke-width="1.06131190957" x1="46.2885829225" x2="50.6867470171" y1="41.7021923554" y2="34.0843485968" /><line stroke="rgb(126,126,153)" stroke-width="1.06131190957" x1="25.1342513022" x2="29.5324153645" y1="58.5112667821" y2="66.1291103613" /><line stroke="rgb(66,66,153)" stroke-width="1.06131190957" x1="21.1543316365" x2="12.3580033937" y1="56.2134590787" y2="56.2134590169" /><line stroke="rgb(153,153,153)" stroke-width="1.06131190957" x1="33.5123350302" x2="42.308663273" y1="68.4269180647" y2="68.4269181265" /><line stroke="rgb(153,153,153)" stroke-width="1.06131190957" x1="50.6867470171" x2="46.2885829225" y1="58.5112666924" y2="66.129110451" /><line stroke="rgb(153,153,153)" stroke-width="1.06131190957" x1="25.1342512861" x2="29.5324153806" y1="29.4887333076" y2="21.870889549" /><line stroke="rgb(153,153,153)" stroke-width="1.06131190957" x1="21.1543316365" x2="12.3580033937" y1="31.7865409831" y2="31.7865409213" /><line stroke="rgb(153,153,153)" stroke-width="1.06131190957" x1="50.686747001" x2="46.2885829387" y1="29.4887332179" y2="21.8708896387" /><line stroke="rgb(153,153,153)" stroke-width="1.06131190957" x1="33.5123350302" x2="42.308663273" y1="19.5730818735" y2="19.5730819353" /><g transform="translate(30.8590552562,43.9999999505) scale(1.0,-1.0)"><circle cx="0" cy="0" fill="rgb(255,255,255)" r="2.65327977393" stroke="rgb(153,153,153)" stroke-width="0.265327977393" /></g></g></g></svg>